<svg width="21" height="21" viewBox="0 0 21 21" fill="none" xmlns="http://www.w3.org/2000/svg">
<circle cx="10.2795" cy="10.4795" r="7.2041" transform="rotate(90 10.2795 10.4795)" stroke="#6EB0E2" stroke-width="1.2"/>
<line x1="10.4999" y1="1" x2="10.4999" y2="5.54996" stroke="#6EB0E2" stroke-width="1.2"/>
<line x1="10.5" y1="15.4082" x2="10.5" y2="19.9582" stroke="#6EB0E2" stroke-width="1.2"/>
<line x1="5.34985" y1="10.4467" x2="0.799896" y2="10.4467" stroke="#6EB0E2" stroke-width="1.2"/>
<path d="M19.1894 10.9416C19.3773 10.8648 19.5001 10.6819 19.5001 10.4789C19.5001 10.2758 19.3773 10.093 19.1894 10.0161L10.8478 6.60363C10.6426 6.51967 10.4066 6.58091 10.268 6.75406C10.1295 6.92722 10.1216 7.17091 10.2486 7.3527L12.4319 10.4788L10.2486 13.605C10.1216 13.7868 10.1295 14.0305 10.268 14.2037C10.4066 14.3768 10.6426 14.4381 10.8478 14.3541L19.1894 10.9416Z" fill="#F53C03" stroke="white" stroke-linejoin="round"/>
</svg>
