<svg width="21" height="21" viewBox="0 0 21 21" fill="none" xmlns="http://www.w3.org/2000/svg">
<circle cx="10.1309" cy="10.5361" r="7.2041" transform="rotate(135 10.1309 10.5361)" stroke="#6EB0E2" stroke-width="1.2"/>
<line x1="16.9896" y1="3.98969" x2="13.7723" y2="7.207" stroke="#6EB0E2" stroke-width="1.2"/>
<line x1="6.80155" y1="14.1782" x2="3.58425" y2="17.3955" stroke="#6EB0E2" stroke-width="1.2"/>
<line x1="6.66778" y1="7.02778" x2="3.45047" y2="3.81047" stroke="#6EB0E2" stroke-width="1.2"/>
<path d="M16.1041 17.1641C16.2913 17.2426 16.5074 17.2001 16.651 17.0566C16.7946 16.913 16.8371 16.6969 16.7585 16.5097L13.2731 8.19828C13.1874 7.9938 12.9772 7.87021 12.7568 7.8947C12.5364 7.91919 12.3585 8.08591 12.3197 8.30423L11.6531 12.0586L7.89865 12.7253C7.68033 12.7641 7.51362 12.942 7.48913 13.1624C7.46464 13.3828 7.58822 13.5929 7.7927 13.6787L16.1041 17.1641Z" fill="#F53C03" stroke="white" stroke-linejoin="round"/>
</svg>
