<svg width="21" height="22" viewBox="0 0 21 22" fill="none" xmlns="http://www.w3.org/2000/svg">
<path d="M11.1983 16.614L10.4487 17.1403L10.5651 16.9523L10.14 16.689L9.80172 16.4795L10.5513 15.9533L10.4349 16.1413L10.86 16.4045L11.1983 16.614ZM14.7632 7.08714L14.8111 7.53388H15.2603H15.3347C16.9816 7.53388 18.2811 8.80959 18.2811 10.34C18.2811 11.8705 16.9816 13.1462 15.3347 13.1462H5.42754C3.78068 13.1462 2.48114 11.8705 2.48114 10.34C2.48114 8.86809 3.68061 7.63366 5.23753 7.53955L5.51246 7.53376L5.95209 7.52452L5.99908 7.0873C6.11074 6.04825 6.54363 5.12629 7.26291 4.46513C7.97908 3.80683 9.0119 3.37695 10.3811 3.37695C11.7493 3.37695 12.7828 3.81004 13.4999 4.47059C14.2202 5.13418 14.6528 6.05656 14.7632 7.08714Z" fill="#E1ECF2" stroke="#5C7CAD"/>
</svg>
