<svg width="21" height="21" viewBox="0 0 21 21" fill="none" xmlns="http://www.w3.org/2000/svg">
<path d="M15.3221 11.051L15.3699 11.4979H15.8193H15.8844C17.292 11.4979 18.4 12.591 18.4 13.899C18.4 15.2071 17.292 16.3002 15.8844 16.3002H7.2156C5.80801 16.3002 4.7 15.2071 4.7 13.899C4.7 12.591 5.80801 11.4979 7.2156 11.4979H7.2807H7.72998L7.77785 11.0512C7.87422 10.152 8.24735 9.35722 8.86437 8.78843C9.47818 8.22261 10.366 7.8502 11.55 7.8502C12.7329 7.8502 13.6214 8.22534 14.236 8.79318C14.854 9.36415 15.2269 10.1593 15.3221 11.051ZM8.81153 4.7002H8.8116C9.80856 4.7002 10.711 5.12341 11.3438 5.80311C8.73413 5.87721 6.78579 7.35913 6.08131 9.60058L6.08119 9.60054L6.07805 9.61136L6.04019 9.74202C5.37498 9.89878 4.75453 10.2078 4.22805 10.6455C3.83488 10.9724 3.50268 11.3639 3.24488 11.8017C3.04243 11.5956 2.88028 11.3512 2.76894 11.0808C2.5864 10.6376 2.54998 10.1477 2.66498 9.68232C2.77998 9.21696 3.0404 8.80041 3.40839 8.49321C3.77394 8.18805 4.2267 8.0066 4.70165 7.97478L4.92421 7.96977L5.334 7.96054L5.40532 7.5569C5.54678 6.75633 5.96574 6.03119 6.58864 5.50878C7.21154 4.98637 7.99857 4.70008 8.81153 4.7002ZM11.55 6.04595V5.8002C11.5499 5.8002 11.5498 5.8002 11.5497 5.8002C11.5496 5.8002 11.5494 5.8002 11.5493 5.8002L11.5497 6.04551C11.5498 6.04565 11.5499 6.0458 11.55 6.04595Z" fill="#E1ECF2" stroke="#5C7CAD"/>
</svg>
