<svg width="21" height="21" viewBox="0 0 21 21" fill="none" xmlns="http://www.w3.org/2000/svg">
<path d="M7.73691 14.9816L7.86847 15.464C7.86208 15.4657 7.85664 15.4699 7.85335 15.4757L6.80824 17.3046C6.80593 17.3099 6.80552 17.3159 6.80712 17.3215C6.80891 17.3277 6.81309 17.3331 6.81875 17.3363C6.82442 17.3395 6.83113 17.3404 6.83745 17.3388C6.84308 17.3373 6.848 17.334 6.85139 17.3293L7.8965 15.5003L7.73691 14.9816ZM7.73691 14.9816L7.86847 15.464C7.87487 15.4622 7.88169 15.4631 7.88745 15.4664L8.13539 15.0322L7.73691 14.9816ZM14.2721 6.85121L14.3199 7.29809H14.7693H14.8344C16.242 7.29809 17.35 8.39116 17.35 9.69924C17.35 11.0073 16.242 12.1004 14.8344 12.1004L14.097 12.0993L13.5962 12.0986V12.0993H12.8677H10.9588H10.4588V12.1004H9.71774H7.76579H7.47023L7.32773 12.3593L6.32526 14.1812C6.32196 14.1862 6.31695 14.1899 6.31114 14.1915C6.30483 14.1933 6.29807 14.1925 6.29232 14.1893C6.28658 14.1862 6.28231 14.1809 6.28043 14.1746C6.2787 14.1688 6.27912 14.1626 6.28158 14.1572L7.00577 12.8415L7.4137 12.1004H6.56774H6.16559C4.758 12.1004 3.64999 11.0073 3.64999 9.69924C3.64999 8.44153 4.672 7.38428 6.00194 7.30303L6.24124 7.29798L6.68098 7.2887L6.72785 6.85137C6.82421 5.95215 7.19734 5.15741 7.81436 4.58863C8.42817 4.0228 9.31603 3.65039 10.5 3.65039C11.6829 3.65039 12.5714 4.02553 13.186 4.59337C13.804 5.16435 14.1769 5.95951 14.2721 6.85121ZM13.5962 12.3123V12.4147L12.6252 14.1812C12.6219 14.1862 12.6169 14.1899 12.6111 14.1915C12.6048 14.1933 12.5981 14.1925 12.5923 14.1893C12.5866 14.1862 12.5823 14.1809 12.5804 14.1746L12.1015 14.3181L12.5804 14.1746C12.5787 14.1688 12.5791 14.1626 12.5816 14.1571L13.3059 12.8403L13.5962 12.3123ZM10.4588 12.2909V12.3937L9.47526 14.1812C9.47196 14.1862 9.46695 14.1899 9.46114 14.1915C9.45483 14.1933 9.44807 14.1925 9.44233 14.1893C9.43658 14.1862 9.43231 14.1809 9.43043 14.1746C9.4287 14.1688 9.42912 14.1626 9.43158 14.1572L10.1558 12.8415L10.4588 12.2909ZM11.0429 15.4918L11.5237 15.3546L11.0429 15.4918C11.0445 15.4974 11.0441 15.5034 11.0418 15.5087L10.0014 17.3293C9.998 17.334 9.99308 17.3373 9.98745 17.3388C9.98113 17.3404 9.97442 17.3395 9.96875 17.3363C9.96309 17.3331 9.95891 17.3277 9.95712 17.3215C9.95552 17.3159 9.95593 17.3099 9.95824 17.3046L10.9986 15.484C11.002 15.4793 11.0069 15.4759 11.0125 15.4745C11.0189 15.4728 11.0256 15.4737 11.0312 15.477C11.0369 15.4802 11.0411 15.4855 11.0429 15.4918Z" fill="#E1ECF2" stroke="#5C7CAD"/>
</svg>
