<svg width="21" height="21" viewBox="0 0 21 21" fill="none" xmlns="http://www.w3.org/2000/svg">
<path d="M12.9344 10.9761L12.9822 11.423H13.4316H13.4869C14.643 11.423 15.5472 12.32 15.5472 13.3862C15.5472 14.4525 14.643 15.3495 13.4869 15.3495H6.12694C4.9708 15.3495 4.06665 14.4525 4.06665 13.3862C4.06665 12.32 4.9708 11.423 6.12694 11.423H6.18221H6.63149L6.67936 10.9763C6.75947 10.2286 7.06916 9.57155 7.57794 9.10252C8.08351 8.63645 8.81834 8.3259 9.80691 8.3259C10.7944 8.3259 11.5298 8.63867 12.0361 9.1065C12.5459 9.57746 12.8553 10.235 12.9344 10.9761ZM7.4819 5.65137H7.48197C8.24642 5.65137 8.94379 5.95222 9.45859 6.44416C7.29859 6.56645 5.68473 7.82763 5.09188 9.71397L5.09176 9.71394L5.08863 9.72476L5.06867 9.79363C4.5088 9.93242 3.9868 10.1961 3.54219 10.5658C3.22767 10.8273 2.95821 11.1365 2.74295 11.481C2.60869 11.3289 2.49969 11.1546 2.42146 10.9647C2.2726 10.6032 2.24289 10.2036 2.33668 9.8241C2.43046 9.44457 2.64284 9.10484 2.94294 8.85431C3.24063 8.60579 3.60923 8.45788 3.99595 8.43162L4.18321 8.4274L4.593 8.41817L4.66432 8.01453C4.78134 7.35226 5.1279 6.7524 5.64316 6.32025C6.15842 5.88809 6.80943 5.65128 7.4819 5.65137ZM9.80691 6.8448V6.43439V6.8448ZM9.8066 6.43439C9.80648 6.43439 9.80636 6.43439 9.80624 6.43439L9.80679 6.84463L9.8066 6.43439Z" fill="#E1ECF2" stroke="#5C7CAD"/>
<mask id="path-2-inside-1_146_869" fill="white">
<path fill-rule="evenodd" clip-rule="evenodd" d="M16.8701 13.7099L17.1536 13.7099C18.2931 13.7099 19.217 12.8344 19.217 11.7543C19.217 10.6742 18.2931 9.7987 17.1536 9.7987H17.1091C16.9632 8.4539 15.9589 7.33984 14.1879 7.33984C13.4527 7.33984 12.8498 7.5303 12.3856 7.84997C13.3713 8.50113 14.0016 9.46676 14.1217 10.5249H14.188C15.8643 10.6925 16.8701 12.1751 16.8701 13.7099Z"/>
</mask>
<path fill-rule="evenodd" clip-rule="evenodd" d="M16.8701 13.7099L17.1536 13.7099C18.2931 13.7099 19.217 12.8344 19.217 11.7543C19.217 10.6742 18.2931 9.7987 17.1536 9.7987H17.1091C16.9632 8.4539 15.9589 7.33984 14.1879 7.33984C13.4527 7.33984 12.8498 7.5303 12.3856 7.84997C13.3713 8.50113 14.0016 9.46676 14.1217 10.5249H14.188C15.8643 10.6925 16.8701 12.1751 16.8701 13.7099Z" fill="#E1ECF2"/>
<path d="M17.1536 13.7099L17.1536 14.7099H17.1536V13.7099ZM16.8701 13.7099H15.8701V14.7099L16.8701 14.7099L16.8701 13.7099ZM17.1091 9.7987L16.1149 9.90652L16.2117 10.7987H17.1091V9.7987ZM12.3856 7.84997L11.8184 7.02636L10.5973 7.86723L11.8344 8.68437L12.3856 7.84997ZM14.1217 10.5249L13.1281 10.6377L13.2288 11.5249H14.1217V10.5249ZM14.188 10.5249L14.2875 9.52986L14.2378 9.52489H14.188V10.5249ZM17.1536 12.7099L16.8701 12.7099L16.8701 14.7099L17.1536 14.7099L17.1536 12.7099ZM18.217 11.7543C18.217 12.2322 17.792 12.7099 17.1536 12.7099V14.7099C18.7941 14.7099 20.217 13.4366 20.217 11.7543H18.217ZM17.1536 10.7987C17.792 10.7987 18.217 11.2764 18.217 11.7543H20.217C20.217 10.0721 18.7941 8.7987 17.1536 8.7987V10.7987ZM17.1091 10.7987H17.1536V8.7987H17.1091V10.7987ZM14.1879 8.33984C14.8551 8.33984 15.2997 8.54503 15.5848 8.80451C15.8757 9.06927 16.0654 9.44962 16.1149 9.90652L18.1033 9.69089C18.007 8.80298 17.6215 7.9539 16.931 7.32543C16.2347 6.69169 15.2917 6.33984 14.1879 6.33984V8.33984ZM12.9527 8.67358C13.2299 8.4827 13.6292 8.33984 14.1879 8.33984V6.33984C13.2761 6.33984 12.4696 6.5779 11.8184 7.02636L12.9527 8.67358ZM11.8344 8.68437C12.6064 9.19432 13.0456 9.91115 13.1281 10.6377L15.1153 10.4121C14.9576 9.02236 14.1363 7.80794 12.9367 7.01557L11.8344 8.68437ZM14.1217 11.5249H14.188V9.52489H14.1217V11.5249ZM14.0885 11.5199C15.1384 11.6249 15.8701 12.5642 15.8701 13.7099H17.8701C17.8701 11.786 16.5902 9.76013 14.2875 9.52986L14.0885 11.5199Z" fill="#5C7CAD" mask="url(#path-2-inside-1_146_869)"/>
</svg>
