<svg width="21" height="21" viewBox="0 0 21 21" fill="none" xmlns="http://www.w3.org/2000/svg">
<path d="M8.08346 15.6367L8.54353 15.8325L8.08346 15.6367C8.0729 15.6615 8.05745 15.6839 8.03801 15.7026L8.38465 16.0629L8.03801 15.7026C8.01858 15.7213 7.99558 15.7359 7.97038 15.7455L8.14822 16.2128L7.97037 15.7455C7.94517 15.7551 7.9183 15.7595 7.89136 15.7584C7.8396 15.7564 7.79063 15.7344 7.75473 15.6971C7.71882 15.6598 7.69876 15.61 7.69876 15.5582C7.69876 15.5064 7.71882 15.4566 7.75473 15.4193C7.79063 15.382 7.8396 15.36 7.89136 15.358C7.9183 15.357 7.94518 15.3614 7.97038 15.371C7.99557 15.3806 8.01857 15.3951 8.03801 15.4138C8.05745 15.4325 8.0729 15.455 8.08346 15.4798C8.09402 15.5046 8.09946 15.5313 8.09946 15.5582C8.09946 15.5852 8.09402 15.6119 8.08346 15.6367ZM14.0938 8.05922L14.1415 8.5061H14.591H14.6561C16.0636 8.5061 17.1716 9.59917 17.1716 10.9072C17.1716 12.2153 16.0636 13.3084 14.6561 13.3084H5.98725C4.57966 13.3084 3.47165 12.2153 3.47165 10.9072C3.47165 9.64954 4.49365 8.59228 5.82359 8.51104L6.06289 8.50599L6.50264 8.49671L6.5495 8.05938C6.64586 7.16016 7.019 6.36542 7.63602 5.79664C8.24983 5.23081 9.13769 4.8584 10.3217 4.8584C11.5045 4.8584 12.393 5.23354 13.0077 5.80138C13.6257 6.37235 13.9985 7.16752 14.0938 8.05922ZM12.9828 15.6367L13.4428 15.8325L12.9828 15.6367C12.9722 15.6615 12.9567 15.6839 12.9373 15.7026L13.284 16.0629L12.9373 15.7026C12.9179 15.7213 12.8949 15.7359 12.8697 15.7455L13.0475 16.2128L12.8697 15.7455C12.8445 15.7551 12.8176 15.7595 12.7907 15.7584C12.7389 15.7564 12.6899 15.7344 12.654 15.6971C12.6181 15.6598 12.5981 15.61 12.5981 15.5582C12.5981 15.5064 12.6181 15.4566 12.654 15.4193C12.6899 15.382 12.7389 15.36 12.7907 15.358C12.8176 15.357 12.8445 15.3614 12.8697 15.371C12.8949 15.3806 12.9179 15.3951 12.9373 15.4138C12.9567 15.4325 12.9722 15.455 12.9828 15.4798C12.9933 15.5046 12.9988 15.5313 12.9988 15.5582C12.9988 15.5852 12.9933 15.6119 12.9828 15.6367ZM10.341 16.0584C10.3679 16.0573 10.3948 16.0617 10.42 16.0713C10.4452 16.0809 10.4682 16.0955 10.4877 16.1142C10.5071 16.1329 10.5226 16.1553 10.5331 16.1801C10.5437 16.2049 10.5491 16.2316 10.5491 16.2586C10.5491 16.2855 10.5437 16.3122 10.5331 16.337C10.5226 16.3618 10.5071 16.3843 10.4877 16.403C10.4682 16.4217 10.4452 16.4362 10.42 16.4458C10.3948 16.4554 10.368 16.4598 10.341 16.4588C10.2893 16.4568 10.2403 16.4348 10.2044 16.3975C10.1685 16.3602 10.1484 16.3104 10.1484 16.2586C10.1484 16.2068 10.1685 16.157 10.2044 16.1197C10.2403 16.0823 10.2893 16.0604 10.341 16.0584Z" fill="#E1ECF2" stroke="#5C7CAD"/>
</svg>
