<svg width="21" height="21" viewBox="0 0 21 21" fill="none" xmlns="http://www.w3.org/2000/svg">
<circle cx="9.99972" cy="9.86914" r="7.2041" transform="rotate(-45 9.99972 9.86914)" stroke="#6EB0E2" stroke-width="1.2"/>
<line x1="3.14104" y1="16.4156" x2="6.35835" y2="13.1983" stroke="#6EB0E2" stroke-width="1.2"/>
<line x1="13.3291" y1="6.2271" x2="16.5464" y2="3.0098" stroke="#6EB0E2" stroke-width="1.2"/>
<line x1="13.4628" y1="13.3775" x2="16.6801" y2="16.5948" stroke="#6EB0E2" stroke-width="1.2"/>
<path d="M4.02654 3.24116C3.83931 3.16264 3.62319 3.20514 3.47962 3.3487C3.33606 3.49227 3.29356 3.70839 3.37208 3.89562L6.85749 12.207C6.94324 12.4115 7.15343 12.5351 7.37381 12.5106C7.59419 12.4861 7.77212 12.3194 7.81089 12.101L8.47753 8.34666L12.232 7.67997C12.4503 7.6412 12.617 7.46327 12.6415 7.24289C12.666 7.02251 12.5424 6.81232 12.3379 6.72657L4.02654 3.24116Z" fill="#F53C03" stroke="white" stroke-linejoin="round"/>
</svg>
