<svg width="21" height="21" viewBox="0 0 21 21" fill="none" xmlns="http://www.w3.org/2000/svg">
<circle cx="10.5208" cy="11.2793" r="7.2041" transform="rotate(180 10.5208 11.2793)" stroke="#6EB0E2" stroke-width="1.2"/>
<line x1="19.9999" y1="11.4994" x2="15.4499" y2="11.4994" stroke="#6EB0E2" stroke-width="1.2"/>
<line x1="5.5918" y1="11.4994" x2="1.04184" y2="11.4994" stroke="#6EB0E2" stroke-width="1.2"/>
<line x1="10.5527" y1="6.34961" x2="10.5527" y2="1.79965" stroke="#6EB0E2" stroke-width="1.2"/>
<path d="M10.0582 20.1893C10.135 20.3772 10.3179 20.5 10.5209 20.5C10.724 20.5 10.9068 20.3772 10.9837 20.1893L14.3962 11.8477C14.4801 11.6425 14.4189 11.4065 14.2458 11.268C14.0726 11.1295 13.8289 11.1215 13.6471 11.2485L10.521 13.4319L7.39477 11.2485C7.21298 11.1215 6.96928 11.1295 6.79613 11.268C6.62298 11.4065 6.56174 11.6425 6.6457 11.8477L10.0582 20.1893Z" fill="#F53C03" stroke="white" stroke-linejoin="round"/>
</svg>
