<svg width="21" height="21" viewBox="0 0 21 21" fill="none" xmlns="http://www.w3.org/2000/svg">
<circle cx="9.46359" cy="10.1312" r="7.2041" transform="rotate(-135 9.46359 10.1312)" stroke="#6EB0E2" stroke-width="1.2"/>
<line x1="16.0104" y1="16.9897" x2="12.7931" y2="13.7724" stroke="#6EB0E2" stroke-width="1.2"/>
<line x1="5.82238" y1="6.80122" x2="2.60507" y2="3.58391" stroke="#6EB0E2" stroke-width="1.2"/>
<line x1="12.9719" y1="6.66753" x2="16.1893" y2="3.45023" stroke="#6EB0E2" stroke-width="1.2"/>
<path d="M2.83622 16.1036C2.7577 16.2909 2.8002 16.507 2.94376 16.6505C3.08733 16.7941 3.30345 16.8366 3.49068 16.7581L11.8021 13.2727C12.0065 13.1869 12.1301 12.9767 12.1056 12.7563C12.0811 12.536 11.9144 12.358 11.6961 12.3193L7.94173 11.6526L7.27503 7.89819C7.23626 7.67987 7.05833 7.51316 6.83795 7.48867C6.61757 7.46418 6.40739 7.58776 6.32163 7.79225L2.83622 16.1036Z" fill="#F53C03" stroke="white" stroke-linejoin="round"/>
</svg>
