<svg width="21" height="21" viewBox="0 0 21 21" fill="none" xmlns="http://www.w3.org/2000/svg">
<path d="M14.175 16.2504L14.1759 16.2504C14.1822 16.2504 14.1882 16.2527 14.1928 16.2569C14.1974 16.2611 14.2003 16.2669 14.2009 16.2731C14.2014 16.2794 14.1996 16.2856 14.1959 16.2905C14.1937 16.2933 14.1911 16.2956 14.1881 16.2973L14.1528 16.3004L6.82499 16.3004L6.82407 16.3004C6.81783 16.3004 6.8118 16.2981 6.80718 16.2939C6.80257 16.2897 6.79969 16.2839 6.79913 16.2777C6.79857 16.2714 6.80035 16.2652 6.80413 16.2603L6.79703 16.2548L6.80413 16.2603C6.80625 16.2575 6.80891 16.2552 6.81191 16.2535L6.84717 16.2504L14.175 16.2504ZM4.72814 14.2004L4.72715 14.2004C4.71997 14.2004 4.71307 14.1976 4.70798 14.1925C4.70313 14.1877 4.70029 14.1812 4.70001 14.1744C4.70019 14.1695 4.70174 14.1651 4.70565 14.1605C4.70822 14.1575 4.71114 14.1552 4.71414 14.1536L4.75032 14.1504H16.2708C16.2799 14.1504 16.287 14.1535 16.2928 14.1592C16.2943 14.1608 16.2956 14.1624 16.2966 14.1639C16.2974 14.1651 16.298 14.1663 16.2985 14.1674C16.2988 14.168 16.299 14.1687 16.2992 14.1694C16.2997 14.171 16.3 14.1729 16.3 14.1754C16.3 14.1807 16.2985 14.1853 16.2943 14.1903C16.2918 14.1933 16.2889 14.1956 16.2858 14.1972L16.2497 14.2004L4.72814 14.2004ZM14.2721 6.85121L14.3199 7.29809H14.7693H14.8344C16.242 7.29809 17.35 8.39116 17.35 9.69924C17.35 11.0073 16.242 12.1004 14.8344 12.1004H6.16559C4.758 12.1004 3.64999 11.0073 3.64999 9.69924C3.64999 8.44153 4.672 7.38428 6.00194 7.30303L6.24124 7.29798L6.68098 7.2887L6.72785 6.85137C6.82421 5.95215 7.19734 5.15741 7.81436 4.58863C8.42817 4.0228 9.31603 3.65039 10.5 3.65039C11.6829 3.65039 12.5714 4.02553 13.186 4.59337C13.804 5.16435 14.1769 5.95951 14.2721 6.85121Z" fill="#E1ECF2" stroke="#5C7CAD"/>
</svg>
