<svg width="21" height="21" viewBox="0 0 21 21" fill="none" xmlns="http://www.w3.org/2000/svg">
<circle cx="9.72055" cy="10.5205" r="7.2041" transform="rotate(-90 9.72055 10.5205)" stroke="#6EB0E2" stroke-width="1.2"/>
<line x1="9.50007" y1="20" x2="9.50007" y2="15.45" stroke="#6EB0E2" stroke-width="1.2"/>
<line x1="9.50004" y1="5.5918" x2="9.50004" y2="1.04184" stroke="#6EB0E2" stroke-width="1.2"/>
<line x1="14.6501" y1="10.5533" x2="19.2001" y2="10.5533" stroke="#6EB0E2" stroke-width="1.2"/>
<path d="M0.810622 10.0584C0.62271 10.1352 0.499939 10.3181 0.499939 10.5211C0.499939 10.7242 0.62271 10.907 0.810622 10.9839L9.15221 14.3964C9.35744 14.4803 9.59345 14.4191 9.73197 14.2459C9.87048 14.0728 9.87841 13.8291 9.75145 13.6473L7.56809 10.5212L9.75145 7.39495C9.87841 7.21316 9.87048 6.96946 9.73196 6.79631C9.59345 6.62317 9.35744 6.56193 9.15221 6.64589L0.810622 10.0584Z" fill="#F53C03" stroke="white" stroke-linejoin="round"/>
</svg>
