<svg width="21" height="21" viewBox="0 0 21 21" fill="none" xmlns="http://www.w3.org/2000/svg">
<circle cx="10.479" cy="9.7207" r="7.2041" stroke="#6EB0E2" stroke-width="1.2"/>
<line x1="0.999878" y1="9.50059" x2="5.54984" y2="9.50059" stroke="#6EB0E2" stroke-width="1.2"/>
<line x1="15.408" y1="9.50059" x2="19.9579" y2="9.50059" stroke="#6EB0E2" stroke-width="1.2"/>
<line x1="10.447" y1="14.6504" x2="10.447" y2="19.2003" stroke="#6EB0E2" stroke-width="1.2"/>
<path d="M10.9416 0.810684C10.8647 0.622771 10.6818 0.5 10.4788 0.5C10.2758 0.5 10.0929 0.622771 10.016 0.810684L6.60357 9.15227C6.51961 9.3575 6.58085 9.59351 6.754 9.73203C6.92715 9.87054 7.17085 9.87847 7.35264 9.75151L10.4788 7.56815L13.605 9.75151C13.7868 9.87847 14.0305 9.87054 14.2036 9.73203C14.3768 9.59351 14.438 9.3575 14.3541 9.15227L10.9416 0.810684Z" fill="#F53C03" stroke="white" stroke-linejoin="round"/>
</svg>
