<svg width="21" height="21" viewBox="0 0 21 21" fill="none" xmlns="http://www.w3.org/2000/svg">
<circle cx="10.5364" cy="9.8688" r="7.2041" transform="rotate(45 10.5364 9.8688)" stroke="#6EB0E2" stroke-width="1.2"/>
<line x1="3.98957" y1="3.01031" x2="7.20688" y2="6.22761" stroke="#6EB0E2" stroke-width="1.2"/>
<line x1="14.1776" y1="13.1988" x2="17.3949" y2="16.4161" stroke="#6EB0E2" stroke-width="1.2"/>
<line x1="7.02805" y1="13.3325" x2="3.81075" y2="16.5498" stroke="#6EB0E2" stroke-width="1.2"/>
<path d="M17.1638 3.89638C17.2423 3.70915 17.1998 3.49303 17.0562 3.34946C16.9127 3.2059 16.6966 3.1634 16.5093 3.24192L8.19795 6.72733C7.99346 6.81309 7.86988 7.02327 7.89437 7.24366C7.91886 7.46404 8.08557 7.64196 8.3039 7.68073L12.0583 8.34738L12.725 12.1018C12.7637 12.3201 12.9417 12.4868 13.162 12.5113C13.3824 12.5358 13.5926 12.4122 13.6784 12.2078L17.1638 3.89638Z" fill="#F53C03" stroke="white" stroke-linejoin="round"/>
</svg>
