<svg width="21" height="21" viewBox="0 0 21 21" fill="none" xmlns="http://www.w3.org/2000/svg">
<path d="M15.194 11.8898L15.2417 12.3367H15.6911H15.7562C17.1638 12.3367 18.2718 13.4298 18.2718 14.7379C18.2718 16.046 17.1638 17.139 15.7562 17.139H7.08743C5.67984 17.139 4.57183 16.046 4.57183 14.7379C4.57183 13.4298 5.67984 12.3367 7.08743 12.3367H7.15253H7.60208L7.64972 11.8897C7.7456 10.9902 8.11868 10.1956 8.73574 9.62695C9.34964 9.06126 10.2378 8.68904 11.4218 8.68904C12.6042 8.68904 13.4928 9.06395 14.1075 9.63169C14.7257 10.2025 15.0987 10.9977 15.194 11.8898ZM9.01791 7.06359L9.04615 7.07734C7.53975 7.6823 6.44782 8.87717 5.95758 10.4281L5.95745 10.4281L5.95414 10.4395L5.91313 10.5809C5.60901 10.653 5.31371 10.7569 5.03203 10.8906C4.83911 10.4497 4.75626 9.96584 4.7941 9.48131C4.8441 8.84107 5.10207 8.23475 5.52869 7.75475C5.9553 7.27475 6.52717 6.94742 7.15711 6.82263C7.78706 6.69785 8.44052 6.78247 9.01791 7.06359ZM3.39227 11.188L3.39262 11.188C3.3945 11.1935 3.3944 11.1995 3.39233 11.2049C3.39129 11.2076 3.3898 11.2101 3.38793 11.2123L3.35724 11.2258L2.53555 11.5089L2.53555 11.5089L2.53329 11.5097C2.52738 11.5118 2.52091 11.5115 2.51515 11.5091C2.5094 11.5066 2.50479 11.5021 2.50222 11.4963C2.49966 11.4906 2.49933 11.4842 2.50131 11.4782C2.50238 11.475 2.5041 11.472 2.50633 11.4695L2.53829 11.4555L3.36053 11.1725C3.36055 11.1725 3.36058 11.1725 3.3606 11.1725C3.36685 11.1704 3.37368 11.1708 3.37961 11.1737C3.38556 11.1766 3.39012 11.1818 3.39227 11.188ZM10.142 4.74758L10.1424 4.74665L10.1421 4.74815C10.1473 4.75072 10.1515 4.75506 10.1539 4.7604C10.1552 4.76327 10.1559 4.76633 10.1561 4.76943L10.1435 4.80241L9.76374 5.58246L9.7636 5.58274C9.76087 5.58836 9.75614 5.59275 9.75033 5.59505C9.74453 5.59735 9.73807 5.5974 9.73223 5.59518C9.7264 5.59296 9.7216 5.58863 9.71879 5.58306C9.71716 5.57981 9.71626 5.57628 9.71613 5.5727L9.72907 5.53833L10.1084 4.75916L10.1085 4.75909C10.1099 4.75612 10.1119 4.75348 10.1144 4.7513C10.1168 4.74912 10.1197 4.74745 10.1228 4.74638C10.1259 4.74531 10.1292 4.74487 10.1325 4.74507C10.1358 4.74528 10.139 4.74613 10.142 4.74758ZM3.60306 7.66524L3.60333 7.66537C3.60895 7.6681 3.61334 7.67283 3.61564 7.67864C3.61795 7.68445 3.61799 7.6909 3.61577 7.69674C3.61355 7.70258 3.60923 7.70737 3.60365 7.71018C3.6004 7.71182 3.59687 7.71271 3.5933 7.71284L3.55905 7.69995L2.78104 7.32065L2.78053 7.32041C2.77492 7.31768 2.77053 7.31294 2.76822 7.30714C2.76592 7.30133 2.76588 7.29487 2.7681 7.28904C2.77032 7.2832 2.77464 7.2784 2.78022 7.27559C2.78353 7.27393 2.78714 7.27303 2.79078 7.27293L2.8221 7.28501L3.60306 7.66524ZM5.93338 4.50123C5.93658 4.50228 5.9395 4.50394 5.942 4.5061L5.95542 4.53586L6.23763 5.35589C6.23966 5.3618 6.23941 5.36824 6.23692 5.37397C6.23444 5.3797 6.2299 5.38429 6.2242 5.38684C6.21851 5.38939 6.21206 5.38971 6.20614 5.38775C6.20272 5.38663 6.19963 5.38479 6.19703 5.38239L6.18252 5.35024L5.90195 4.53303C5.90192 4.53292 5.90188 4.53281 5.90185 4.53271C5.89997 4.52691 5.90027 4.52061 5.90271 4.51502C5.90519 4.50932 5.90971 4.50475 5.91538 4.5022C5.92106 4.49965 5.92747 4.4993 5.93338 4.50123Z" fill="#E1ECF2" stroke="#5C7CAD"/>
</svg>
