<svg width="21" height="21" viewBox="0 0 21 21" fill="none" xmlns="http://www.w3.org/2000/svg">
<path d="M14.0938 8.05922L14.1415 8.5061H14.591H14.6561C16.0636 8.5061 17.1716 9.59917 17.1716 10.9072C17.1716 12.2153 16.0636 13.3084 14.6561 13.3084H5.98725C4.57966 13.3084 3.47165 12.2153 3.47165 10.9072C3.47165 9.64954 4.49365 8.59228 5.82359 8.51104L6.06289 8.50599L6.50264 8.49671L6.5495 8.05938C6.64586 7.16016 7.019 6.36542 7.63602 5.79664C8.24983 5.23081 9.13769 4.8584 10.3217 4.8584C11.5045 4.8584 12.393 5.23354 13.0077 5.80138C13.6257 6.37235 13.9985 7.16752 14.0938 8.05922ZM10.341 16.0584C10.3679 16.0573 10.3948 16.0617 10.42 16.0713C10.4452 16.0809 10.4682 16.0955 10.4877 16.1142C10.5071 16.1329 10.5226 16.1553 10.5331 16.1801C10.5437 16.2049 10.5491 16.2316 10.5491 16.2586C10.5491 16.2855 10.5437 16.3122 10.5331 16.337C10.5226 16.3618 10.5071 16.3843 10.4877 16.403C10.4682 16.4217 10.4452 16.4362 10.42 16.4458C10.3948 16.4554 10.368 16.4598 10.341 16.4588C10.2893 16.4568 10.2403 16.4348 10.2044 16.3975C10.1685 16.3602 10.1484 16.3104 10.1484 16.2586C10.1484 16.2068 10.1685 16.157 10.2044 16.1197C10.2403 16.0823 10.2893 16.0604 10.341 16.0584Z" fill="#E1ECF2" stroke="#5C7CAD"/>
</svg>
