<svg width="33" height="33" viewBox="0 0 33 33" fill="none" xmlns="http://www.w3.org/2000/svg">
<path d="M1.17871 16.6886H6.34085C6.55821 16.6861 6.77099 16.6259 6.95738 16.514C7.14378 16.4022 7.29708 16.2428 7.40157 16.0522L11.6444 7.56649C11.749 7.35522 11.9157 7.181 12.1222 7.06724C12.3286 6.95347 12.565 6.9056 12.7994 6.93006C13.033 6.94585 13.2558 7.03367 13.4374 7.18142C13.6189 7.32918 13.7501 7.5296 13.813 7.75506L19.0694 25.2451C19.1384 25.4823 19.2802 25.6919 19.4748 25.8442C19.6693 25.9964 19.9068 26.0837 20.1537 26.0936C20.385 26.086 20.609 26.0103 20.7976 25.8762C20.9863 25.7421 21.1312 25.5553 21.2144 25.3394L24.4437 17.4429C24.5326 17.2214 24.6855 17.0314 24.8828 16.8971C25.0801 16.7627 25.3129 16.6902 25.5516 16.6886H31.8216" stroke="#E2050D" stroke-width="2" stroke-linecap="round" stroke-linejoin="round"/>
</svg>
