<svg width="34" height="34" viewBox="0 0 34 34" fill="none" xmlns="http://www.w3.org/2000/svg">
<path d="M25.1148 17.8587L25.1625 18.3056H25.612H25.7174C28.1559 18.3056 30.0998 20.2027 30.0998 22.5027C30.0998 24.8027 28.1559 26.6998 25.7174 26.6998H11.6822C9.24367 26.6998 7.29976 24.8027 7.29976 22.5027C7.29976 20.2027 9.24367 18.3056 11.6822 18.3056H11.7876H12.2368L12.2847 17.8589C12.4477 16.3379 13.081 14.9787 14.1418 14.0008C15.1994 13.0259 16.7147 12.3998 18.6998 12.3998C20.6838 12.3998 22.2 13.0307 23.2586 14.0087C24.3206 14.9898 24.9535 16.3495 25.1148 17.8587ZM14.2661 7.2998H14.2662C16.2116 7.2998 17.946 8.24303 19.0242 9.70427C18.916 9.70115 18.8077 9.69966 18.6994 9.69981C14.433 9.69992 11.2682 12.0497 10.141 15.6361L10.1408 15.636L10.1377 15.6469L10.0323 16.0107L10.0295 16.0205L10.027 16.0304L10.026 16.0345C8.92912 16.2627 7.90481 16.7566 7.04305 17.4731C6.33486 18.0619 5.75439 18.786 5.3343 19.6008C4.83655 19.1893 4.44473 18.6602 4.19661 18.0578C3.87599 17.2792 3.81202 16.4187 4.01401 15.6014C4.21599 14.784 4.6734 14.0524 5.31975 13.5128C5.9636 12.9753 6.76149 12.6563 7.59826 12.6017L7.96532 12.5935L8.37511 12.5842L8.44644 12.1806C8.68813 10.8128 9.40394 9.57386 10.4682 8.6813C11.5324 7.78874 12.8771 7.29962 14.2661 7.2998Z" fill="#E1ECF2" stroke="#5C7CAD"/>
</svg>
