<svg width="25" height="26" viewBox="0 0 25 26" fill="none" xmlns="http://www.w3.org/2000/svg">
<path d="M21.875 12.2188V13.7812C21.875 13.9885 21.7927 14.1872 21.6462 14.3337C21.4997 14.4802 21.301 14.5625 21.0938 14.5625H3.90625C3.69905 14.5625 3.50034 14.4802 3.35382 14.3337C3.20731 14.1872 3.125 13.9885 3.125 13.7812V12.2188C3.125 12.0115 3.20731 11.8128 3.35382 11.6663C3.50034 11.5198 3.69905 11.4375 3.90625 11.4375H21.0938C21.301 11.4375 21.4997 11.5198 21.6462 11.6663C21.7927 11.8128 21.875 12.0115 21.875 12.2188ZM21.0938 17.6875H3.90625C3.69905 17.6875 3.50034 17.7698 3.35382 17.9163C3.20731 18.0628 3.125 18.2615 3.125 18.4688V20.0312C3.125 20.2385 3.20731 20.4372 3.35382 20.5837C3.50034 20.7302 3.69905 20.8125 3.90625 20.8125H21.0938C21.301 20.8125 21.4997 20.7302 21.6462 20.5837C21.7927 20.4372 21.875 20.2385 21.875 20.0312V18.4688C21.875 18.2615 21.7927 18.0628 21.6462 17.9163C21.4997 17.7698 21.301 17.6875 21.0938 17.6875ZM21.0938 5.1875H3.90625C3.69905 5.1875 3.50034 5.26981 3.35382 5.41632C3.20731 5.56284 3.125 5.76155 3.125 5.96875V7.53125C3.125 7.73845 3.20731 7.93716 3.35382 8.08368C3.50034 8.23019 3.69905 8.3125 3.90625 8.3125H21.0938C21.301 8.3125 21.4997 8.23019 21.6462 8.08368C21.7927 7.93716 21.875 7.73845 21.875 7.53125V5.96875C21.875 5.76155 21.7927 5.56284 21.6462 5.41632C21.4997 5.26981 21.301 5.1875 21.0938 5.1875Z" fill="white"/>
</svg>
