<svg width="33" height="33" viewBox="0 0 33 33" fill="none" xmlns="http://www.w3.org/2000/svg">
<path d="M16.4867 28.8982L16.4867 28.8981L16.482 28.8917C15.3583 27.3737 13.2721 24.4244 11.4713 21.1726C9.64271 17.8706 8.21875 14.4469 8.21875 11.9238C8.21875 7.64907 11.8808 4.09375 16.5 4.09375C21.1192 4.09375 24.7812 7.64907 24.7812 11.9238C24.7812 14.4492 23.3572 17.8733 21.5287 21.1747C19.728 24.426 17.6418 27.3742 16.5181 28.8915L16.5181 28.8915L16.5133 28.8982C16.5127 28.899 16.512 28.8998 16.5112 28.9005C16.5101 28.9016 16.5088 28.9024 16.5075 28.9031C16.5051 28.9043 16.5026 28.9049 16.5 28.9049C16.4974 28.9049 16.4949 28.9043 16.4925 28.9031C16.4902 28.902 16.4882 28.9003 16.4867 28.8982Z" stroke="#F1A615" stroke-width="2" stroke-linecap="round" stroke-linejoin="round"/>
<path d="M18.5938 12.375C18.5938 13.5313 17.6563 14.4688 16.5 14.4688C15.3437 14.4688 14.4062 13.5313 14.4062 12.375C14.4062 11.2187 15.3437 10.2812 16.5 10.2812C17.6563 10.2812 18.5938 11.2187 18.5938 12.375Z" stroke="#F1A615" stroke-width="2" stroke-linecap="round" stroke-linejoin="round"/>
</svg>
