<svg width="54" height="53" viewBox="0 0 54 53" fill="none" xmlns="http://www.w3.org/2000/svg">
<path d="M26.5 46V42.0727C20.516 37.8835 10.8067 37.418 6.7 37.7089V9.34479H4.5V40.7635C17.524 40.7635 24.5933 44.2545 26.5 46Z" fill="#2B7CB9"/>
<path fill-rule="evenodd" clip-rule="evenodd" d="M8.46 35.9636C17.26 35.6145 24.1533 38.1454 26.5 39.4546V11.0904C20.868 6.90124 12.1267 6.72669 8.46 7.16306V35.9636ZM10.66 11.0903C18.052 10.043 23.1267 12.3994 24.74 13.7085V15.0177C20.516 11.5267 13.5933 11.5267 10.66 11.9631V11.0903ZM10.66 15.715C18.052 14.6678 23.1267 17.0242 24.74 18.3333V19.6424C20.516 16.1514 13.5933 16.1514 10.66 16.5878V15.715ZM24.74 23.3944C23.1267 22.0853 18.052 19.7289 10.66 20.7761V21.6489C13.5933 21.2125 20.516 21.2125 24.74 24.7035V23.3944ZM10.66 26.188C18.052 25.1407 23.1267 27.4971 24.74 28.8062V30.1153C20.516 26.6244 13.5933 26.6244 10.66 27.0607V26.188ZM24.74 33.1699C23.1267 31.8608 18.052 29.5044 10.66 30.5517V31.4244C13.5933 30.9881 20.516 30.9881 24.74 34.479V33.1699Z" fill="#82BB3C"/>
<path d="M26.5 46V42.0727C32.484 37.8835 42.1933 37.418 46.3 37.7089V9.34479H48.5V40.7635C35.476 40.7635 28.4067 44.2545 26.5 46Z" fill="#2B7CB9"/>
<path fill-rule="evenodd" clip-rule="evenodd" d="M44.54 35.9636C35.74 35.6145 28.8467 38.1454 26.5 39.4546V11.0904C32.132 6.90124 40.8733 6.72669 44.54 7.16306V35.9636ZM42.34 11.0903C34.948 10.043 29.8733 12.3994 28.26 13.7085V15.0177C32.484 11.5267 39.4067 11.5267 42.34 11.9631V11.0903ZM42.34 15.715C34.948 14.6678 29.8733 17.0242 28.26 18.3333V19.6424C32.484 16.1514 39.4067 16.1514 42.34 16.5878V15.715ZM28.26 23.3944C29.8733 22.0853 34.948 19.7289 42.34 20.7761V21.6489C39.4067 21.2125 32.484 21.2125 28.26 24.7035V23.3944ZM42.34 26.188C34.948 25.1407 29.8733 27.4971 28.26 28.8062V30.1153C32.484 26.6244 39.4067 26.6244 42.34 27.0607V26.188ZM28.26 33.1699C29.8733 31.8608 34.948 29.5044 42.34 30.5517V31.4244C39.4067 30.9881 32.484 30.9881 28.26 34.479V33.1699Z" fill="#82BB3C"/>
</svg>
