<svg width="33" height="33" viewBox="0 0 33 33" fill="none" xmlns="http://www.w3.org/2000/svg">
<path d="M28 20.9556C28 13.3734 20.1417 5.53094 16.5 2V30.9909C20.1417 31.1767 28 28.5378 28 20.9556Z" fill="#2D62C1"/>
<path d="M5 20.9556C5 13.3734 12.8583 5.53094 16.5 2V30.9909C12.8583 31.1767 5 28.5378 5 20.9556Z" fill="#3898EA"/>
<path d="M11.6967 17.6372V17.0922C11.6967 16.7005 11.7843 16.3443 11.9595 16.0234C12.1347 15.7026 12.3902 15.4454 12.726 15.2519C13.0667 15.0585 13.4803 14.9617 13.967 14.9617C14.4634 14.9617 14.8794 15.0585 15.2152 15.2519C15.5559 15.4454 15.8114 15.7026 15.9817 16.0234C16.1569 16.3443 16.2445 16.7005 16.2445 17.0922V17.6372C16.2445 18.0194 16.1569 18.3709 15.9817 18.6918C15.8114 19.0126 15.5583 19.2698 15.2225 19.4633C14.8867 19.6567 14.4731 19.7534 13.9816 19.7534C13.49 19.7534 13.074 19.6567 12.7333 19.4633C12.3926 19.2698 12.1347 19.0126 11.9595 18.6918C11.7843 18.3709 11.6967 18.0194 11.6967 17.6372ZM13.0034 17.0922V17.6372C13.0034 17.8165 13.0375 17.9863 13.1056 18.1468C13.1786 18.3025 13.2881 18.4299 13.4341 18.529C13.5801 18.6281 13.7626 18.6776 13.9816 18.6776C14.2006 18.6776 14.3782 18.6281 14.5145 18.529C14.6556 18.4299 14.7602 18.3025 14.8283 18.1468C14.9013 17.9863 14.9378 17.8165 14.9378 17.6372V17.0922C14.9378 16.9081 14.9013 16.7359 14.8283 16.5755C14.7602 16.4151 14.6531 16.2853 14.5072 16.1862C14.366 16.0871 14.186 16.0376 13.967 16.0376C13.7528 16.0376 13.5728 16.0871 13.4268 16.1862C13.2857 16.2853 13.1786 16.4151 13.1056 16.5755C13.0375 16.7359 13.0034 16.9081 13.0034 17.0922ZM16.7993 23.4339V22.8889C16.7993 22.502 16.8869 22.1481 17.0621 21.8273C17.2421 21.5064 17.5025 21.2492 17.8432 21.0558C18.1838 20.8623 18.595 20.7656 19.0768 20.7656C19.5781 20.7656 19.9966 20.8623 20.3324 21.0558C20.6682 21.2492 20.9212 21.5064 21.0916 21.8273C21.2668 22.1481 21.3544 22.502 21.3544 22.8889V23.4339C21.3544 23.8209 21.2668 24.1747 21.0916 24.4956C20.9212 24.8165 20.6682 25.0736 20.3324 25.2671C20.0015 25.4606 19.5903 25.5573 19.0987 25.5573C18.6072 25.5573 18.1887 25.4606 17.8432 25.2671C17.5025 25.0736 17.2421 24.8165 17.0621 24.4956C16.8869 24.1747 16.7993 23.8209 16.7993 23.4339ZM18.1133 22.8889V23.4339C18.1133 23.618 18.1522 23.7902 18.2301 23.9506C18.3079 24.1063 18.4198 24.2337 18.5658 24.3328C18.7167 24.4319 18.8919 24.4815 19.0914 24.4815C19.3348 24.4815 19.527 24.4319 19.6681 24.3328C19.8092 24.2337 19.909 24.1063 19.9674 23.9506C20.0258 23.7902 20.055 23.618 20.055 23.4339V22.8889C20.055 22.7049 20.0185 22.535 19.9455 22.3793C19.8725 22.2189 19.763 22.0891 19.617 21.99C19.4759 21.891 19.2958 21.8414 19.0768 21.8414C18.8627 21.8414 18.6826 21.891 18.5366 21.99C18.3955 22.0891 18.2885 22.2189 18.2155 22.3793C18.1473 22.535 18.1133 22.7049 18.1133 22.8889ZM19.5586 16.5826L14.3685 24.6372L13.4122 24.1205L18.6023 16.0659L19.5586 16.5826Z" fill="white"/>
</svg>
