<svg width="31" height="31" viewBox="0 0 31 31" fill="none" xmlns="http://www.w3.org/2000/svg">
<path d="M10.7085 11L10.7085 15.5C10.7085 17.9853 12.7232 20 15.2085 20C17.6938 20 19.7085 17.9853 19.7085 15.5V11M10.7085 11H13.2085M10.7085 11L10.7085 8M10.7085 8V6.5C10.7085 4.01472 12.7232 2 15.2085 2C17.6938 2 19.7085 4.01472 19.7085 6.5V8M10.7085 8H13.2085M19.7085 8H17.2085M19.7085 8V11M19.7085 11H17.2085" stroke="#080808" stroke-width="1.7" stroke-linecap="round"/>
<path d="M6.16667 4.87467V7.45801M1 3.58301V8.74967M24.25 4.87467V7.45801M29.4167 3.58301V8.74967M10.7085 29.4163H13.7085M19.7085 29.4163H16.7082M13.2085 13.9163H6.16667V15.208C6.16667 17.606 7.11927 19.9058 8.81491 21.6014C10.1528 22.9393 11.8669 23.8147 13.7085 24.1244M17.2085 13.9163C20.1536 13.9163 24.25 13.9163 24.25 13.9163V15.208C24.25 17.606 23.2974 19.9058 21.6018 21.6014C20.2638 22.9393 18.5498 23.8147 16.7082 24.1244M13.7085 24.1244C14.2009 24.2073 14.7024 24.2497 15.2083 24.2497C15.7142 24.2497 16.2158 24.2073 16.7082 24.1244M13.7085 24.1244V29.4163M13.7085 29.4163H15.2083H16.7082M16.7082 24.1244V29.4163" stroke="#080808" stroke-width="1.7" stroke-linecap="round" stroke-linejoin="round"/>
</svg>
