<svg width="40" height="40" viewBox="0 0 40 40" fill="none" xmlns="http://www.w3.org/2000/svg">
<path d="M18.6798 14.9059C22.8655 14.9059 25.2393 17.5787 25.584 20.8051H25.6893C28.3824 20.8051 30.5661 22.9057 30.5661 25.497C30.5661 28.0883 28.3824 30.1889 25.6893 30.1889H11.6704C8.97729 30.1889 6.79362 28.0883 6.79362 25.497C6.79362 22.9057 8.97729 20.8051 11.6704 20.8051H11.7756C12.1237 17.5566 14.4942 14.9059 18.6798 14.9059ZM14.2514 9.81152C16.7237 9.81152 18.8802 11.2176 19.9449 13.2842C19.5252 13.2327 19.1027 13.2072 18.6798 13.2078C14.6215 13.2078 11.6636 15.4272 10.6074 18.7878L10.5021 19.1511L10.424 19.4687L10.1438 19.5196C9.11841 19.7285 8.16062 20.188 7.35591 20.857C6.5512 21.5261 5.92459 22.3839 5.53199 23.354C4.72306 22.8611 4.09241 22.1231 3.73169 21.2472C3.37098 20.3713 3.29902 19.4031 3.52626 18.4835C3.7535 17.5639 4.26811 16.7407 4.99527 16.1336C5.72243 15.5266 6.62425 15.1673 7.56962 15.1079L7.94659 15.0994C8.20843 13.6176 8.98391 12.2753 10.1369 11.3083C11.2898 10.3412 12.7466 9.81132 14.2514 9.81152Z" fill="#2B7CB9"/>
<path fill-rule="evenodd" clip-rule="evenodd" d="M32.1335 26.1135L32.6736 26.1135C34.8439 26.1135 36.6037 24.4458 36.6037 22.3885C36.6037 20.3312 34.8439 18.6635 32.6736 18.6635H32.5887C32.3109 16.102 30.3978 13.98 27.0246 13.98C25.6241 13.98 24.4758 14.3428 23.5915 14.9517C25.4692 16.192 26.6697 18.0312 26.8985 20.0467H27.0247C30.2177 20.366 32.1335 23.19 32.1335 26.1135Z" fill="#82BB3C"/>
</svg>
