<svg width="17" height="17" viewBox="0 0 17 17" fill="none" xmlns="http://www.w3.org/2000/svg">
<path d="M8.5 1.0625C9.1862 1.0625 9.84473 1.15104 10.4756 1.32812C11.1064 1.50521 11.6986 1.75423 12.252 2.0752C12.8053 2.39616 13.3062 2.78353 13.7544 3.2373C14.2026 3.69108 14.59 4.19189 14.9165 4.73975C15.243 5.2876 15.4948 5.87972 15.6719 6.51611C15.849 7.15251 15.9375 7.8138 15.9375 8.5C15.9375 9.1862 15.849 9.84473 15.6719 10.4756C15.4948 11.1064 15.2458 11.6986 14.9248 12.252C14.6038 12.8053 14.2165 13.3062 13.7627 13.7544C13.3089 14.2026 12.8081 14.59 12.2603 14.9165C11.7124 15.243 11.1203 15.4948 10.4839 15.6719C9.84749 15.849 9.1862 15.9375 8.5 15.9375C7.8138 15.9375 7.15527 15.849 6.52441 15.6719C5.89355 15.4948 5.30143 15.2458 4.74805 14.9248C4.19466 14.6038 3.69385 14.2165 3.24561 13.7627C2.79736 13.3089 2.40999 12.8081 2.0835 12.2603C1.757 11.7124 1.50521 11.1203 1.32812 10.4839C1.15104 9.84749 1.0625 9.1862 1.0625 8.5C1.0625 7.8138 1.15104 7.15527 1.32812 6.52441C1.50521 5.89355 1.75423 5.30143 2.0752 4.74805C2.39616 4.19466 2.78353 3.69385 3.2373 3.24561C3.69108 2.79736 4.19189 2.40999 4.73975 2.0835C5.2876 1.757 5.87972 1.50521 6.51611 1.32812C7.15251 1.15104 7.8138 1.0625 8.5 1.0625ZM8.5 14.875C9.08659 14.875 9.65104 14.8003 10.1934 14.6509C10.7357 14.5015 11.242 14.2856 11.7124 14.0034C12.1828 13.7212 12.6144 13.3892 13.0073 13.0073C13.4002 12.6255 13.7323 12.1966 14.0034 11.7207C14.2746 11.2448 14.4876 10.7357 14.6426 10.1934C14.7975 9.65104 14.875 9.08659 14.875 8.5C14.875 7.91341 14.8003 7.34896 14.6509 6.80664C14.5015 6.26432 14.2856 5.75798 14.0034 5.2876C13.7212 4.81722 13.3892 4.38558 13.0073 3.99268C12.6255 3.59977 12.1966 3.26774 11.7207 2.99658C11.2448 2.72542 10.7357 2.51237 10.1934 2.35742C9.65104 2.20247 9.08659 2.125 8.5 2.125C7.91341 2.125 7.34896 2.19971 6.80664 2.34912C6.26432 2.49854 5.75798 2.71436 5.2876 2.99658C4.81722 3.27881 4.38558 3.61084 3.99268 3.99268C3.59977 4.37451 3.26774 4.80339 2.99658 5.2793C2.72542 5.75521 2.51237 6.26432 2.35742 6.80664C2.20247 7.34896 2.125 7.91341 2.125 8.5C2.125 9.08659 2.19971 9.65104 2.34912 10.1934C2.49854 10.7357 2.71436 11.242 2.99658 11.7124C3.27881 12.1828 3.61084 12.6144 3.99268 13.0073C4.37451 13.4002 4.80339 13.7323 5.2793 14.0034C5.75521 14.2746 6.26432 14.4876 6.80664 14.6426C7.34896 14.7975 7.91341 14.875 8.5 14.875ZM8.5 5.3125C8.93717 5.3125 9.34945 5.39551 9.73682 5.56152C10.1242 5.72754 10.4618 5.95443 10.7495 6.24219C11.0373 6.52995 11.2669 6.87028 11.4385 7.26318C11.61 7.65609 11.693 8.06836 11.6875 8.5C11.6875 8.94271 11.6045 9.35498 11.4385 9.73682C11.2725 10.1187 11.0456 10.4562 10.7578 10.7495C10.4701 11.0428 10.1297 11.2725 9.73682 11.4385C9.34391 11.6045 8.93164 11.6875 8.5 11.6875C8.05729 11.6875 7.64502 11.6045 7.26318 11.4385C6.88135 11.2725 6.54378 11.0456 6.25049 10.7578C5.95719 10.4701 5.72754 10.1325 5.56152 9.74512C5.39551 9.35775 5.3125 8.94271 5.3125 8.5C5.3125 8.06283 5.39551 7.65055 5.56152 7.26318C5.72754 6.87581 5.95443 6.53825 6.24219 6.25049C6.52995 5.96273 6.86751 5.73307 7.25488 5.56152C7.64225 5.38997 8.05729 5.30697 8.5 5.3125ZM8.5 10.625C8.79329 10.625 9.06722 10.5697 9.32178 10.459C9.57633 10.3483 9.80322 10.1961 10.0024 10.0024C10.2017 9.80876 10.3538 9.58464 10.459 9.33008C10.5641 9.07552 10.6195 8.79883 10.625 8.5C10.625 8.20671 10.5697 7.93278 10.459 7.67822C10.3483 7.42367 10.1961 7.19678 10.0024 6.99756C9.80876 6.79834 9.58464 6.64616 9.33008 6.54102C9.07552 6.43587 8.79883 6.38053 8.5 6.375C8.20671 6.375 7.93278 6.43034 7.67822 6.54102C7.42367 6.65169 7.19678 6.80387 6.99756 6.99756C6.79834 7.19124 6.64616 7.41536 6.54102 7.66992C6.43587 7.92448 6.38053 8.20117 6.375 8.5C6.375 8.79329 6.43034 9.06722 6.54102 9.32178C6.65169 9.57633 6.80387 9.80322 6.99756 10.0024C7.19124 10.2017 7.41536 10.3538 7.66992 10.459C7.92448 10.5641 8.20117 10.6195 8.5 10.625Z" fill="#F1A615"/>
</svg>
