<svg width="26" height="26" viewBox="0 0 26 26" fill="none" xmlns="http://www.w3.org/2000/svg">
<path d="M24.0501 19.103L15.1685 3.67866C14.9465 3.30077 14.6297 2.98745 14.2493 2.76974C13.869 2.55203 13.4384 2.4375 13.0001 2.4375C12.5619 2.4375 12.1312 2.55203 11.7509 2.76974C11.3705 2.98745 11.0537 3.30077 10.8318 3.67866L1.95011 19.103C1.73656 19.4685 1.62402 19.8842 1.62402 20.3075C1.62402 20.7308 1.73656 21.1465 1.95011 21.512C2.16921 21.8922 2.48552 22.2072 2.86657 22.4248C3.24763 22.6424 3.67971 22.7546 4.11847 22.7501H21.8818C22.3202 22.7543 22.7518 22.6418 23.1325 22.4243C23.5132 22.2067 23.8291 21.8919 24.0481 21.512C24.2619 21.1467 24.3748 20.7311 24.3752 20.3078C24.3755 19.8844 24.2634 19.4686 24.0501 19.103ZM12.1876 10.5626C12.1876 10.3471 12.2732 10.1404 12.4256 9.98804C12.578 9.83567 12.7846 9.75007 13.0001 9.75007C13.2156 9.75007 13.4223 9.83567 13.5746 9.98804C13.727 10.1404 13.8126 10.3471 13.8126 10.5626V14.6251C13.8126 14.8406 13.727 15.0472 13.5746 15.1996C13.4223 15.352 13.2156 15.4376 13.0001 15.4376C12.7846 15.4376 12.578 15.352 12.4256 15.1996C12.2732 15.0472 12.1876 14.8406 12.1876 14.6251V10.5626ZM13.0001 19.5001C12.7591 19.5001 12.5234 19.4286 12.323 19.2947C12.1226 19.1608 11.9664 18.9704 11.8741 18.7477C11.7819 18.525 11.7578 18.28 11.8048 18.0436C11.8518 17.8071 11.9679 17.59 12.1383 17.4195C12.3088 17.2491 12.5259 17.133 12.7623 17.086C12.9988 17.039 13.2438 17.0631 13.4665 17.1553C13.6892 17.2476 13.8795 17.4038 14.0135 17.6042C14.1474 17.8046 14.2189 18.0403 14.2189 18.2813C14.2189 18.6045 14.0905 18.9145 13.8619 19.1431C13.6333 19.3717 13.3233 19.5001 13.0001 19.5001Z" fill="#D61600"/>
</svg>
