<svg width="33" height="33" viewBox="0 0 33 33" fill="none" xmlns="http://www.w3.org/2000/svg">
<path d="M29.9071 4.05465C27.0096 3.74279 21.6815 4.61653 23.5493 10.6063L29.9071 4.05465Z" fill="#82BB3C"/>
<path d="M29.9071 4.05465C30.3113 6.9358 29.6057 12.2798 23.5493 10.6063L29.9071 4.05465Z" fill="#82BB3C"/>
<path d="M22.8948 28.9683C23.3713 26.0982 22.8003 20.7382 16.7037 22.2594L22.8948 28.9683Z" fill="#82BB3C"/>
<path d="M22.8948 28.9683C19.9904 29.2075 14.686 28.2005 16.7037 22.2594L22.8948 28.9683Z" fill="#82BB3C"/>
<path d="M29.9071 4.05465L30.2042 4.01297C30.1851 3.87682 30.0759 3.77109 29.9392 3.75637L29.9071 4.05465ZM22.8948 28.9683L22.9194 29.2673C23.0564 29.256 23.1682 29.153 23.1908 29.0174L22.8948 28.9683ZM2.55451 21.4872L2.30019 21.328L2.29738 21.3326L2.55451 21.4872ZM6 25.5L5.83382 25.2502L6 25.5ZM18.9484 9.44272L19.1546 9.66064L19.1585 9.65682L18.9484 9.44272ZM16.6208 4.69569L16.7191 4.97912L16.6208 4.69569ZM10.0395 12.4709L10.1983 12.2163L10.0395 12.4709ZM11.188 17.0409L11.0291 17.2954L11.188 17.0409ZM23.334 10.3974L22.2743 11.4894L22.7049 11.9072L23.7646 10.8153L23.334 10.3974ZM29.9392 3.75637C28.4607 3.59724 26.3239 3.73335 24.7803 4.71416C23.9993 5.21042 23.3667 5.92595 23.0605 6.92382C22.7556 7.91721 22.7838 9.15915 23.2629 10.6956L23.8357 10.517C23.3809 9.05863 23.3747 7.94518 23.6341 7.09985C23.8921 6.259 24.4224 5.6525 25.1021 5.22058C26.48 4.34503 28.456 4.2002 29.875 4.35293L29.9392 3.75637ZM23.7646 10.8153L30.1224 4.26357L29.6918 3.84573L23.334 10.3974L23.7646 10.8153ZM29.61 4.09633C29.8079 5.50711 29.7256 7.48294 28.8929 8.88529C28.4822 9.57707 27.8918 10.1255 27.0578 10.4098C26.2193 10.6956 25.104 10.7247 23.6292 10.3172L23.4694 10.8955C25.0228 11.3247 26.2668 11.3133 27.2513 10.9777C28.2404 10.6406 28.9367 9.9868 29.4089 9.19163C30.342 7.62006 30.4105 5.48334 30.2042 4.01297L29.61 4.09633ZM16.9242 22.0559L15.8923 20.9378L15.4514 21.3447L16.4832 22.4628L16.9242 22.0559ZM23.1908 29.0174C23.4339 27.5527 23.4193 25.4149 22.5259 23.8205C22.0739 23.0137 21.3942 22.3426 20.4139 21.9809C19.4381 21.6207 18.1948 21.5781 16.6311 21.9683L16.7763 22.5504C18.2609 22.18 19.3752 22.237 20.2062 22.5437C21.0328 22.8488 21.6092 23.4119 22.0024 24.1137C22.7996 25.5365 22.8322 27.5138 22.5989 28.9191L23.1908 29.0174ZM16.4832 22.4628L22.6743 29.1717L23.1153 28.7648L16.9242 22.0559L16.4832 22.4628ZM22.8702 28.6693C21.4478 28.7864 19.4761 28.5921 18.1206 27.6824C17.452 27.2335 16.9371 26.614 16.7003 25.7669C16.4622 24.9154 16.4965 23.8024 16.9878 22.3558L16.4196 22.1629C15.9021 23.6869 15.8427 24.9278 16.1225 25.9285C16.4035 26.9337 17.018 27.6649 17.7863 28.1805C19.3047 29.1997 21.4374 29.3893 22.9194 29.2673L22.8702 28.6693ZM10.199 20.6737C9.41688 20.0881 8.07465 19.2785 6.61089 19.097C5.87338 19.0056 5.09765 19.073 4.34957 19.4159C3.60054 19.7592 2.90059 20.3691 2.30023 21.328L2.80879 21.6464C3.35692 20.7709 3.97289 20.2485 4.59958 19.9613C5.2272 19.6736 5.88697 19.6119 6.5371 19.6925C7.84862 19.855 9.09026 20.5931 9.83943 21.154L10.199 20.6737ZM2.29738 21.3326C1.36486 22.8842 1.71144 24.3928 2.61621 25.312C3.5083 26.2184 4.95758 26.5539 6.16618 25.7498L5.83382 25.2502C4.90588 25.8676 3.77105 25.63 3.04383 24.8911C2.32931 24.1652 2.02142 22.9565 2.81164 21.6417L2.29738 21.3326ZM6.16618 25.7498C7.1646 25.0855 7.33539 23.9128 6.91464 23.0726C6.70285 22.6497 6.33739 22.3024 5.84714 22.1501C5.35535 21.9974 4.77265 22.0513 4.1437 22.3653L4.41166 22.9021C4.9312 22.6428 5.35343 22.6251 5.66917 22.7231C5.98644 22.8217 6.23108 23.0476 6.37815 23.3413C6.67511 23.9343 6.55857 24.768 5.83382 25.2502L6.16618 25.7498ZM11.3439 8.3167C11.954 9.0794 13.05 10.1992 14.4215 10.7412C15.1125 11.0143 15.8804 11.1433 16.6907 10.9986C17.5019 10.8537 18.3326 10.4386 19.1546 9.6606L18.7422 9.22484C17.9916 9.93523 17.2641 10.2867 16.5852 10.408C15.9053 10.5294 15.2511 10.4239 14.642 10.1832C13.4133 9.69764 12.3967 8.67238 11.8124 7.9419L11.3439 8.3167ZM19.1585 9.65682C20.4508 8.38839 20.4943 6.84129 19.8492 5.72475C19.2132 4.62385 17.8943 3.93635 16.5225 4.41226L16.7191 4.97912C17.7726 4.61364 18.8114 5.12786 19.3297 6.02492C19.839 6.90634 19.8336 8.15345 18.7382 9.22862L19.1585 9.65682ZM16.5225 4.41226C15.3894 4.80535 14.9295 5.89761 15.1258 6.81638C15.2246 7.27885 15.4912 7.70664 15.9276 7.97681C16.3654 8.24781 16.9431 8.34141 17.6307 8.19495L17.5057 7.60811C16.9376 7.72912 16.5244 7.64056 16.2434 7.46665C15.9612 7.2919 15.7811 7.01204 15.7125 6.691C15.574 6.04277 15.8962 5.26462 16.7191 4.97912L16.5225 4.41226ZM2.21195 13.2564C3.29509 12.1752 6.35967 10.5285 9.88066 12.7254L10.1983 12.2163C6.36888 9.82709 3.0019 11.62 1.78805 12.8318L2.21195 13.2564ZM9.88066 12.7254C14.5644 15.6477 17.5959 14.5235 18.8651 13.2564L18.4412 12.8318C17.4135 13.8578 14.7025 15.0266 10.1983 12.2163L9.88066 12.7254ZM2.21195 17.8265C2.75663 17.2827 3.85703 16.4581 5.3683 16.1152C6.86891 15.7747 8.79802 15.9033 11.0291 17.2954L11.3468 16.7864C8.98391 15.312 6.89329 15.1539 5.23554 15.5301C3.58845 15.9038 2.39186 16.7991 1.78805 17.4018L2.21195 17.8265ZM11.0291 17.2954C14.0818 19.2002 17.0413 19.2051 19.3783 18.5854C21.7032 17.9689 23.4229 16.7322 24.0333 16.1228L23.6094 15.6981C23.0714 16.2352 21.4442 17.4168 19.2245 18.0054C17.0168 18.5909 14.2338 18.5878 11.3468 16.7864L11.0291 17.2954Z" fill="#2D62C1"/>
</svg>
