<svg width="45" height="29" viewBox="0 0 45 29" fill="none" xmlns="http://www.w3.org/2000/svg">
<path d="M23.65 11.3979C26.5227 11.3979 28.1538 13.2212 28.3904 15.4247H28.4627C30.3118 15.4247 31.8111 16.8585 31.8111 18.6274C31.8111 20.3962 30.3118 21.83 28.4627 21.83H18.8373C16.9882 21.83 15.4889 20.3962 15.4889 18.6274C15.4889 16.8585 16.9882 15.4247 18.8373 15.4247H18.9096C19.1474 13.2061 20.7761 11.3979 23.65 11.3979ZM15.2592 14.5275C15.3041 14.656 15.302 14.7961 15.2534 14.9233C15.2048 15.0504 15.1128 15.1565 14.9934 15.223L14.8978 15.2647L13.964 15.5846C13.8261 15.6326 13.6752 15.6274 13.5411 15.57C13.407 15.5127 13.2994 15.4074 13.2396 15.2749C13.1798 15.1425 13.1722 14.9926 13.2182 14.8548C13.2643 14.7171 13.3606 14.6015 13.4883 14.531L13.5839 14.4893L14.5189 14.1693C14.665 14.1195 14.825 14.1293 14.9639 14.1967C15.1027 14.2641 15.2089 14.3835 15.2592 14.5287V14.5275ZM21.225 9.65916C21.6121 9.84694 21.9537 10.0915 22.2428 10.3778C20.1885 10.7997 18.7102 12.1548 18.1121 14.036L18.0363 14.2957L17.9827 14.5124L17.7892 14.5472C17.272 14.6531 16.7783 14.851 16.3318 15.1314C15.8812 14.4335 15.6724 13.6083 15.7374 12.7815C15.8023 11.9547 16.1374 11.1716 16.6916 10.5518C17.2457 9.93187 17.9885 9.50914 18.8068 9.34799C19.625 9.18685 20.4739 9.29612 21.2238 9.65916H21.225ZM14.2263 9.85622L14.323 9.89331L15.2114 10.3233C15.3424 10.3866 15.4448 10.4964 15.4985 10.631C15.5521 10.7656 15.5532 10.9152 15.5015 11.0506C15.4497 11.1859 15.3489 11.2971 15.2188 11.3622C15.0888 11.4273 14.9389 11.4417 14.7987 11.4025L14.6996 11.3654L13.8124 10.9354C13.6814 10.8721 13.579 10.7623 13.5254 10.6277C13.4717 10.4932 13.4706 10.3435 13.5224 10.2081C13.5741 10.0728 13.675 9.96165 13.805 9.89652C13.9351 9.83139 14.0849 9.81701 14.2251 9.85622H14.2263ZM22.4725 7.10328C22.5952 7.16283 22.6931 7.26333 22.7489 7.38726C22.8047 7.51119 22.815 7.65067 22.7779 7.78137L22.7406 7.87874L22.3081 8.762C22.2444 8.89221 22.1341 8.99401 21.9987 9.04737C21.8633 9.10074 21.7128 9.10179 21.5766 9.05034C21.4405 8.99888 21.3287 8.89864 21.2632 8.76934C21.1977 8.64003 21.1832 8.49103 21.2227 8.35166L21.26 8.25314L21.6925 7.36988C21.7261 7.30129 21.773 7.23996 21.8304 7.18941C21.8879 7.13887 21.9548 7.1001 22.0274 7.07533C22.1 7.05056 22.1768 7.04028 22.2533 7.04508C22.3299 7.04987 22.4048 7.06965 22.4737 7.10328H22.4725ZM18.0538 7.06619L18.097 7.16124L18.4187 8.09086C18.466 8.2277 18.4602 8.37719 18.4022 8.50993C18.3443 8.64267 18.2385 8.74906 18.1057 8.80819C17.9728 8.86732 17.8226 8.87491 17.6844 8.82947C17.5462 8.78403 17.4301 8.68884 17.359 8.56263L17.3158 8.46758L16.9952 7.53911C16.9487 7.40259 16.9549 7.25372 17.0128 7.12156C17.0707 6.9894 17.1761 6.88344 17.3084 6.82435C17.4406 6.76527 17.5903 6.75731 17.7281 6.80203C17.8659 6.84674 17.9821 6.94092 18.0538 7.06619Z" fill="#2B7CB9"/>
</svg>
