<svg width="54" height="53" viewBox="0 0 54 53" fill="none" xmlns="http://www.w3.org/2000/svg">
<path fill-rule="evenodd" clip-rule="evenodd" d="M31.3182 29C30.314 29 29.5 29.814 29.5 30.8182V47.1818C29.5 48.186 30.314 49 31.3182 49H47.6818C48.686 49 49.5 48.186 49.5 47.1818V30.8182C49.5 29.814 48.686 29 47.6818 29H31.3182ZM36.7507 32.7413C36.24 33.1872 35.7679 33.6752 35.3393 34.1999C34.6296 35.0786 34.04 36.117 34.04 37.0982C34.04 37.8135 34.3256 38.4995 34.8339 39.0053C35.1018 39.2718 35.4199 39.4767 35.7661 39.611C36.038 38.0236 36.974 36.5405 37.8922 35.3999C38.0944 35.1509 38.3028 34.9073 38.5172 34.6691C38.4041 34.5087 38.2849 34.3519 38.1621 34.1999C37.7336 33.6752 37.2615 33.1872 36.7507 32.7413ZM39.1478 34.0018C39.0546 33.8753 38.9602 33.7536 38.866 33.6371C38.3341 32.9847 37.7393 32.3857 37.09 31.8486C36.9945 31.7702 36.8746 31.7273 36.7507 31.7273C36.6269 31.7273 36.5069 31.7702 36.4114 31.8486C35.7624 32.3855 35.1672 32.9844 34.6354 33.6367C33.8945 34.5536 33.1364 35.7974 33.1364 37.0982C33.1364 38.052 33.5172 38.9666 34.195 39.641C34.6157 40.0595 35.1294 40.3642 35.6877 40.5352C35.6944 41.9339 36.2537 43.2739 37.2445 44.2634C38.2413 45.2589 39.5932 45.8182 41.0029 45.8182C42.4126 45.8182 43.7646 45.2589 44.7614 44.2634C45.7582 43.2679 46.3182 41.9177 46.3182 40.5098C46.3182 38.5895 45.2033 36.7535 44.1137 35.4006C43.3314 34.4375 42.4567 33.5532 41.5019 32.7603C41.3614 32.6446 41.185 32.5813 41.0029 32.5813C40.8208 32.5813 40.6444 32.6446 40.504 32.7603C40.0319 33.1523 39.5793 33.5666 39.1478 34.0018ZM38.9273 36.2313C39.5575 35.4567 40.2518 34.7365 41.0029 34.0781C41.754 34.7365 42.4483 35.4567 43.0785 36.2313C44.1223 37.5285 44.9894 39.0613 44.9894 40.5098C44.9894 41.5657 44.5694 42.5784 43.8218 43.325C43.0742 44.0716 42.0602 44.4911 41.0029 44.4911C39.9457 44.4911 38.9317 44.0716 38.1841 43.325C37.4365 42.5784 37.0165 41.5657 37.0165 40.5098C37.0165 39.0613 37.8835 37.5285 38.9273 36.2313Z" fill="#2B7CB9"/>
<path d="M14.7273 7.18182C14.2659 7.18182 13.9034 7.54432 13.9034 8.00568C13.9034 8.46705 14.2659 8.82955 14.7273 8.82955C15.1886 8.82955 15.5511 8.46705 15.5511 8.00568C15.5511 7.54432 15.1886 7.18182 14.7273 7.18182ZM10.608 8.82955C10.1466 8.82955 9.78409 9.19205 9.78409 9.65341C9.78409 10.1148 10.1466 10.4773 10.608 10.4773C11.0693 10.4773 11.4318 10.1148 11.4318 9.65341C11.4318 9.19205 11.0693 8.82955 10.608 8.82955ZM18.8466 8.82955C18.3852 8.82955 18.0227 9.19205 18.0227 9.65341C18.0227 10.1148 18.3852 10.4773 18.8466 10.4773C19.308 10.4773 19.6705 10.1148 19.6705 9.65341C19.6705 9.19205 19.308 8.82955 18.8466 8.82955ZM14.7273 10.4773C12.9148 10.4773 11.4318 11.9602 11.4318 13.7727C11.4318 15.5852 12.9148 17.0682 14.7273 17.0682C16.5398 17.0682 18.0227 15.5852 18.0227 13.7727C18.0227 11.9602 16.5398 10.4773 14.7273 10.4773ZM8.96023 12.9489C8.49886 12.9489 8.13636 13.3114 8.13636 13.7727C8.13636 14.2341 8.49886 14.5966 8.96023 14.5966C9.42159 14.5966 9.78409 14.2341 9.78409 13.7727C9.78409 13.3114 9.42159 12.9489 8.96023 12.9489ZM20.4943 12.9489C20.033 12.9489 19.6705 13.3114 19.6705 13.7727C19.6705 14.2341 20.033 14.5966 20.4943 14.5966C20.9557 14.5966 21.3182 14.2341 21.3182 13.7727C21.3182 13.3114 20.9557 12.9489 20.4943 12.9489ZM10.608 17.0682C10.1466 17.0682 9.78409 17.4307 9.78409 17.892C9.78409 18.3534 10.1466 18.7159 10.608 18.7159C11.0693 18.7159 11.4318 18.3534 11.4318 17.892C11.4318 17.4307 11.0693 17.0682 10.608 17.0682ZM18.8466 17.0682C18.3852 17.0682 18.0227 17.4307 18.0227 17.892C18.0227 18.3534 18.3852 18.7159 18.8466 18.7159C19.308 18.7159 19.6705 18.3534 19.6705 17.892C19.6705 17.4307 19.308 17.0682 18.8466 17.0682ZM14.7273 18.7159C14.2659 18.7159 13.9034 19.0784 13.9034 19.5398C13.9034 20.0011 14.2659 20.3636 14.7273 20.3636C15.1886 20.3636 15.5511 20.0011 15.5511 19.5398C15.5511 19.0784 15.1886 18.7159 14.7273 18.7159Z" fill="#2B7CB9"/>
<path fill-rule="evenodd" clip-rule="evenodd" d="M6.31818 4C5.31403 4 4.5 4.81403 4.5 5.81818V22.1818C4.5 23.186 5.31403 24 6.31818 24H22.6818C23.686 24 24.5 23.186 24.5 22.1818V5.81818C24.5 4.81403 23.686 4 22.6818 4H6.31818ZM7.22727 5.36364C6.47416 5.36364 5.86364 5.97416 5.86364 6.72727V21.2727C5.86364 22.0258 6.47416 22.6364 7.22727 22.6364H21.7727C22.5258 22.6364 23.1364 22.0258 23.1364 21.2727V6.72727C23.1364 5.97416 22.5258 5.36364 21.7727 5.36364H7.22727Z" fill="#2B7CB9"/>
<path d="M47.5 7L6.5 47" stroke="#82BB3C" stroke-width="2" stroke-linecap="round"/>
</svg>
