<svg width="34" height="33" viewBox="0 0 34 33" fill="none" xmlns="http://www.w3.org/2000/svg">
<path fill-rule="evenodd" clip-rule="evenodd" d="M3.74996 16.4993H11.4442C14.1073 16.4993 16.4916 18.4526 16.8252 21.1538C17.2353 24.4187 14.7417 27.2148 11.6192 27.2148C9.07083 27.2148 6.93811 25.3452 6.46781 22.8839C6.36938 22.3482 6.80139 21.857 7.33731 21.857H9.13098C9.4919 21.857 9.84736 22.0691 9.96219 22.4207C10.1973 23.1295 10.8536 23.643 11.6246 23.643C12.691 23.643 13.5331 22.6719 13.3527 21.5557C13.2105 20.6795 12.3957 20.0711 11.5262 20.0711H3.74996C3.26873 20.0711 2.875 19.6693 2.875 19.1782V17.3923C2.875 16.9011 3.26873 16.4993 3.74996 16.4993ZM22.1242 14.7134H3.74996C3.26873 14.7134 2.875 14.3115 2.875 13.8204V12.0345C2.875 11.5434 3.26873 11.1415 3.74996 11.1415H22.0257C22.9007 11.1415 23.71 10.5332 23.8522 9.657C24.0327 8.5408 23.1851 7.56971 22.1242 7.56971C21.3531 7.56971 20.6969 8.08316 20.4617 8.79195C20.3469 9.14355 19.9969 9.35563 19.6305 9.35563H17.8369C17.3064 9.35563 16.8689 8.87008 16.9728 8.3343C17.5087 5.51032 20.2266 3.47326 23.2562 4.12066C25.2358 4.54481 26.838 6.18004 27.2536 8.20036C27.9645 11.655 25.3889 14.7134 22.1242 14.7134Z" fill="#2B7CB9"/>
<path d="M24.7491 16.4993H16.2018C17.2572 17.4257 18.0173 18.6647 18.3782 20.0711H24.7491C26.1982 20.0711 27.3739 21.271 27.3739 22.75C27.3739 24.229 26.1982 25.4289 24.7491 25.4289C23.7702 25.4289 22.928 24.8764 22.4742 24.0671C22.3156 23.7881 21.9984 23.643 21.6812 23.643H19.8329C19.2368 23.643 18.7938 24.2457 18.9962 24.8206C19.9696 27.6445 22.8515 29.5532 26.0724 28.8556C28.3255 28.3701 30.1793 26.5339 30.7043 24.2401C31.6394 20.1548 28.6044 16.4993 24.7491 16.4993Z" fill="#82BB3C"/>
</svg>
