<svg width="28" height="28" viewBox="0 0 28 28" fill="none" xmlns="http://www.w3.org/2000/svg">
<g clip-path="url(#clip0_211_834)">
<path d="M23.8995 23.8995C26.525 21.274 28 17.713 28 14C28 10.287 26.525 6.72602 23.8995 4.10051C21.274 1.475 17.713 0 14 0C10.287 0 6.72602 1.475 4.10051 4.10051C1.475 6.72602 0 10.287 0 14C0 17.713 1.475 21.274 4.10051 23.8995C6.72602 26.525 10.287 28 14 28C17.713 28 21.274 26.525 23.8995 23.8995Z" fill="#2B7CB9"/>
<path d="M10.0625 14L13.125 17.0625L18.375 11.8125" stroke="white" stroke-width="2" stroke-linecap="round" stroke-linejoin="round"/>
</g>
<defs>
<clipPath id="clip0_211_834">
<rect width="28" height="28" fill="white"/>
</clipPath>
</defs>
</svg>
