<svg width="40" height="40" viewBox="0 0 40 40" fill="none" xmlns="http://www.w3.org/2000/svg">
<path fill-rule="evenodd" clip-rule="evenodd" d="M30.5478 15.5955C33.1976 15.5955 35.3456 13.4475 35.3456 10.7978C35.3456 8.14803 33.1976 6 30.5478 6C27.8981 6 25.7501 8.14803 25.7501 10.7978C25.7501 13.4475 27.8981 15.5955 30.5478 15.5955ZM27.7064 10.9626L29.107 12.387L33.0687 8.35801C33.1054 8.32031 33.149 8.29038 33.1971 8.26995C33.2451 8.24952 33.2967 8.239 33.3488 8.239C33.401 8.239 33.4526 8.24952 33.5006 8.26995C33.5487 8.29038 33.5923 8.32031 33.629 8.35801C33.666 8.39526 33.6955 8.43962 33.7156 8.48852C33.7357 8.53742 33.746 8.58989 33.746 8.64289C33.746 8.69589 33.7357 8.74836 33.7156 8.79726C33.6955 8.84616 33.666 8.89052 33.629 8.92777L29.3871 13.2376C29.2311 13.3963 28.979 13.3963 28.8229 13.2376L27.1462 11.5324C27.1091 11.4951 27.0797 11.4508 27.0596 11.4019C27.0395 11.353 27.0291 11.3005 27.0291 11.2475C27.0291 11.1945 27.0395 11.142 27.0596 11.0931C27.0797 11.0442 27.1091 10.9999 27.1462 10.9626C27.1828 10.9249 27.2264 10.895 27.2745 10.8745C27.3226 10.8541 27.3742 10.8436 27.4263 10.8436C27.4784 10.8436 27.53 10.8541 27.5781 10.8745C27.6262 10.895 27.6698 10.9249 27.7064 10.9626Z" fill="#82BB3C"/>
<path d="M10.3905 26.7558C9.94713 26.7558 9.65156 27.0456 9.65156 27.4802C9.65156 27.9149 9.94713 28.2047 10.3905 28.2047H18.1277C18.571 28.2047 18.8666 27.9149 18.8666 27.4802C18.8666 27.0456 18.571 26.7558 18.1277 26.7558H10.3905Z" fill="#2B7CB9"/>
<path d="M7.60862 30.378C7.60862 30.8127 7.90419 31.1025 8.34755 31.1025H23.3002C24.9259 31.1025 26.256 29.7985 26.256 28.2047C26.256 26.6109 24.9259 25.3069 23.3002 25.3069C22.4874 25.3069 21.7484 25.6691 21.2312 26.1762C20.9356 26.466 20.9356 26.9007 21.2312 27.1904C21.5268 27.4802 21.9701 27.4802 22.2657 27.1904C22.4874 26.9007 22.8569 26.7558 23.3002 26.7558C24.113 26.7558 24.7781 27.4078 24.7781 28.2047C24.7781 29.0016 24.113 29.6536 23.3002 29.6536H8.34755C7.90419 29.6536 7.60862 29.9433 7.60862 30.378Z" fill="#2B7CB9"/>
<path d="M29.2117 31.8269C29.2117 32.2616 28.9161 32.5514 28.4728 32.5514H15.9109C15.4675 32.5514 15.1719 32.8411 15.1719 33.2758C15.1719 33.7105 15.4675 34.0003 15.9109 34.0003H28.4728C29.729 34.0003 30.6896 33.0585 30.6896 31.8269C30.6896 30.5953 29.729 29.6536 28.4728 29.6536C27.8816 29.6536 27.2905 29.8709 26.921 30.3056C26.6254 30.5953 26.6254 31.03 26.921 31.3198C27.2166 31.6096 27.6599 31.6096 27.9555 31.3198C28.1033 31.1749 28.2511 31.1025 28.4728 31.1025C28.9161 31.1025 29.2117 31.3922 29.2117 31.8269Z" fill="#2B7CB9"/>
<path fill-rule="evenodd" clip-rule="evenodd" d="M33.1053 16.5291C32.3241 16.8784 31.4584 17.0726 30.5473 17.0726C27.0823 17.0726 24.2733 14.2636 24.2733 10.7986C24.2733 9.82594 24.4946 8.905 24.8897 8.08337C23.5181 6.98408 21.6611 6.31226 19.3441 6.31226C14.2929 6.31226 11.4323 9.47867 11.0122 13.3591H10.8852C7.63523 13.3591 5.00002 15.8683 5.00002 18.9637C5.00002 22.0591 7.63523 24.5683 10.8852 24.5683H27.803C31.0529 24.5683 33.6881 22.0591 33.6881 18.9637C33.6881 18.0913 33.4788 17.2654 33.1053 16.5291Z" fill="#2B7CB9"/>
</svg>
