<svg width="80" height="80" viewBox="0 0 80 80" fill="none" xmlns="http://www.w3.org/2000/svg">
<path d="M31.9228 55.5975C31.9127 55.5604 31.8884 55.5291 31.8556 55.5104L32.6002 54.2091L31.8563 55.5108C31.8235 55.4921 31.7848 55.4872 31.7486 55.4971C31.7123 55.507 31.6811 55.531 31.6621 55.5642L28.3902 61.2943C28.3753 61.3259 28.3723 61.3619 28.382 61.3958C28.3924 61.4322 28.4165 61.4628 28.4488 61.4813C28.4811 61.4997 28.5192 61.5047 28.555 61.4954C28.5882 61.4868 28.6174 61.4663 28.637 61.4376L31.9089 55.7075L31.9228 55.5975ZM31.9228 55.5975C31.9329 55.6345 31.9279 55.6739 31.9091 55.7071L31.9228 55.5975ZM51.8682 28.5822L52.0113 29.923H53.3597H53.5634C58.0004 29.923 61.5 33.372 61.5 37.508C61.5 41.6434 58.0015 45.092 53.5656 45.0931C53.5655 45.0931 53.5655 45.0931 53.5654 45.0931C53.5647 45.0931 53.5641 45.0931 53.5634 45.0931L51.2557 45.0899L49.7536 45.0877V45.0899H47.4093H41.4359H39.9359V45.0931H37.5521H31.444H30.557L30.1296 45.8704L26.9915 51.5775C26.9725 51.6077 26.9431 51.6296 26.9092 51.6392C26.8734 51.6492 26.8351 51.6448 26.8024 51.6268C26.7697 51.6088 26.745 51.5784 26.7341 51.542C26.7238 51.5075 26.7267 51.4704 26.742 51.4381L29.0093 47.3161L30.232 45.0931H27.695H26.4366C21.9996 45.0931 18.5 41.6441 18.5 37.508C18.5 33.531 21.7287 30.1942 25.9219 29.9385L26.6719 29.9226L27.9913 29.8948L28.1318 28.5827C28.4348 25.7526 29.6087 23.2484 31.5526 21.4552C33.4867 19.6709 36.2811 18.5 40 18.5C43.7156 18.5 46.512 19.6796 48.4487 21.4701C50.3956 23.2701 51.5685 25.7756 51.8682 28.5822ZM49.7536 45.4387V46.0288L46.7057 51.5776C46.6867 51.6078 46.6574 51.6296 46.6235 51.6392C46.5877 51.6492 46.5494 51.6448 46.5167 51.6268C46.484 51.6088 46.4593 51.5784 46.4484 51.542C46.438 51.5074 46.441 51.4703 46.4564 51.438L48.7238 47.3123L49.7536 45.4387ZM39.9359 45.3718V45.9629L36.8487 51.5775C36.8297 51.6077 36.8003 51.6296 36.7663 51.6392C36.7306 51.6492 36.6922 51.6448 36.6595 51.6268C36.6268 51.6088 36.6021 51.5784 36.5912 51.542C36.5809 51.5075 36.5838 51.4704 36.5992 51.4381L38.8664 47.3161L39.9359 45.3718ZM41.7609 55.6294C41.7705 55.6633 41.7675 55.6994 41.7527 55.7309L38.4941 61.4376C38.4745 61.4663 38.4454 61.4868 38.4121 61.4954C38.3763 61.5047 38.3382 61.4997 38.306 61.4813C38.2737 61.4628 38.2495 61.4322 38.2391 61.3958C38.2295 61.3619 38.2325 61.3259 38.2473 61.2943L41.5059 55.5876C41.5255 55.5589 41.5546 55.5384 41.5879 55.5298C41.6237 55.5205 41.6618 55.5255 41.694 55.544C41.7264 55.5624 41.7505 55.593 41.7609 55.6294Z" fill="#E1ECF2" stroke="#5C7CAD" stroke-width="3"/>
</svg>
