<svg width="40" height="40" viewBox="0 0 40 40" fill="none" xmlns="http://www.w3.org/2000/svg">
<path d="M18.9019 28.6361L18.0191 28.1219L21.0441 26.1242L20.0217 27.6771L20.9045 28.1913L17.8796 30.1889L18.9019 28.6361Z" fill="#82BB3C"/>
<path d="M19.6226 16.604C22.2803 16.604 23.7876 18.1957 24.0065 20.1171H24.0733C25.7833 20.1171 27.1698 21.368 27.1698 22.9112C27.1698 24.4543 25.7833 25.7052 24.0733 25.7052H15.172C13.462 25.7052 12.0755 24.4543 12.0755 22.9112C12.0755 21.4246 13.3606 20.2101 14.9833 20.1221L15.2388 20.1171C15.4598 18.1826 16.965 16.604 19.6226 16.604Z" fill="#82BB3C"/>
<path d="M14.5751 28.6361L13.6924 28.1219L16.7173 26.1242L15.695 27.6771L16.5778 28.1913L13.5528 30.1889L14.5751 28.6361Z" fill="#82BB3C"/>
<path d="M23.015 28.6361L22.1323 28.1219L25.1572 26.1242L24.1349 27.6771L25.0177 28.1913L21.9927 30.1889L23.015 28.6361Z" fill="#82BB3C"/>
<path d="M17.9479 6.49298C18.8663 4.86692 21.1337 4.86692 22.0521 6.49298L35.9045 31.0184C36.86 32.7101 35.633 34.7263 33.8524 34.7263H6.1476C4.367 34.7263 3.14001 32.7101 4.09552 31.0184L17.9479 6.49298Z" stroke="#2B7CB9" stroke-width="3"/>
</svg>
