<svg width="54" height="53" viewBox="0 0 54 53" fill="none" xmlns="http://www.w3.org/2000/svg">
<path d="M23.7669 15.5973C24.6467 16.0266 25.4232 16.5858 26.0804 17.2403C21.4111 18.2049 18.0508 21.3028 16.6914 25.6037L16.5191 26.1973L16.3972 26.6929L15.9573 26.7724C14.7818 27.0144 13.6596 27.4669 12.6448 28.108C11.6206 26.5125 11.1461 24.6258 11.2937 22.7355C11.4413 20.8453 12.2029 19.0551 13.4625 17.638C14.7221 16.2208 16.4105 15.2544 18.2704 14.8859C20.1302 14.5175 22.0596 14.7673 23.7642 15.5973H23.7669Z" fill="#82BB3C"/>
<path d="M26.6024 9.75409C26.8814 9.89022 27.1038 10.12 27.2306 10.4033C27.3575 10.6866 27.3809 11.0055 27.2967 11.3043L27.2119 11.5269L26.2288 13.5462C26.084 13.8439 25.8332 14.0767 25.5255 14.1987C25.2178 14.3207 24.8756 14.3231 24.5662 14.2054C24.2568 14.0878 24.0026 13.8586 23.8537 13.563C23.7048 13.2674 23.672 12.9268 23.7616 12.6081L23.8464 12.3829L24.8295 10.3636C24.9059 10.2068 25.0124 10.0666 25.143 9.951C25.2736 9.83544 25.4258 9.74681 25.5907 9.69018C25.7557 9.63355 25.9302 9.61005 26.1043 9.62102C26.2783 9.63198 26.4485 9.6772 26.6051 9.75409H26.6024Z" fill="#82BB3C"/>
<path d="M16.5589 9.66929L16.6569 9.88659L17.3883 12.0119C17.4959 12.3247 17.4825 12.6665 17.3508 12.97C17.2191 13.2734 16.9787 13.5167 16.6767 13.6518C16.3748 13.787 16.0333 13.8044 15.7192 13.7005C15.4051 13.5966 15.1413 13.379 14.9795 13.0904L14.8814 12.8731L14.1527 10.7505C14.0469 10.4384 14.0612 10.098 14.1928 9.79588C14.3244 9.49374 14.5638 9.25148 14.8645 9.11641C15.1651 8.98133 15.5052 8.96313 15.8185 9.06536C16.1318 9.16759 16.3958 9.38291 16.5589 9.66929Z" fill="#82BB3C"/>
<path d="M7.85895 16.0478L8.0789 16.1326L10.0982 17.1158C10.3959 17.2605 10.6286 17.5114 10.7506 17.8191C10.8726 18.1268 10.875 18.469 10.7574 18.7784C10.6398 19.0877 10.4106 19.3419 10.115 19.4908C9.81936 19.6397 9.47873 19.6726 9.1601 19.5829L8.93485 19.4981L6.9182 18.515C6.62051 18.3703 6.38777 18.1194 6.26577 17.8117C6.14378 17.504 6.14136 17.1618 6.259 16.8524C6.37664 16.543 6.60581 16.2889 6.90142 16.14C7.19703 15.9911 7.53767 15.9582 7.8563 16.0478H7.85895Z" fill="#82BB3C"/>
<path d="M10.2068 26.7273C10.3087 27.0211 10.304 27.3414 10.1936 27.6321C10.0831 27.9228 9.87393 28.1653 9.60265 28.3173L9.38535 28.4127L7.2627 29.1441C6.94945 29.2538 6.60647 29.2418 6.30159 29.1107C5.99672 28.9796 5.75214 28.7388 5.61624 28.4361C5.48034 28.1333 5.46302 27.7905 5.56769 27.4756C5.67236 27.1607 5.8914 26.8965 6.1815 26.7353L6.3988 26.6399L8.5241 25.9085C8.85619 25.7945 9.21994 25.817 9.53545 25.9711C9.85096 26.1251 10.0924 26.398 10.2068 26.73V26.7273Z" fill="#82BB3C"/>
<path d="M29.2789 19.5723C35.8085 19.5723 39.5158 23.7408 40.0538 28.7784H40.2181C44.421 28.7784 47.8289 32.0565 47.8289 36.1004C47.8289 40.1443 44.421 43.4223 40.2181 43.4223H18.3397C14.1368 43.4223 10.7289 40.1443 10.7289 36.1004C10.7289 32.0565 14.1368 28.7784 18.3397 28.7784H18.504C19.0446 23.7063 22.7467 19.5723 29.2789 19.5723Z" fill="#2B7CB9"/>
</svg>
