<svg width="21" height="21" viewBox="0 0 21 21" fill="none" xmlns="http://www.w3.org/2000/svg">
<path d="M10.5 16.6251H12.25V5.25013L17.8447 7.64763C18.0022 7.71515 18.1365 7.82743 18.2307 7.97053C18.325 8.11364 18.3752 8.28127 18.375 8.45263V16.6251H20.125V18.3751H0.875V16.6251H2.625V4.94388C2.62498 4.77459 2.67407 4.60892 2.76633 4.46696C2.85858 4.32501 2.99003 4.21287 3.14475 4.14413L9.88488 1.14901C9.95149 1.11941 10.0244 1.10693 10.0971 1.1127C10.1698 1.11846 10.2398 1.14229 10.301 1.18202C10.3621 1.22175 10.4123 1.27612 10.447 1.34019C10.4818 1.40425 10.5 1.47599 10.5 1.54888V16.6251Z" fill="#898E88"/>
</svg>
