<svg width="17" height="17" viewBox="0 0 17 17" fill="none" xmlns="http://www.w3.org/2000/svg">
<g clip-path="url(#clip0_45_166)">
<path d="M8.50016 5.66683C6.93475 5.66683 5.66683 6.93475 5.66683 8.50016C5.66683 10.0656 6.93475 11.3335 8.50016 11.3335C10.0656 11.3335 11.3335 10.0656 11.3335 8.50016C11.3335 6.93475 10.0656 5.66683 8.50016 5.66683ZM14.8327 7.79183C14.6722 6.35542 14.0281 5.01625 13.0061 3.99424C11.9841 2.97222 10.6449 2.32811 9.2085 2.16766V0.708496H7.79183V2.16766C6.35542 2.32811 5.01625 2.97222 3.99424 3.99424C2.97222 5.01625 2.32811 6.35542 2.16766 7.79183H0.708496V9.2085H2.16766C2.32811 10.6449 2.97222 11.9841 3.99424 13.0061C5.01625 14.0281 6.35542 14.6722 7.79183 14.8327V16.2918H9.2085V14.8327C10.6449 14.6722 11.9841 14.0281 13.0061 13.0061C14.0281 11.9841 14.6722 10.6449 14.8327 9.2085H16.2918V7.79183H14.8327ZM8.50016 13.4585C5.75891 13.4585 3.54183 11.2414 3.54183 8.50016C3.54183 5.75891 5.75891 3.54183 8.50016 3.54183C11.2414 3.54183 13.4585 5.75891 13.4585 8.50016C13.4585 11.2414 11.2414 13.4585 8.50016 13.4585Z" fill="#F1A615"/>
</g>
<defs>
<clipPath id="clip0_45_166">
<rect width="17" height="17" fill="white"/>
</clipPath>
</defs>
</svg>
