<svg width="32" height="32" viewBox="0 0 32 32" fill="none" xmlns="http://www.w3.org/2000/svg">
<path d="M25.3316 20.6925L26.7193 21.5502C26.8049 21.603 26.8757 21.6777 26.9249 21.7672C26.9741 21.8566 27 21.9577 27 22.0605C27 22.1633 26.9741 22.2643 26.9249 22.3538C26.8757 22.4432 26.8049 22.518 26.7193 22.5708L16.5946 28.8301C16.415 28.9413 16.2095 29 16 29C15.7905 29 15.585 28.9413 15.4054 28.8301L5.28074 22.5708C5.19513 22.518 5.12427 22.4432 5.07507 22.3538C5.02586 22.2643 5 22.1633 5 22.0605C5 21.9577 5.02586 21.8566 5.07507 21.7672C5.12427 21.6777 5.19513 21.603 5.28074 21.5502L6.66841 20.6925L16 26.4618L25.3316 20.6925ZM25.3316 15.1017L26.7193 15.9594C26.8049 16.0122 26.8757 16.0869 26.9249 16.1764C26.9741 16.2658 27 16.3669 27 16.4697C27 16.5725 26.9741 16.6735 26.9249 16.763C26.8757 16.8524 26.8049 16.9272 26.7193 16.98L16 23.6057L5.28074 16.98C5.19513 16.9272 5.12427 16.8524 5.07507 16.763C5.02586 16.6735 5 16.5725 5 16.4697C5 16.3669 5.02586 16.2658 5.07507 16.1764C5.12427 16.0869 5.19513 16.0122 5.28074 15.9594L6.66841 15.1017L16 20.8709L25.3316 15.1017ZM16.5934 4.16869L26.7193 10.428C26.8049 10.4808 26.8757 10.5556 26.9249 10.645C26.9741 10.7345 27 10.8355 27 10.9383C27 11.0411 26.9741 11.1422 26.9249 11.2316C26.8757 11.3211 26.8049 11.3958 26.7193 11.4486L16 18.0743L5.28074 11.4498C5.19513 11.397 5.12427 11.3223 5.07507 11.2328C5.02586 11.1434 5 11.0423 5 10.9395C5 10.8367 5.02586 10.7357 5.07507 10.6462C5.12427 10.5568 5.19513 10.482 5.28074 10.4292L15.4054 4.16988C15.585 4.05872 15.7905 4 16 4C16.2095 4 16.415 4.05872 16.5946 4.16988L16.5934 4.16869ZM16 6.57512L8.94272 10.9383L16 15.3004L23.0573 10.9383L16 6.57512Z" fill="#898E88"/>
</svg>
