<svg width="40" height="40" viewBox="0 0 40 40" fill="none" xmlns="http://www.w3.org/2000/svg">
<path d="M14.8339 35.9672V29.7313H3.99988L9.95858 20.3774H7.09531L17.9293 4.7876L28.7633 20.3774H25.9L31.8974 29.7313H21.0247V35.9672H14.8339Z" fill="#82BB3C"/>
<path d="M34.6748 25.6926C34.4457 25.3781 34.1668 25.1055 33.9078 24.8329C33.2403 24.2038 32.4833 23.753 31.8457 23.0924C30.3615 21.5617 30.0327 19.0349 30.9791 17.0952C30.0327 17.3364 29.2059 17.8816 28.4986 18.4792C25.9186 20.66 24.9025 24.5079 26.1178 27.8106C26.1577 27.9154 26.1975 28.0202 26.1975 28.1565C26.1975 28.3872 26.0481 28.5969 25.8489 28.6808C25.6197 28.7856 25.3807 28.7227 25.1914 28.555C25.1345 28.5055 25.0872 28.445 25.0519 28.3767C23.9263 26.8774 23.747 24.7281 24.504 23.0086C22.8405 24.4345 21.9339 26.846 22.0634 29.1211C22.1232 29.6454 22.183 30.1696 22.3523 30.6938C22.4918 31.3229 22.7608 31.952 23.0596 32.5077C24.1355 34.3215 25.9983 35.6216 28.0006 35.8838C30.1323 36.1668 32.4135 35.7579 34.0472 34.2062C35.8702 32.4657 36.5078 29.6768 35.5714 27.2863L35.4419 27.0137C35.2327 26.5314 34.6748 25.6926 34.6748 25.6926ZM31.527 32.298C31.248 32.5496 30.7898 32.8222 30.4312 32.9271C29.3155 33.3465 28.1998 32.7593 27.5423 32.0673C28.7278 31.7738 29.435 30.8511 29.6442 29.918C29.8136 29.0792 29.4948 28.3872 29.3653 27.5799C29.2458 26.804 29.2657 26.1435 29.5346 25.42C29.7239 25.8185 29.9231 26.2169 30.1622 26.5314C30.9293 27.5799 32.1346 28.0412 32.3936 29.4671C32.4335 29.6139 32.4534 29.7607 32.4534 29.918C32.4833 30.7777 32.1247 31.7213 31.527 32.298Z" fill="#2B7CB9"/>
<path d="M31.527 32.298C31.248 32.5496 30.7898 32.8222 30.4312 32.9271C29.3155 33.3465 28.1998 32.7593 27.5423 32.0673C28.7278 31.7738 29.435 30.8511 29.6442 29.918C29.8136 29.0792 29.4948 28.3872 29.3653 27.5799C29.2458 26.804 29.2657 26.1435 29.5346 25.42C29.7239 25.8185 29.9231 26.2169 30.1622 26.5314C30.9293 27.5799 32.1346 28.0412 32.3936 29.4671C32.4335 29.6139 32.4534 29.7607 32.4534 29.918C32.4833 30.7777 32.1247 31.7213 31.527 32.298Z" fill="white"/>
<path d="M34.6748 25.6926L35.2993 25.2773C35.2934 25.2684 35.2873 25.2597 35.281 25.2511C35.0598 24.9473 34.7945 24.6724 34.5778 24.4479C34.5334 24.4018 34.491 24.3579 34.4515 24.3163C34.442 24.3063 34.4322 24.2966 34.4222 24.2871C34.0936 23.9774 33.7458 23.7078 33.4313 23.4642C33.3957 23.4366 33.3605 23.4093 33.3258 23.3823C32.9741 23.1089 32.6634 22.8596 32.3854 22.5716L32.3842 22.5704C31.1355 21.2826 30.8351 19.1006 31.6531 17.4241C31.7812 17.1615 31.7452 16.8484 31.5607 16.6218C31.3763 16.3951 31.077 16.2963 30.7939 16.3684C29.6913 16.6494 28.7627 17.2742 28.0146 17.9063L28.0145 17.9064C26.5819 19.1173 25.5939 20.7889 25.14 22.6109C25.0914 22.5332 25.0281 22.4635 24.951 22.4063C24.6699 22.1977 24.2818 22.2113 24.0159 22.4391C22.1513 24.0373 21.1737 26.6877 21.3147 29.1638C21.3155 29.1779 21.3167 29.192 21.3183 29.2061L21.3214 29.2333C21.3781 29.7314 21.4436 30.3063 21.6278 30.8905C21.789 31.5966 22.0853 32.2796 22.3991 32.8629C22.404 32.8722 22.4092 32.8813 22.4145 32.8903C23.5964 34.8829 25.6509 36.3321 27.9018 36.6272C30.1779 36.9295 32.7147 36.5062 34.5638 34.75L34.5652 34.7487C36.607 32.7992 37.3177 29.6883 36.2697 27.0128C36.2633 26.9964 36.2563 26.9803 36.2488 26.9645L36.1244 26.7027C35.9959 26.41 35.7824 26.0463 35.6192 25.7802C35.5327 25.6392 35.4533 25.5144 35.3956 25.4248C35.3666 25.3799 35.3429 25.3436 35.3263 25.3183L35.3069 25.2887L35.3015 25.2807L35.3 25.2784L35.2996 25.2777L35.2994 25.2775L35.2994 25.2774L34.6748 25.6926ZM24.8736 24.3529C24.8264 25.1507 24.8798 25.958 25.0406 26.7513C24.786 25.993 24.7286 25.1539 24.8736 24.3529Z" stroke="white" stroke-width="1.5" stroke-linejoin="round"/>
</svg>
