<svg width="40" height="40" viewBox="0 0 40 40" fill="none" xmlns="http://www.w3.org/2000/svg">
<path d="M20.283 7.00537C26.5208 7.00537 30.0594 11.1346 30.5742 16.1203H30.7317C34.7458 16.1203 38 19.3666 38 23.3699C38 27.3741 34.7458 30.6195 30.7317 30.6195H9.83438C5.81929 30.6195 2.56509 27.3741 2.56509 23.3699C2.56509 19.3666 5.81929 16.1203 9.83339 16.1203H9.99088C10.5086 11.1012 14.0444 7.00537 20.283 7.00537ZM20.283 9.46128C16.0888 9.46128 12.433 12.8552 12.433 17.5426C12.433 18.2858 11.7873 18.8695 11.0471 18.8695H9.64932C7.09597 18.8695 5.02592 20.9494 5.02592 23.5155C5.02592 26.0827 7.09597 28.1636 9.64932 28.1636H30.9168C33.4701 28.1636 35.5402 26.0827 35.5402 23.5165C35.5402 20.9494 33.4701 18.8685 30.9168 18.8685H29.519C28.7788 18.8685 28.1331 18.2858 28.1331 17.5436C28.1331 12.7952 24.4773 9.46226 20.283 9.46226V9.46128Z" fill="#2B7CB9"/>
<path d="M10.9226 33.7497L20.283 18.5947L29.6434 33.7497H10.9226ZM20.283 31.3568C20.5241 31.3568 20.7263 31.2802 20.8897 31.1271C21.0531 30.974 21.1345 30.7846 21.134 30.5592C21.134 30.3332 21.0523 30.1436 20.8889 29.9905C20.7255 29.8373 20.5235 29.761 20.283 29.7616C20.0419 29.7616 19.8397 29.8381 19.6763 29.9913C19.5129 30.1444 19.4315 30.3337 19.4321 30.5592C19.4321 30.7852 19.5137 30.9747 19.6771 31.1279C19.8405 31.281 20.0425 31.3573 20.283 31.3568ZM19.4321 28.9639H21.134V24.9758H19.4321V28.9639Z" fill="#82BB3C"/>
<path d="M19.4321 28.9639H21.134V24.9758H19.4321V28.9639Z" fill="white"/>
<path d="M20.283 31.3568C20.5241 31.3568 20.7263 31.2802 20.8897 31.1271C21.0531 30.974 21.1345 30.7846 21.134 30.5592C21.134 30.3332 21.0523 30.1436 20.8889 29.9905C20.7255 29.8373 20.5235 29.761 20.283 29.7616C20.0419 29.7616 19.8397 29.8381 19.6763 29.9913C19.5129 30.1444 19.4315 30.3337 19.4321 30.5592C19.4321 30.7852 19.5137 30.9747 19.6771 31.1279C19.8405 31.281 20.0425 31.3573 20.283 31.3568Z" fill="white"/>
<path d="M10.0718 33.2242L9.12956 34.7497H10.9226H29.6434H31.4364L30.4942 33.2242L21.1338 18.0692L20.283 16.6918L19.4322 18.0692L10.0718 33.2242Z" stroke="white" stroke-width="2"/>
</svg>
