<svg width="54" height="53" viewBox="0 0 54 53" fill="none" xmlns="http://www.w3.org/2000/svg">
<path d="M25.4589 5.00685C25.58 5.0065 25.7011 5.00614 25.8258 5.00578C26.0814 5.00523 26.337 5.00602 26.5926 5.00775C26.9192 5.00986 27.2456 5.00865 27.5722 5.00643C27.8851 5.00477 28.1981 5.00594 28.511 5.00685C28.6862 5.00573 28.6862 5.00573 28.8649 5.00458C29.8929 5.01555 29.8929 5.01555 30.3145 5.42604C30.71 5.87935 30.7354 6.231 30.7206 6.80431C30.7201 6.88156 30.7196 6.9588 30.719 7.03838C30.717 7.28348 30.7123 7.52845 30.7076 7.77351C30.7058 7.94034 30.7041 8.10718 30.7026 8.27401C30.6988 8.6816 30.6916 9.08892 30.6845 9.49653C31.3254 9.49653 31.9664 9.49653 32.6267 9.49653C32.4757 8.95523 32.4757 8.95523 32.3224 8.41461C32.0469 7.39824 32.0469 7.39824 32.1643 6.90622C32.3649 6.65022 32.474 6.54681 32.7983 6.48961C32.9011 6.48947 33.004 6.48933 33.11 6.48919C33.2282 6.48814 33.3465 6.4871 33.4683 6.48602C33.5992 6.48674 33.73 6.4875 33.8609 6.48829C33.9988 6.48779 34.1368 6.48713 34.2748 6.48633C34.6493 6.48464 35.0238 6.4853 35.3983 6.48647C35.7902 6.48741 36.1821 6.48654 36.5739 6.48596C37.232 6.48528 37.8901 6.48617 38.5481 6.48793C39.3091 6.48995 40.07 6.48929 40.831 6.48726C41.4842 6.48558 42.1374 6.48534 42.7906 6.48631C43.1807 6.48689 43.5709 6.48696 43.9611 6.48574C44.3279 6.48467 44.6947 6.48541 45.0615 6.48755C45.1962 6.48804 45.3309 6.4879 45.4656 6.48708C45.6493 6.48607 45.833 6.48756 46.0167 6.48919C46.171 6.48939 46.171 6.48939 46.3284 6.48961C46.6545 6.54712 46.7607 6.64858 46.9624 6.90622C47.063 7.16638 47.0631 7.16638 47.1402 7.47003C47.1698 7.584 47.1994 7.69797 47.2299 7.81539C47.2607 7.93958 47.2915 8.06379 47.3222 8.188C47.3548 8.31617 47.3874 8.44432 47.4202 8.57244C47.4884 8.84092 47.5558 9.1096 47.6225 9.37847C47.7076 9.72123 47.7947 10.0634 47.8825 10.4055C47.9502 10.6702 48.017 10.9351 48.0834 11.2001C48.1151 11.3262 48.1472 11.4523 48.1794 11.5783C48.5203 12.914 48.5203 12.914 48.4422 13.567C48.2455 13.832 48.1359 13.9258 47.8082 13.9836C47.6539 13.9838 47.6539 13.9838 47.4965 13.9841C47.3783 13.9851 47.26 13.9861 47.1382 13.9872C47.0073 13.9865 46.8765 13.9857 46.7456 13.9849C46.6077 13.9854 46.4697 13.9861 46.3317 13.9869C45.9572 13.9886 45.5827 13.9879 45.2082 13.9868C44.8163 13.9858 44.4244 13.9867 44.0326 13.9873C43.3745 13.988 42.7164 13.9871 42.0584 13.9853C41.2974 13.9833 40.5365 13.9839 39.7755 13.986C39.1223 13.9877 38.4691 13.9879 37.8159 13.9869C37.4257 13.9864 37.0356 13.9863 36.6454 13.9875C36.2786 13.9886 35.9118 13.9878 35.545 13.9857C35.4103 13.9852 35.2756 13.9853 35.1409 13.9862C34.9572 13.9872 34.7735 13.9857 34.5898 13.9841C34.4869 13.9839 34.3841 13.9838 34.2781 13.9836C33.9518 13.9261 33.8456 13.8252 33.6441 13.567C33.5427 13.2957 33.5427 13.2957 33.4664 12.9845C33.4383 12.873 33.4103 12.7615 33.3815 12.6466C33.3398 12.4726 33.3398 12.4726 33.2973 12.295C33.2681 12.1775 33.2389 12.0601 33.2088 11.939C33.1369 11.6494 33.0667 11.3593 32.9967 11.0692C32.2337 11.0387 31.4706 11.0082 30.6845 10.9767C30.6888 11.224 30.6931 11.4714 30.6975 11.7262C30.7004 11.9668 30.7026 12.2075 30.7048 12.4482C30.7067 12.6149 30.7092 12.7816 30.7124 12.9483C30.7169 13.1885 30.719 13.4287 30.7206 13.6689C30.7225 13.743 30.7244 13.817 30.7264 13.8933C30.7266 14.3841 30.6387 14.6573 30.3145 15.0472C29.8917 15.3966 29.7824 15.4172 29.2047 15.4172C29.2352 16.0278 29.2657 16.6384 29.2972 17.2675C29.4307 17.3285 29.5642 17.3896 29.7018 17.4525C31.1361 18.1738 32.1992 19.4163 32.7077 20.9332C32.9343 21.6642 33.0335 22.4283 32.9042 23.1882C32.7637 23.3902 32.7637 23.3902 32.5343 23.5582C32.267 23.5905 32.0361 23.6015 31.7698 23.5944C31.6964 23.5938 31.623 23.5933 31.5474 23.5928C31.3137 23.5907 31.0801 23.5861 30.8464 23.5813C30.6876 23.5795 30.5289 23.5778 30.3702 23.5763C29.9816 23.5722 29.5932 23.5658 29.2047 23.5582C29.2063 23.6536 29.2079 23.7489 29.2096 23.8471C29.2109 23.9734 29.2121 24.0997 29.2134 24.226C29.2151 24.3201 29.2151 24.3201 29.2169 24.416C29.2215 25.0489 29.0934 25.4148 28.6617 25.8674C28.0237 26.4585 27.5211 26.563 26.6562 26.5468C25.9291 26.4824 25.5468 26.1441 25.0839 25.6025C24.7764 25.1561 24.7405 24.7543 24.7537 24.2231C24.7545 24.159 24.7554 24.0949 24.7562 24.0289C24.7584 23.872 24.7617 23.7151 24.7653 23.5582C24.6663 23.5602 24.5674 23.5621 24.4655 23.5641C24.098 23.5708 23.7306 23.575 23.363 23.5785C23.2041 23.5804 23.0451 23.5829 22.8862 23.5861C22.6575 23.5906 22.4289 23.5927 22.2002 23.5944C22.0938 23.5972 22.0938 23.5972 21.9853 23.6001C21.6596 23.6003 21.4725 23.5852 21.2062 23.3902C20.8868 22.9308 21.0002 22.2453 21.0657 21.708C21.3485 20.1822 22.2162 18.8351 23.4762 17.9266C23.8641 17.6627 24.2434 17.4822 24.6728 17.2675C24.7033 16.6569 24.7338 16.0463 24.7653 15.4172C24.5821 15.4172 24.399 15.4172 24.2103 15.4172C23.7643 15.1852 23.5236 14.9322 23.2855 14.4921C23.2378 14.2164 23.2421 13.9481 23.2493 13.6689C23.2499 13.5917 23.2504 13.5144 23.2509 13.4349C23.253 13.1898 23.2576 12.9448 23.2623 12.6997C23.2642 12.5329 23.2659 12.3661 23.2674 12.1992C23.2711 11.7916 23.2784 11.3843 23.2855 10.9767C22.1409 11.0225 22.1409 11.0225 20.9733 11.0692C20.9308 11.2452 20.8884 11.4213 20.8446 11.6026C20.7874 11.8334 20.7301 12.0642 20.6727 12.295C20.6449 12.411 20.6171 12.5271 20.5885 12.6466C20.5605 12.7581 20.5325 12.8696 20.5036 12.9845C20.4658 13.1385 20.4658 13.1385 20.4273 13.2957C20.3116 13.6051 20.2132 13.7321 19.9559 13.9371C19.6919 13.9836 19.6919 13.9836 19.3802 13.9841C19.2619 13.9851 19.1437 13.9861 19.0218 13.9872C18.891 13.9865 18.7601 13.9857 18.6293 13.9849C18.4913 13.9854 18.3534 13.9861 18.2154 13.9869C17.8409 13.9886 17.4664 13.9879 17.0918 13.9868C16.6999 13.9858 16.3081 13.9867 15.9162 13.9873C15.2581 13.988 14.6001 13.9871 13.942 13.9853C13.1811 13.9833 12.4201 13.9839 11.6592 13.986C11.006 13.9877 10.3528 13.9879 9.69959 13.9869C9.3094 13.9864 8.91923 13.9863 8.52904 13.9875C8.16221 13.9886 7.79543 13.9878 7.42861 13.9857C7.29394 13.9852 7.15926 13.9853 7.0246 13.9862C6.84087 13.9872 6.65714 13.9857 6.47342 13.9841C6.31915 13.9838 6.31915 13.9838 6.16176 13.9836C5.83403 13.9258 5.72443 13.832 5.52777 13.567C5.43799 12.8168 5.6532 12.1142 5.83847 11.3912C5.87081 11.2626 5.9031 11.134 5.93534 11.0054C6.0028 10.7374 6.07099 10.4696 6.13969 10.2019C6.2275 9.85935 6.31321 9.51636 6.39836 9.17318C6.46442 8.90811 6.53168 8.64335 6.59929 8.37867C6.6314 8.2523 6.66311 8.12583 6.69441 7.99925C6.73827 7.82253 6.78396 7.64627 6.82973 7.47003C6.8552 7.36982 6.88067 7.26962 6.90691 7.16638C7.02329 6.86561 7.12626 6.73715 7.37753 6.53618C7.64157 6.48961 7.64157 6.48961 7.95323 6.48919C8.07149 6.48814 8.18975 6.4871 8.3116 6.48602C8.44245 6.48674 8.5733 6.4875 8.70415 6.48829C8.84211 6.48779 8.98007 6.48713 9.11802 6.48633C9.49256 6.48464 9.86707 6.4853 10.2416 6.48647C10.6335 6.48741 11.0253 6.48654 11.4172 6.48596C12.0753 6.48528 12.7333 6.48617 13.3914 6.48793C14.1524 6.48995 14.9133 6.48929 15.6742 6.48726C16.3274 6.48558 16.9806 6.48534 17.6338 6.48631C18.024 6.48689 18.4142 6.48696 18.8044 6.48574C19.1712 6.48467 19.538 6.48541 19.9048 6.48755C20.0395 6.48804 20.1742 6.4879 20.3088 6.48708C20.4925 6.48607 20.6763 6.48756 20.86 6.48919C21.0143 6.48939 21.0143 6.48939 21.1717 6.48961C21.496 6.54681 21.6051 6.65022 21.8057 6.90622C21.9438 7.48557 21.734 8.11346 21.5744 8.66971C21.4981 8.94256 21.4218 9.21541 21.3432 9.49653C21.9842 9.49653 22.6251 9.49653 23.2855 9.49653C23.2812 9.2492 23.2769 9.00187 23.2725 8.74705C23.2696 8.50639 23.2673 8.26573 23.2651 8.02507C23.2633 7.85835 23.2608 7.69163 23.2575 7.52493C23.253 7.28471 23.251 7.04457 23.2493 6.80431C23.2474 6.73028 23.2455 6.65625 23.2435 6.57998C23.2433 6.08992 23.3219 5.80837 23.6554 5.42604C24.1706 4.92456 24.7832 5.00252 25.4589 5.00685ZM24.7653 6.53618C24.7653 8.97847 24.7653 11.4208 24.7653 13.9371C25.2536 13.9371 25.7419 13.9371 26.2451 13.9371C26.2475 13.761 26.2498 13.585 26.2523 13.4037C26.2575 13.1729 26.2628 12.9421 26.2682 12.7113C26.2695 12.5953 26.2708 12.4792 26.2722 12.3597C26.2752 12.2482 26.2781 12.1367 26.2812 12.0218C26.2841 11.8677 26.2841 11.8677 26.2871 11.7106C26.348 11.383 26.4475 11.2712 26.7075 11.0692C26.9842 11.0321 27.169 11.0944 27.4474 11.1617C27.6624 11.4843 27.6599 11.6307 27.6707 12.0128C27.6743 12.1246 27.6778 12.2364 27.6815 12.3515C27.6844 12.4684 27.6873 12.5852 27.6902 12.7055C27.6938 12.8234 27.6974 12.9413 27.701 13.0627C27.7098 13.3541 27.7174 13.6456 27.7249 13.9371C28.2132 13.9371 28.7016 13.9371 29.2047 13.9371C29.2047 11.4948 29.2047 9.05248 29.2047 6.53618C27.7397 6.53618 26.2747 6.53618 24.7653 6.53618ZM8.39489 8.01635C8.10364 8.80758 8.10364 8.80758 8.02494 9.49653C8.94057 9.49653 9.8562 9.49653 10.7996 9.49653C11.0908 8.7053 11.0908 8.7053 11.1695 8.01635C10.2539 8.01635 9.33827 8.01635 8.39489 8.01635ZM12.8343 8.01635C12.5431 8.80758 12.5431 8.80758 12.4644 9.49653C13.38 9.49653 14.2956 9.49653 15.239 9.49653C15.5303 8.7053 15.5303 8.7053 15.609 8.01635C14.6933 8.01635 13.7777 8.01635 12.8343 8.01635ZM17.2737 8.01635C16.9825 8.80758 16.9825 8.80758 16.9038 9.49653C17.8194 9.49653 18.7351 9.49653 19.6784 9.49653C19.9697 8.7053 19.9697 8.7053 20.0484 8.01635C19.1327 8.01635 18.2171 8.01635 17.2737 8.01635ZM33.9216 8.01635C34.0574 8.95561 34.0574 8.95561 34.2915 9.49653C35.2072 9.49653 36.1228 9.49653 37.0662 9.49653C36.9304 8.55727 36.9304 8.55727 36.6962 8.01635C35.7806 8.01635 34.865 8.01635 33.9216 8.01635ZM38.361 8.01635C38.4968 8.95561 38.4968 8.95561 38.731 9.49653C39.6466 9.49653 40.5622 9.49653 41.5056 9.49653C41.3698 8.55727 41.3698 8.55727 41.1356 8.01635C40.22 8.01635 39.3044 8.01635 38.361 8.01635ZM42.8004 8.01635C42.9362 8.95561 42.9362 8.95561 43.1704 9.49653C44.086 9.49653 45.0016 9.49653 45.945 9.49653C45.8092 8.55727 45.8092 8.55727 45.5751 8.01635C44.6594 8.01635 43.7438 8.01635 42.8004 8.01635ZM7.65499 10.9767C7.36374 11.7679 7.36374 11.7679 7.28504 12.4569C8.20067 12.4569 9.1163 12.4569 10.0597 12.4569C10.3509 11.6657 10.3509 11.6657 10.4296 10.9767C9.514 10.9767 8.59837 10.9767 7.65499 10.9767ZM12.0944 10.9767C11.8032 11.7679 11.8032 11.7679 11.7245 12.4569C12.6401 12.4569 13.5557 12.4569 14.4991 12.4569C14.7904 11.6657 14.7904 11.6657 14.8691 10.9767C13.9534 10.9767 13.0378 10.9767 12.0944 10.9767ZM16.5338 10.9767C16.2426 11.7679 16.2426 11.7679 16.1639 12.4569C17.0795 12.4569 17.9951 12.4569 18.9385 12.4569C19.2298 11.6657 19.2298 11.6657 19.3085 10.9767C18.3928 10.9767 17.4772 10.9767 16.5338 10.9767ZM34.6615 10.9767C34.7973 11.916 34.7973 11.916 35.0314 12.4569C35.9471 12.4569 36.8627 12.4569 37.8061 12.4569C37.6703 11.5176 37.6703 11.5176 37.4361 10.9767C36.5205 10.9767 35.6049 10.9767 34.6615 10.9767ZM39.1009 10.9767C39.2367 11.916 39.2367 11.916 39.4709 12.4569C40.3865 12.4569 41.3021 12.4569 42.2455 12.4569C42.1097 11.5176 42.1097 11.5176 41.8755 10.9767C40.9599 10.9767 40.0443 10.9767 39.1009 10.9767ZM43.5403 10.9767C43.6761 11.916 43.6761 11.916 43.9103 12.4569C44.8259 12.4569 45.7415 12.4569 46.6849 12.4569C46.5491 11.5176 46.5491 11.5176 46.315 10.9767C45.3993 10.9767 44.4837 10.9767 43.5403 10.9767ZM26.2451 15.4172C26.2451 15.9057 26.2451 16.3942 26.2451 16.8974C26.7334 16.8974 27.2217 16.8974 27.7249 16.8974C27.7249 16.409 27.7249 15.9205 27.7249 15.4172C27.2365 15.4172 26.7482 15.4172 26.2451 15.4172ZM23.5777 19.9026C23.0314 20.5389 22.638 21.2225 22.638 22.078C25.507 22.078 28.376 22.078 31.3319 22.078C31.0849 20.8427 30.6687 19.9988 29.6671 19.2102C27.6265 17.9198 25.2516 18.1302 23.5777 19.9026ZM26.2451 23.5582C26.2299 24.2785 26.2299 24.2785 26.5225 24.8534C26.7853 24.9848 26.9715 24.975 27.2624 24.9459C27.5258 24.7394 27.6185 24.6175 27.7249 24.2983C27.7249 24.0541 27.7249 23.8098 27.7249 23.5582C27.2365 23.5582 26.7482 23.5582 26.2451 23.5582Z" fill="#2B7CB9"/>
<path d="M23.5777 19.9026C23.0314 20.5389 22.638 21.2225 22.638 22.078H31.3319C31.0849 20.8427 30.6687 19.9988 29.6671 19.2102C27.6265 17.9198 25.2516 18.1302 23.5777 19.9026Z" fill="#82BB3C"/>
<path d="M24.7653 6.53618V13.9371H26.2451L26.2523 13.4037C26.2575 13.1729 26.2628 12.9421 26.2682 12.7113L26.2722 12.3597L26.2812 12.0218L26.2871 11.7106C26.348 11.383 26.4475 11.2712 26.7075 11.0692C26.9842 11.0321 27.169 11.0944 27.4474 11.1617C27.6624 11.4843 27.6599 11.6307 27.6707 12.0128L27.6815 12.3515L27.6902 12.7055L27.701 13.0627C27.7098 13.3541 27.7174 13.6456 27.7249 13.9371H29.2047V6.53618H24.7653Z" fill="#2B7CB9"/>
<path d="M13.2968 33.1794C13.6867 33.3382 14.0469 33.5436 14.4124 33.7518C14.5177 33.8102 14.6231 33.8686 14.7316 33.9288C15.056 34.1087 15.3787 34.2916 15.7014 34.4745C15.8921 34.5817 16.0827 34.6888 16.2734 34.7958C16.9562 35.1803 17.6385 35.5655 18.315 35.9612C18.465 36.0477 18.6151 36.1342 18.7651 36.2207C18.8325 36.261 18.8998 36.3012 18.9692 36.3427C19.3151 36.5474 19.3151 36.5473 19.7048 36.5852C20.0248 36.4891 20.3125 36.3467 20.6079 36.1935C20.6718 36.161 20.7356 36.1286 20.8014 36.0951C20.9395 36.0247 21.0775 35.9541 21.2154 35.8832C21.4341 35.771 21.6531 35.6597 21.8723 35.5486C22.4954 35.2328 23.1179 34.9159 23.7395 34.5972C24.1202 34.4021 24.5016 34.2084 24.8835 34.0156C25.0285 33.9421 25.1733 33.868 25.3177 33.7933C25.5202 33.6887 25.7235 33.586 25.9271 33.4836C25.986 33.4526 26.0448 33.4216 26.1055 33.3897C26.5318 33.1788 26.8893 33.1036 27.3549 33.1794C27.6069 33.2745 27.8244 33.3701 28.0599 33.495C28.159 33.5454 28.159 33.5454 28.2602 33.5967C28.4027 33.6692 28.5448 33.7423 28.6865 33.8161C28.911 33.9329 29.1363 34.0478 29.3619 34.1623C29.8403 34.4054 30.3173 34.6509 30.7943 34.8966C31.3482 35.1817 31.9026 35.4658 32.458 35.7479C32.68 35.8611 32.901 35.976 33.1221 36.0909C33.2581 36.1602 33.394 36.2294 33.53 36.2986C33.5912 36.3309 33.6524 36.3632 33.7154 36.3966C33.9785 36.5285 34.1592 36.6053 34.4559 36.5828C34.7227 36.488 34.9584 36.3642 35.2056 36.2257C35.2577 36.1968 35.3098 36.1678 35.3636 36.1379C35.5345 36.0427 35.7049 35.9467 35.8754 35.8506C35.9946 35.784 36.1139 35.7175 36.2331 35.651C36.48 35.5134 36.7267 35.3753 36.9732 35.2371C37.3305 35.0367 37.6885 34.8376 38.0467 34.6389C38.1028 34.6078 38.1588 34.5767 38.2166 34.5447C38.3269 34.4835 38.4373 34.4223 38.5476 34.3611C38.801 34.2204 39.0543 34.0795 39.3076 33.9386C39.4438 33.8631 39.4438 33.8631 39.5828 33.7861C39.75 33.6927 39.9165 33.5981 40.0822 33.5021C40.1916 33.4391 40.1916 33.4391 40.3032 33.3749C40.3657 33.3383 40.4282 33.3017 40.4926 33.264C40.8258 33.1078 41.0496 33.1188 41.4131 33.1794C41.7824 33.4996 42.0516 33.8737 42.3206 34.2779C42.4098 34.4098 42.499 34.5415 42.5884 34.6733C42.6609 34.7806 42.6609 34.7806 42.7349 34.89C43.0307 35.3244 43.3322 35.7549 43.6328 36.186C44.0906 36.8433 44.5467 37.5016 44.9995 38.1623C45.3739 38.7079 45.7519 39.2509 46.13 39.7939C47.193 41.3209 47.193 41.3209 47.6759 42.0308C47.8047 42.2197 47.9361 42.4037 48.0726 42.5873C48.3103 42.9128 48.4753 43.1603 48.5 43.5695C48.4335 43.9619 48.3727 44.0346 48.0722 44.2807C47.8068 44.4037 47.8068 44.4037 47.4899 44.5149C47.4306 44.536 47.3713 44.5571 47.3102 44.5789C47.1098 44.6501 46.9089 44.7198 46.708 44.7895C46.5639 44.8404 46.4198 44.8915 46.2758 44.9426C45.9511 45.0577 45.6261 45.1723 45.3011 45.2865C44.3318 45.6276 43.3647 45.9748 42.3972 46.3208C42.0618 46.4406 41.7264 46.5602 41.391 46.6797C41.2843 46.7177 41.1777 46.7557 41.0678 46.7949C40.8585 46.8695 40.6491 46.944 40.4396 47.0183C39.9738 47.184 39.5099 47.3526 39.0496 47.5331C38.9708 47.5637 38.892 47.5942 38.8107 47.6257C38.6684 47.6812 38.5265 47.7379 38.3853 47.7962C37.6565 48.0791 36.9756 48.0607 36.2446 47.7831C36.1861 47.7614 36.1276 47.7398 36.0673 47.7174C35.9393 47.6699 35.8117 47.6217 35.6842 47.5728C35.4014 47.4645 35.1175 47.3595 34.8335 47.2542C34.6746 47.1953 34.5158 47.1361 34.357 47.0768C33.3025 46.6835 32.2416 46.3079 31.1813 45.9305C30.7316 45.7704 30.2821 45.61 29.8326 45.4493C29.6233 45.3746 29.4138 45.3004 29.2042 45.2265C28.7871 45.0791 28.3719 44.9314 27.9636 44.761C27.8531 44.716 27.7426 44.671 27.6288 44.6247C27.5416 44.5865 27.4543 44.5483 27.3645 44.5089C26.921 44.4422 26.5686 44.5946 26.1526 44.7433C26.03 44.7849 26.03 44.7849 25.9049 44.8274C25.638 44.9184 25.3721 45.012 25.1063 45.1061C25.0072 45.141 24.908 45.1759 24.8059 45.2118C24.484 45.3252 24.1622 45.439 23.8404 45.5527C23.6176 45.6313 23.3947 45.7099 23.1719 45.7885C21.5886 46.3472 20.0067 46.9099 18.426 47.4762C18.3495 47.5036 18.273 47.5311 18.1941 47.5593C18.0527 47.61 17.9113 47.6607 17.7699 47.7115C16.7975 48.0602 16.2202 48.0082 15.2639 47.6584C15.119 47.607 15.119 47.607 14.9712 47.5546C14.6535 47.4416 14.3364 47.3269 14.0193 47.2121C13.798 47.133 13.5766 47.0539 13.3552 46.9749C12.893 46.8097 12.431 46.6439 11.9692 46.4776C11.2695 46.2256 10.5687 45.9769 9.86784 45.7284C9.53441 45.6098 9.20101 45.4912 8.86764 45.3726C8.65383 45.2965 8.43998 45.2205 8.2261 45.1447C7.92693 45.0384 7.628 44.9316 7.32911 44.8246C7.24156 44.7936 7.154 44.7626 7.06379 44.7307C5.6908 44.2368 5.6908 44.2368 5.52777 43.9107C5.41977 43.2625 5.63656 42.9387 6.00863 42.4171C6.0485 42.3625 6.08836 42.308 6.12944 42.2517C6.35676 41.9371 6.57636 41.6172 6.79731 41.2981C6.99174 41.0175 7.1869 40.7374 7.38222 40.4574C7.67523 40.0369 7.96653 39.6154 8.25616 39.1926C8.73329 38.4964 9.21559 37.8038 9.69795 37.1112C10.0593 36.5921 10.419 36.0719 10.7765 35.55C11.1386 35.0224 11.5024 34.496 11.869 33.9715C11.9402 33.8687 11.9402 33.8687 12.0129 33.7638C12.0571 33.7008 12.1013 33.6378 12.1468 33.5729C12.1859 33.5169 12.2249 33.4609 12.2651 33.4033C12.5258 33.0824 12.9214 33.1159 13.2968 33.1794ZM40.2444 35.1579C40.1557 35.206 40.067 35.2541 39.9756 35.3037C39.8796 35.3563 39.7836 35.409 39.6847 35.4632C39.5861 35.517 39.4874 35.5708 39.3857 35.6262C38.6062 36.0525 37.8316 36.4871 37.0596 36.9269C36.4796 37.2572 35.8958 37.5796 35.3089 37.8974C35.3663 38.3866 35.4755 38.8341 35.6227 39.3035C35.6451 39.3763 35.6675 39.4492 35.6906 39.5243C35.7642 39.7633 35.8386 40.0021 35.913 40.2409C35.9645 40.4076 36.016 40.5742 36.0674 40.7408C36.175 41.0891 36.283 41.4372 36.3912 41.7852C36.53 42.2319 36.6683 42.6788 36.8064 43.1257C36.9125 43.4693 37.0189 43.8129 37.1253 44.1564C37.1764 44.3212 37.2274 44.486 37.2784 44.6509C37.3495 44.8806 37.4209 45.1102 37.4923 45.3398C37.5134 45.4082 37.5346 45.4766 37.5564 45.547C37.6629 45.8924 37.6629 45.8924 37.8061 46.2234C38.4831 46.0901 39.1136 45.8834 39.7617 45.6481C39.8693 45.6095 39.977 45.5709 40.0879 45.5311C40.4315 45.4077 40.7749 45.2837 41.1183 45.1596C41.3421 45.079 41.5659 44.9986 41.7897 44.9182C42.1252 44.7976 42.4606 44.677 42.7959 44.5558C43.3832 44.3436 43.9713 44.1338 44.5607 43.9276C44.7409 43.8643 44.921 43.801 45.1011 43.7376C45.2725 43.6775 45.4442 43.6182 45.6158 43.5589C45.7185 43.5227 45.8211 43.4866 45.9268 43.4494C46.0631 43.402 46.0631 43.402 46.2021 43.3536C46.4223 43.2826 46.4223 43.2826 46.4999 43.0781C45.9626 42.2559 45.4022 41.4504 44.8406 40.6447C44.4825 40.131 44.1255 39.6167 43.7715 39.1001C43.1703 38.2233 42.5637 37.3502 41.9549 36.4786C41.7993 36.2555 41.6443 36.0319 41.4893 35.8083C41.4062 35.6894 41.323 35.5705 41.2397 35.4517C41.2028 35.3981 41.166 35.3446 41.128 35.2894C41.0427 35.1685 40.9511 35.0522 40.8582 34.9371C40.6055 34.9371 40.4665 35.037 40.2444 35.1579ZM13.1118 35.0296C12.9471 35.2059 12.9471 35.2059 12.7881 35.4459C12.7223 35.5399 12.6565 35.6338 12.5886 35.7307C12.5163 35.8361 12.4441 35.9416 12.3719 36.0472C12.2977 36.1547 12.2235 36.2621 12.1493 36.3696C11.9819 36.6124 11.8151 36.8557 11.6486 37.0992C11.3105 37.5926 10.9682 38.0832 10.6262 38.5739C10.1152 39.3073 9.60799 40.0429 9.10533 40.782C8.85744 41.1456 8.60674 41.5067 8.35118 41.8649C8.29935 41.9376 8.24751 42.0103 8.19411 42.0852C8.0951 42.2237 7.9957 42.3618 7.89587 42.4996C7.64942 42.8046 7.64942 42.8046 7.5625 43.1706C8.90548 43.6835 10.2603 44.1631 11.6146 44.645C12.0662 44.8057 12.5176 44.9665 12.9691 45.1274C13.0771 45.1659 13.1851 45.2043 13.2964 45.244C14.0234 45.5034 14.7485 45.7676 15.4706 46.0406C15.8079 46.1759 15.8079 46.1759 16.1639 46.2234C16.4622 45.2456 16.7605 44.2677 17.0587 43.2897C17.1972 42.8356 17.3357 42.3815 17.4743 41.9274C17.608 41.489 17.7418 41.0505 17.8754 40.612C17.9264 40.4449 17.9773 40.2779 18.0283 40.1109C18.0999 39.8764 18.1714 39.6419 18.2428 39.4074C18.2638 39.3388 18.2847 39.2702 18.3063 39.1995C18.4288 38.7974 18.5468 38.3944 18.6611 37.9899C17.3589 37.2489 16.0516 36.5182 14.7384 35.797C14.6828 35.7664 14.6272 35.7358 14.5699 35.7043C14.4189 35.6213 14.2678 35.5384 14.1166 35.4554C13.9427 35.3581 13.7712 35.256 13.603 35.1491C13.3897 35.007 13.3897 35.007 13.1118 35.0296ZM25.6046 35.3792C25.5474 35.4066 25.4903 35.4339 25.4314 35.4622C24.9026 35.7162 24.3755 35.9736 23.8488 36.2321C23.4951 36.4057 23.1408 36.5781 22.7852 36.7479C22.4413 36.912 22.099 37.079 21.7576 37.2481C21.6275 37.3119 21.4969 37.3747 21.3659 37.4364C20.5057 37.8235 20.5057 37.8235 19.9726 38.567C19.9316 38.7126 19.8948 38.8596 19.8634 39.0076C19.8258 39.1365 19.7877 39.2653 19.7489 39.3939C19.7154 39.5213 19.6823 39.6489 19.6495 39.7766C19.4814 40.4076 19.2881 41.0261 19.0773 41.6441C18.8493 42.3134 18.6455 42.9839 18.4627 43.6667C18.2537 44.4373 17.9957 45.1911 17.7362 45.9459C18.1187 46.0734 18.3523 45.9242 18.7069 45.7757C19.4246 45.486 20.148 45.2188 20.8782 44.9626C21.0367 44.9069 21.0367 44.9069 21.1984 44.8501C21.526 44.7353 21.8537 44.6207 22.1814 44.5062C22.4011 44.4292 22.6208 44.3522 22.8405 44.2751C23.1523 44.1658 23.464 44.0565 23.7759 43.9474C24.5299 43.6836 25.2831 43.4177 26.0364 43.1517C26.106 43.1272 26.1755 43.1026 26.2451 43.0781C26.2451 40.4526 26.2451 37.8271 26.2451 35.1221C26.0333 35.1221 25.787 35.2917 25.6046 35.3792ZM27.7249 35.2146C27.7249 37.779 27.7249 40.3434 27.7249 42.9855C29.4165 43.606 31.1073 44.2238 32.8071 44.8207C33.1372 44.9367 33.4672 45.0531 33.7971 45.1695C34.01 45.2444 34.2228 45.3192 34.4357 45.3941C34.5329 45.4284 34.6301 45.4627 34.7302 45.498C35.1975 45.6618 35.6632 45.8167 36.1413 45.9459C35.9101 45.1783 35.6788 44.4107 35.4462 43.6436C35.4188 43.5531 35.3913 43.4625 35.363 43.3693C35.3065 43.1829 35.25 42.9965 35.1935 42.8102C35.028 42.2639 34.864 41.7172 34.7014 41.17C34.6026 40.8381 34.5029 40.5066 34.403 40.1751C34.3558 40.0179 34.3091 39.8606 34.2628 39.7031C34.1982 39.4836 34.1321 39.2645 34.0657 39.0455C34.0472 38.9811 34.0286 38.9167 34.0095 38.8504C33.856 38.3526 33.6524 38.104 33.2052 37.8401C33.108 37.7916 33.0108 37.7431 32.9107 37.6932C32.8568 37.666 32.8029 37.6389 32.7474 37.611C32.5705 37.5222 32.3931 37.4344 32.2156 37.3467C32.0921 37.2851 31.9687 37.2234 31.8453 37.1616C31.5872 37.0327 31.329 36.9043 31.0705 36.7763C30.7388 36.612 30.4076 36.4467 30.0765 36.281C29.822 36.1537 29.5672 36.0268 29.3124 35.9001C29.1902 35.8392 29.068 35.7783 28.9458 35.7173C28.7755 35.6323 28.605 35.5478 28.4344 35.4635C28.3373 35.4153 28.2403 35.3671 28.1403 35.3175C27.9238 35.202 27.9238 35.202 27.7249 35.2146Z" fill="#2B7CB9"/>
<path d="M25.6046 35.3792L25.4314 35.4622C24.9026 35.7162 24.3755 35.9736 23.8488 36.2321C23.4951 36.4057 23.1408 36.5781 22.7852 36.7479C22.4413 36.912 22.099 37.079 21.7576 37.2481C21.6275 37.3119 21.4969 37.3747 21.3659 37.4364C20.5057 37.8235 20.5057 37.8235 19.9726 38.567C19.9316 38.7126 19.8948 38.8596 19.8634 39.0076C19.8258 39.1365 19.7877 39.2653 19.7489 39.3939C19.7154 39.5213 19.6823 39.6489 19.6495 39.7766C19.4814 40.4076 19.2881 41.0261 19.0773 41.6441C18.8493 42.3134 18.6455 42.9839 18.4627 43.6667C18.2537 44.4373 17.9957 45.1911 17.7362 45.9459C18.1187 46.0734 18.3523 45.9242 18.7069 45.7757C19.4246 45.486 20.148 45.2188 20.8782 44.9626L21.1984 44.8501C21.526 44.7353 21.8537 44.6207 22.1814 44.5062C22.4011 44.4292 22.6208 44.3522 22.8405 44.2751C23.1523 44.1658 23.464 44.0565 23.7759 43.9474C24.5299 43.6836 25.2831 43.4177 26.0364 43.1517L26.2451 43.0781V35.1221C26.0333 35.1221 25.787 35.2917 25.6046 35.3792Z" fill="#82BB3C"/>
<path d="M40.2444 35.1579L39.9756 35.3037L39.6847 35.4632L39.3857 35.6262C38.6062 36.0525 37.8316 36.4871 37.0596 36.9269C36.4796 37.2572 35.8958 37.5796 35.3089 37.8974C35.3663 38.3866 35.4755 38.8341 35.6227 39.3035L35.6906 39.5243C35.7642 39.7633 35.8386 40.0021 35.913 40.2409C35.9645 40.4076 36.016 40.5742 36.0674 40.7408C36.175 41.0891 36.283 41.4372 36.3912 41.7852C36.53 42.2319 36.6683 42.6788 36.8064 43.1257C36.9125 43.4693 37.0189 43.8129 37.1253 44.1564C37.1764 44.3212 37.2274 44.486 37.2784 44.6509C37.3495 44.8806 37.4209 45.1102 37.4923 45.3398L37.5564 45.547C37.6629 45.8924 37.6629 45.8924 37.8061 46.2234C38.4831 46.0901 39.1136 45.8834 39.7617 45.6481L40.0879 45.5311C40.4315 45.4077 40.7749 45.2837 41.1183 45.1596C41.3421 45.079 41.5659 44.9986 41.7897 44.9182C42.1252 44.7976 42.4606 44.677 42.7959 44.5558C43.3832 44.3436 43.9713 44.1338 44.5607 43.9276C44.7409 43.8643 44.921 43.801 45.1011 43.7376C45.2725 43.6775 45.4442 43.6182 45.6158 43.5589L45.9268 43.4494L46.2021 43.3536C46.4223 43.2826 46.4223 43.2826 46.4999 43.0781C45.9626 42.2559 45.4022 41.4504 44.8406 40.6447C44.4825 40.131 44.1255 39.6167 43.7715 39.1001C43.1703 38.2233 42.5637 37.3502 41.9549 36.4786C41.7993 36.2555 41.6443 36.0319 41.4893 35.8083C41.4062 35.6894 41.323 35.5705 41.2397 35.4517L41.128 35.2894C41.0427 35.1685 40.9511 35.0522 40.8582 34.9371C40.6055 34.9371 40.4665 35.037 40.2444 35.1579Z" fill="#82BB3C"/>
<path d="M24.7653 6.53618C26.2303 6.53618 27.6953 6.53618 29.2047 6.53618C29.2047 8.97847 29.2047 11.4208 29.2047 13.9371C28.7164 13.9371 28.228 13.9371 27.7249 13.9371C27.7204 13.76 27.7158 13.5829 27.7112 13.4004C27.7042 13.1688 27.6972 12.9371 27.6902 12.7055C27.6873 12.5887 27.6845 12.4719 27.6815 12.3515C27.678 12.2397 27.6744 12.1279 27.6707 12.0128C27.6678 11.9096 27.6649 11.8064 27.6619 11.7001C27.6504 11.4204 27.6504 11.4204 27.4474 11.1617C27.0766 11.0633 27.0766 11.0633 26.7075 11.0692C26.4475 11.2712 26.348 11.383 26.2871 11.7106C26.2842 11.8646 26.2842 11.8646 26.2812 12.0218C26.2782 12.1333 26.2752 12.2448 26.2722 12.3597C26.2702 12.5337 26.2702 12.5337 26.2682 12.7113C26.2641 12.8875 26.2641 12.8875 26.2599 13.0672C26.2534 13.3572 26.249 13.6471 26.2451 13.9371C25.7567 13.9371 25.2684 13.9371 24.7653 13.9371C24.7653 11.4948 24.7653 9.05248 24.7653 6.53618Z" fill="#82BB3C"/>
<path d="M23.6554 27.2587C23.8866 27.3974 23.8866 27.3974 24.0254 27.6287C24.1308 28.3663 23.8107 28.8458 23.4415 29.4674C23.3865 29.564 23.3315 29.6606 23.2748 29.7601C22.8637 30.4694 22.8637 30.4694 22.5456 30.6816C21.8923 30.7438 21.8923 30.7438 21.5802 30.5197C21.4343 30.3095 21.3809 30.1912 21.3432 29.9415C21.4785 29.3119 21.8614 28.735 22.1814 28.1838C22.2418 28.0791 22.2418 28.0791 22.3034 27.9723C22.3619 27.8738 22.3619 27.8738 22.4216 27.7733C22.4566 27.7142 22.4915 27.6552 22.5275 27.5944C22.8179 27.1985 23.2054 27.188 23.6554 27.2587Z" fill="#2B7CB9"/>
<path d="M34.0141 25.4084C34.3991 25.5717 34.7532 25.779 35.1124 25.9924C35.2089 26.0475 35.3055 26.1025 35.405 26.1592C36.1141 26.5704 36.1141 26.5704 36.3263 26.8886C36.3871 27.5273 36.3871 27.5273 36.1875 27.86C35.8593 28.057 35.5842 28.066 35.2164 27.9988C34.8314 27.8355 34.4773 27.6282 34.1181 27.4148C34.0215 27.3597 33.925 27.3047 33.8255 27.248C33.1163 26.8368 33.1163 26.8368 32.9042 26.5186C32.8434 25.8799 32.8434 25.8799 33.0429 25.5472C33.3712 25.3502 33.6462 25.3412 34.0141 25.4084Z" fill="#2B7CB9"/>
<path d="M20.6958 25.4084C20.9503 25.5847 21.0397 25.7124 21.1525 25.9982C21.161 26.3562 21.0841 26.4947 20.8808 26.7961C20.5538 27.041 20.2035 27.2354 19.8461 27.4321C19.7521 27.487 19.658 27.5418 19.5612 27.5984C19.0196 27.9019 18.6367 28.0856 18.0136 27.9988C17.7824 27.86 17.7824 27.86 17.6437 27.6287C17.5931 27.3715 17.5762 27.1428 17.6437 26.8886C18.0208 26.4686 18.4778 26.2202 18.9616 25.9404C19.0464 25.8891 19.1312 25.8378 19.2185 25.785C19.739 25.4835 20.0925 25.3279 20.6958 25.4084Z" fill="#2B7CB9"/>
<path d="M30.8604 27.2005C31.4709 27.3835 31.7704 28.1135 32.0545 28.629C32.1241 28.7489 32.1241 28.7489 32.1952 28.8713C32.4773 29.38 32.6034 29.729 32.5343 30.3115C32.3955 30.5428 32.3955 30.5428 32.1643 30.6816C31.9072 30.7322 31.6786 30.7491 31.4244 30.6816C31.0045 30.3044 30.7561 29.8473 30.4764 29.3633C30.4251 29.2785 30.3739 29.1937 30.3211 29.1064C30.0192 28.5851 29.8661 28.2327 29.9446 27.6287C30.1745 27.2455 30.4252 27.2152 30.8604 27.2005Z" fill="#2B7CB9"/>
<path d="M26.985 27.9525C27.046 27.9515 27.1071 27.9506 27.17 27.9496C27.4457 28.0229 27.5488 28.1454 27.7249 28.3688C27.7728 28.6767 27.7728 28.6767 27.774 29.0395C27.7744 29.1038 27.7747 29.1681 27.7751 29.2344C27.7753 29.37 27.7747 29.5056 27.7731 29.6412C27.7711 29.8484 27.7731 30.0552 27.7755 30.2624C27.7752 30.3944 27.7747 30.5264 27.774 30.6584C27.7736 30.7782 27.7732 30.8979 27.7728 31.0213C27.7176 31.3763 27.6377 31.4856 27.3549 31.6992C27.17 31.7483 27.17 31.7483 26.985 31.7454C26.8934 31.7469 26.8934 31.7469 26.8 31.7483C26.5242 31.6751 26.4212 31.5525 26.2451 31.3291C26.1972 31.0213 26.1972 31.0213 26.1959 30.6584C26.1956 30.5941 26.1952 30.5298 26.1949 30.4636C26.1946 30.328 26.1953 30.1924 26.1968 30.0568C26.1988 29.8496 26.1969 29.6427 26.1945 29.4356C26.1947 29.3035 26.1952 29.1715 26.1959 29.0395C26.1964 28.9198 26.1968 28.8 26.1972 28.6767C26.269 28.2152 26.5042 27.945 26.985 27.9525Z" fill="#2B7CB9"/>
</svg>
