<svg width="40" height="40" viewBox="0 0 40 40" fill="none" xmlns="http://www.w3.org/2000/svg">
<path d="M21.6667 26.6665L25 34.9998H26.6667L30 26.6665M10 26.6665V31.6665C10 32.5506 10.3512 33.3984 10.9763 34.0235C11.6014 34.6486 12.4493 34.9998 13.3333 34.9998C14.2174 34.9998 15.0652 34.6486 15.6904 34.0235C16.3155 33.3984 16.6667 32.5506 16.6667 31.6665V26.6665" stroke="#2B7CB9" stroke-width="3" stroke-linecap="round" stroke-linejoin="round"/>
<path d="M5 20H6.66667M33.3333 20H35M9.33333 9.33333L10.5 10.5M30.6667 9.33333L29.5 10.5M13.3333 20C13.3333 18.2319 14.0357 16.5362 15.286 15.286C16.5362 14.0357 18.2319 13.3333 20 13.3333C21.7681 13.3333 23.4638 14.0357 24.714 15.286C25.9643 16.5362 26.6667 18.2319 26.6667 20M20 6.66667V5" stroke="#82BB3C" stroke-width="3" stroke-linecap="round" stroke-linejoin="round"/>
</svg>
