<svg width="40" height="40" viewBox="0 0 40 40" fill="none" xmlns="http://www.w3.org/2000/svg">
<path d="M19.5474 5.99769C20.601 5.99792 21.4494 6.84635 21.4407 7.89104L21.4422 14.8377L31.5422 21.1527L31.5517 23.6796L21.4524 20.5076L21.4539 27.4722L23.9812 29.3567L23.9727 31.2586L19.5616 29.9897L15.1331 31.2566L15.1148 29.3458L17.677 27.4445L17.6755 20.5336L7.55078 23.6743L7.55915 21.1474L17.6564 14.8369L17.6549 7.8902C17.6368 6.8723 18.5295 5.97961 19.5474 5.99769Z" fill="#2B7CB9"/>
<path d="M29.4842 6.59138V5.61025C29.4842 5.52351 29.5187 5.44032 29.58 5.37899C29.6413 5.31766 29.7245 5.2832 29.8112 5.2832C29.898 5.2832 29.9812 5.31766 30.0425 5.37899C30.1038 5.44032 30.1383 5.52351 30.1383 5.61025V6.59138C30.1383 6.67812 30.1038 6.7613 30.0425 6.82263C29.9812 6.88397 29.898 6.91842 29.8112 6.91842C29.7245 6.91842 29.6413 6.88397 29.58 6.82263C29.5187 6.7613 29.4842 6.67812 29.4842 6.59138ZM29.8112 7.57251C29.2938 7.57251 28.7879 7.72596 28.3577 8.01345C27.9274 8.30093 27.5921 8.70955 27.394 9.18763C27.196 9.6657 27.1442 10.1918 27.2452 10.6993C27.3461 11.2068 27.5953 11.673 27.9612 12.0389C28.3271 12.4048 28.7933 12.654 29.3008 12.7549C29.8083 12.8559 30.3344 12.8041 30.8125 12.6061C31.2905 12.408 31.6992 12.0727 31.9867 11.6424C32.2741 11.2122 32.4276 10.7063 32.4276 10.1889C32.4268 9.4952 32.1509 8.83016 31.6604 8.33966C31.1699 7.84916 30.5049 7.57327 29.8112 7.57251ZM26.9635 7.80389C27.0249 7.86526 27.1081 7.89974 27.1949 7.89974C27.2817 7.89974 27.3649 7.86526 27.4263 7.80389C27.4876 7.74253 27.5221 7.6593 27.5221 7.57251C27.5221 7.48573 27.4876 7.40249 27.4263 7.34113L26.7722 6.68704C26.7108 6.62567 26.6276 6.5912 26.5408 6.5912C26.454 6.5912 26.3708 6.62567 26.3094 6.68704C26.248 6.74841 26.2136 6.83164 26.2136 6.91842C26.2136 7.00521 26.248 7.08844 26.3094 7.14981L26.9635 7.80389ZM26.9635 12.5738L26.3094 13.2279C26.248 13.2893 26.2136 13.3725 26.2136 13.4593C26.2136 13.5461 26.248 13.6293 26.3094 13.6907C26.3708 13.7521 26.454 13.7865 26.5408 13.7865C26.6276 13.7865 26.7108 13.7521 26.7722 13.6907L27.4263 13.0366C27.4567 13.0062 27.4808 12.9701 27.4972 12.9304C27.5136 12.8907 27.5221 12.8482 27.5221 12.8052C27.5221 12.7622 27.5136 12.7197 27.4972 12.68C27.4808 12.6403 27.4567 12.6042 27.4263 12.5738C27.3959 12.5434 27.3598 12.5193 27.3201 12.5029C27.2804 12.4865 27.2379 12.478 27.1949 12.478C27.1519 12.478 27.1094 12.4865 27.0697 12.5029C27.03 12.5193 26.9939 12.5434 26.9635 12.5738ZM32.4276 7.89956C32.4706 7.89959 32.5131 7.89116 32.5528 7.87474C32.5925 7.85833 32.6286 7.83426 32.659 7.80389L33.3131 7.14981C33.3744 7.08844 33.4089 7.00521 33.4089 6.91842C33.4089 6.83164 33.3744 6.74841 33.3131 6.68704C33.2517 6.62567 33.1685 6.5912 33.0817 6.5912C32.9949 6.5912 32.9117 6.62567 32.8503 6.68704L32.1962 7.34113C32.1504 7.38687 32.1192 7.44516 32.1066 7.50864C32.0939 7.57211 32.1004 7.63791 32.1252 7.6977C32.15 7.75749 32.1919 7.80859 32.2458 7.84452C32.2996 7.88045 32.3629 7.89961 32.4276 7.89956ZM32.659 12.5738C32.5976 12.5125 32.5144 12.478 32.4276 12.478C32.3408 12.478 32.2576 12.5125 32.1962 12.5738C32.1348 12.6352 32.1004 12.7184 32.1004 12.8052C32.1004 12.892 32.1348 12.9752 32.1962 13.0366L32.8503 13.6907C32.8807 13.7211 32.9168 13.7452 32.9565 13.7616C32.9962 13.7781 33.0387 13.7865 33.0817 13.7865C33.1247 13.7865 33.1672 13.7781 33.2069 13.7616C33.2466 13.7452 33.2827 13.7211 33.3131 13.6907C33.3434 13.6603 33.3676 13.6242 33.384 13.5845C33.4004 13.5448 33.4089 13.5023 33.4089 13.4593C33.4089 13.4163 33.4004 13.3738 33.384 13.3341C33.3676 13.2944 33.3434 13.2583 33.3131 13.2279L32.659 12.5738ZM26.5408 10.1889C26.5408 10.1021 26.5063 10.0189 26.445 9.95761C26.3837 9.89628 26.3005 9.86182 26.2138 9.86182H25.2326C25.1459 9.86182 25.0627 9.89628 25.0014 9.95761C24.94 10.0189 24.9056 10.1021 24.9056 10.1889C24.9056 10.2756 24.94 10.3588 25.0014 10.4201C25.0627 10.4815 25.1459 10.5159 25.2326 10.5159H26.2138C26.3005 10.5159 26.3837 10.4815 26.445 10.4201C26.5063 10.3588 26.5408 10.2756 26.5408 10.1889ZM29.8112 13.4593C29.7245 13.4593 29.6413 13.4938 29.58 13.5551C29.5187 13.6164 29.4842 13.6996 29.4842 13.7863V14.7675C29.4842 14.8542 29.5187 14.9374 29.58 14.9987C29.6413 15.0601 29.7245 15.0945 29.8112 15.0945C29.898 15.0945 29.9812 15.0601 30.0425 14.9987C30.1038 14.9374 30.1383 14.8542 30.1383 14.7675V13.7863C30.1383 13.6996 30.1038 13.6164 30.0425 13.5551C29.9812 13.4938 29.898 13.4593 29.8112 13.4593ZM34.3899 9.86182H33.4087C33.322 9.86182 33.2388 9.89628 33.1775 9.95761C33.1161 10.0189 33.0817 10.1021 33.0817 10.1889C33.0817 10.2756 33.1161 10.3588 33.1775 10.4201C33.2388 10.4815 33.322 10.5159 33.4087 10.5159H34.3899C34.4766 10.5159 34.5598 10.4815 34.6211 10.4201C34.6824 10.3588 34.7169 10.2756 34.7169 10.1889C34.7169 10.1021 34.6824 10.0189 34.6211 9.95761C34.5598 9.89628 34.4766 9.86182 34.3899 9.86182Z" fill="#82BB3C"/>
</svg>
