<svg width="34" height="33" viewBox="0 0 34 33" fill="none" xmlns="http://www.w3.org/2000/svg">
<circle cx="16.592" cy="15.2753" r="11.3207" stroke="#2B7CB9" stroke-width="2.4"/>
<line x1="1.69629" y1="14.6716" x2="8.84622" y2="14.6716" stroke="#2B7CB9" stroke-width="2.4"/>
<line x1="24.3376" y1="14.6716" x2="31.4876" y2="14.6716" stroke="#2B7CB9" stroke-width="2.4"/>
<line x1="16.7989" y1="23.0215" x2="16.7989" y2="30.1714" stroke="#2B7CB9" stroke-width="2.4"/>
<path d="M17.0545 1.38197C16.9776 1.19406 16.7947 1.07129 16.5917 1.07129C16.3887 1.07129 16.2058 1.19406 16.1289 1.38197L10.7665 14.4902C10.6825 14.6954 10.7438 14.9314 10.9169 15.0699C11.0901 15.2085 11.3338 15.2164 11.5155 15.0894L16.5916 11.5442L21.6679 15.0894C21.8496 15.2164 22.0933 15.2085 22.2665 15.0699C22.4396 14.9314 22.5009 14.6954 22.4169 14.4902L17.0545 1.38197Z" fill="#F53C03" stroke="white" stroke-linejoin="round"/>
</svg>
