<svg width="33" height="33" viewBox="0 0 33 33" fill="none" xmlns="http://www.w3.org/2000/svg">
<path d="M30.25 16.5L27.5 17.875L26.125 19.25L24.75 17.875L23.375 22L22 17.875L20.625 28.875L19.25 17.875L17.875 20.625L16.5 17.875L15.125 23.375L13.75 17.875L12.375 30.25L11 17.875L9.625 26.125L8.25 17.875L6.875 19.25L5.5 17.875L2.75 16.5L5.5 15.125L6.875 13.75L8.25 15.125L9.625 6.875L11 15.125L12.375 2.75L13.75 15.125L15.125 9.625L16.5 15.125L17.875 12.375L19.25 15.125L20.625 4.125L22 15.125L23.375 11L24.75 15.125L26.125 13.75L27.5 15.125L30.25 16.5Z" fill="#038606"/>
</svg>
