<svg width="17" height="17" viewBox="0 0 17 17" fill="none" xmlns="http://www.w3.org/2000/svg">
<path d="M4.60413 5.74442C3.97371 5.74442 3.46371 5.23442 3.46371 4.604C3.46371 4.30155 3.58386 4.01148 3.79773 3.79761C4.0116 3.58374 4.30167 3.46359 4.60413 3.46359C5.23454 3.46359 5.74454 3.97359 5.74454 4.604C5.74454 4.90646 5.62439 5.19653 5.41052 5.4104C5.19665 5.62427 4.90658 5.74442 4.60413 5.74442ZM4.60413 1.4165C2.83329 1.4165 1.41663 2.83317 1.41663 4.604C1.41663 6.99109 4.60413 10.5257 4.60413 10.5257C4.60413 10.5257 7.79163 6.99109 7.79163 4.604C7.79163 2.83317 6.37496 1.4165 4.60413 1.4165ZM12.3958 5.74442C12.0933 5.74442 11.8033 5.62427 11.5894 5.4104C11.3755 5.19653 11.2554 4.90646 11.2554 4.604C11.2554 4.45424 11.2849 4.30595 11.3422 4.16759C11.3995 4.02922 11.4835 3.9035 11.5894 3.79761C11.6953 3.69171 11.821 3.60771 11.9594 3.5504C12.0977 3.49308 12.246 3.46359 12.3958 3.46359C12.5456 3.46359 12.6938 3.49308 12.8322 3.5504C12.9706 3.60771 13.0963 3.69171 13.2022 3.79761C13.3081 3.9035 13.3921 4.02922 13.4494 4.16759C13.5067 4.30595 13.5362 4.45424 13.5362 4.604C13.5362 4.90646 13.4161 5.19653 13.2022 5.4104C12.9883 5.62427 12.6982 5.74442 12.3958 5.74442ZM12.3958 1.4165C10.625 1.4165 9.20829 2.83317 9.20829 4.604C9.20829 6.99109 12.3958 10.5257 12.3958 10.5257C12.3958 10.5257 15.5833 6.99109 15.5833 4.604C15.5833 2.83317 14.1666 1.4165 12.3958 1.4165ZM12.3958 11.3332C11.4962 11.3332 10.6958 11.8998 10.3983 12.7498H6.60163C6.41393 12.2197 6.02374 11.7856 5.51655 11.5426C5.00936 11.2996 4.42654 11.2676 3.89579 11.4536C3.632 11.546 3.389 11.6895 3.18071 11.8759C2.97241 12.0623 2.8029 12.288 2.68186 12.5399C2.56081 12.7919 2.49061 13.0652 2.47528 13.3443C2.45994 13.6234 2.49976 13.9028 2.59246 14.1665C2.78269 14.698 3.17552 15.1327 3.68514 15.3756C4.19477 15.6184 4.7798 15.6498 5.31246 15.4628C5.91454 15.2503 6.37496 14.7686 6.60163 14.1665H10.4054C10.795 15.2715 12.0133 15.8523 13.1041 15.4628C13.3687 15.3713 13.6126 15.2284 13.8218 15.0424C14.0311 14.8563 14.2014 14.6308 14.3232 14.3787C14.445 14.1266 14.5157 13.8529 14.5314 13.5734C14.5471 13.2938 14.5074 13.014 14.4145 12.7498C14.11 11.8998 13.3025 11.3332 12.3958 11.3332ZM12.3958 14.5207C12.114 14.5207 11.8437 14.4087 11.6445 14.2095C11.4452 14.0102 11.3333 13.74 11.3333 13.4582C11.3333 13.1764 11.4452 12.9061 11.6445 12.7069C11.8437 12.5076 12.114 12.3957 12.3958 12.3957C12.6776 12.3957 12.9478 12.5076 13.1471 12.7069C13.3463 12.9061 13.4583 13.1764 13.4583 13.4582C13.4583 13.74 13.3463 14.0102 13.1471 14.2095C12.9478 14.4087 12.6776 14.5207 12.3958 14.5207Z" fill="#CA232B"/>
</svg>
