<svg width="45" height="29" viewBox="0 0 45 29" fill="none" xmlns="http://www.w3.org/2000/svg">
<rect width="45" height="29" rx="14.5" fill="#38C05C"/>
<path d="M22.6541 9.40779C22.6009 9.35697 22.5303 9.32861 22.4567 9.32861C22.3832 9.32861 22.3126 9.35697 22.2594 9.40779L15.6908 15.6828C15.6629 15.7095 15.6407 15.7416 15.6255 15.7771C15.6104 15.8126 15.6026 15.8508 15.6026 15.8894L15.6016 21.7787C15.6016 22.0815 15.7219 22.372 15.936 22.5861C16.1501 22.8002 16.4405 22.9205 16.7433 22.9205H20.1722C20.3236 22.9205 20.4688 22.8603 20.5758 22.7533C20.6829 22.6462 20.743 22.501 20.743 22.3496V17.4971C20.743 17.4214 20.7731 17.3488 20.8266 17.2953C20.8802 17.2418 20.9528 17.2117 21.0285 17.2117H23.8829C23.9586 17.2117 24.0312 17.2418 24.0847 17.2953C24.1382 17.3488 24.1683 17.4214 24.1683 17.4971V22.3496C24.1683 22.501 24.2285 22.6462 24.3355 22.7533C24.4426 22.8603 24.5878 22.9205 24.7392 22.9205H28.1666C28.4694 22.9205 28.7598 22.8002 28.974 22.5861C29.1881 22.372 29.3084 22.0815 29.3084 21.7787V15.8894C29.3084 15.8508 29.3006 15.8126 29.2855 15.7771C29.2703 15.7416 29.2481 15.7095 29.2202 15.6828L22.6541 9.40779Z" fill="white"/>
<path d="M30.8374 14.5055L28.1685 11.9523V8.07779C28.1685 7.92639 28.1083 7.78118 28.0013 7.67412C27.8942 7.56706 27.749 7.50691 27.5976 7.50691H25.885C25.7336 7.50691 25.5884 7.56706 25.4813 7.67412C25.3742 7.78118 25.3141 7.92639 25.3141 8.07779V9.21955L23.2475 7.2436C23.0541 7.04807 22.7665 6.93604 22.4558 6.93604C22.1461 6.93604 21.8592 7.04807 21.6658 7.24395L14.0767 14.5048C13.8548 14.7189 13.8269 15.0711 14.0289 15.303C14.0796 15.3615 14.1417 15.4091 14.2114 15.4429C14.2811 15.4767 14.3569 15.4959 14.4343 15.4995C14.5117 15.503 14.5889 15.4908 14.6614 15.4635C14.7339 15.4362 14.8001 15.3945 14.8559 15.3408L22.2595 8.26618C22.3127 8.21537 22.3833 8.18701 22.4568 8.18701C22.5304 8.18701 22.601 8.21537 22.6542 8.26618L30.0585 15.3408C30.1675 15.4454 30.3136 15.5025 30.4647 15.4995C30.6158 15.4966 30.7596 15.4339 30.8645 15.3251C31.0835 15.0982 31.0653 14.7235 30.8374 14.5055Z" fill="white"/>
<path fill-rule="evenodd" clip-rule="evenodd" d="M19.2051 8.40334L16.6696 10.8292C16.5548 10.7572 16.448 10.6723 16.3512 10.5755C16.0981 10.3224 15.9257 9.99988 15.8559 9.64877C15.786 9.29766 15.8219 8.93372 15.9589 8.60299C16.0959 8.27225 16.3278 7.98956 16.6255 7.79067C16.9232 7.59178 17.2731 7.48563 17.6311 7.48563C18.111 7.48615 18.5711 7.67702 18.9104 8.01635C19.0266 8.13254 19.1254 8.26289 19.2051 8.40334ZM17.4048 6.12811V6.80687C17.4048 6.86687 17.4287 6.92442 17.4711 6.96685C17.5135 7.00928 17.5711 7.03312 17.6311 7.03312C17.6911 7.03312 17.7487 7.00928 17.7911 6.96685C17.8335 6.92442 17.8574 6.86687 17.8574 6.80687V6.12811C17.8574 6.0681 17.8335 6.01055 17.7911 5.96812C17.7487 5.92569 17.6911 5.90186 17.6311 5.90186C17.5711 5.90186 17.5135 5.92569 17.4711 5.96812C17.4287 6.01055 17.4048 6.0681 17.4048 6.12811ZM15.8211 7.71201C15.761 7.71201 15.7035 7.68816 15.661 7.6457L15.2085 7.1932C15.166 7.15074 15.1422 7.09316 15.1422 7.03312C15.1422 6.97308 15.166 6.9155 15.2085 6.87305C15.251 6.83059 15.3085 6.80674 15.3686 6.80674C15.4286 6.80674 15.4862 6.83059 15.5286 6.87305L15.9812 7.32555C16.0236 7.36801 16.0475 7.42559 16.0475 7.48563C16.0475 7.54567 16.0236 7.60325 15.9812 7.6457C15.9387 7.68816 15.8811 7.71201 15.8211 7.71201ZM15.2085 11.3981L15.661 10.9456C15.682 10.9246 15.707 10.9079 15.7344 10.8965C15.7619 10.8852 15.7913 10.8793 15.8211 10.8793C15.8508 10.8793 15.8802 10.8852 15.9077 10.8965C15.9352 10.9079 15.9601 10.9246 15.9812 10.9456C16.0022 10.9666 16.0188 10.9916 16.0302 11.019C16.0416 11.0465 16.0475 11.0759 16.0475 11.1057C16.0475 11.1354 16.0416 11.1648 16.0302 11.1923C16.0188 11.2198 16.0022 11.2447 15.9812 11.2658L15.5286 11.7183C15.4862 11.7607 15.4286 11.7846 15.3686 11.7846C15.3085 11.7846 15.251 11.7607 15.2085 11.7183C15.166 11.6758 15.1422 11.6182 15.1422 11.5582C15.1422 11.4981 15.166 11.4406 15.2085 11.3981ZM19.5277 7.69472C19.5003 7.70607 19.4708 7.7119 19.4411 7.71188C19.3964 7.71192 19.3526 7.69867 19.3153 7.67381C19.2781 7.64895 19.2491 7.6136 19.2319 7.57223C19.2148 7.53087 19.2103 7.48535 19.2191 7.44144C19.2278 7.39753 19.2494 7.3572 19.2811 7.32555L19.7336 6.87305C19.776 6.83059 19.8336 6.80674 19.8936 6.80674C19.9537 6.80674 20.0113 6.83059 20.0537 6.87305C20.0962 6.9155 20.12 6.97308 20.12 7.03312C20.12 7.09316 20.0962 7.15074 20.0537 7.1932L19.6012 7.6457C19.5802 7.66671 19.5552 7.68336 19.5277 7.69472ZM15.3023 9.13567C15.3447 9.1781 15.3686 9.23565 15.3686 9.29565C15.3686 9.35566 15.3447 9.41321 15.3023 9.45564C15.2599 9.49807 15.2023 9.52191 15.1423 9.52191H14.4636C14.4036 9.52191 14.346 9.49807 14.3036 9.45564C14.2611 9.41321 14.2373 9.35566 14.2373 9.29565C14.2373 9.23565 14.2611 9.1781 14.3036 9.13567C14.346 9.09324 14.4036 9.0694 14.4636 9.0694H15.1423C15.2023 9.0694 15.2599 9.09324 15.3023 9.13567Z" fill="white"/>
</svg>
