<svg width="34" height="33" viewBox="0 0 34 33" fill="none" xmlns="http://www.w3.org/2000/svg">
<path fill-rule="evenodd" clip-rule="evenodd" d="M12.2636 21.3614C13.553 22.6507 15.3016 23.375 17.125 23.375C18.9484 23.375 20.697 22.6507 21.9864 21.3614C23.2757 20.072 24 18.3234 24 16.5C24 14.6766 23.2757 12.928 21.9864 11.6386C20.697 10.3493 18.9484 9.625 17.125 9.625C15.3016 9.625 13.553 10.3493 12.2636 11.6386C10.9743 12.928 10.25 14.6766 10.25 16.5C10.25 18.3234 10.9743 20.072 12.2636 21.3614ZM2 16.5C4.37875 10.4638 10.25 6.1875 17.125 6.1875C24 6.1875 29.8713 10.4638 32.25 16.5C29.8713 22.5362 24 26.8125 17.125 26.8125C10.25 26.8125 4.37875 22.5362 2 16.5Z" fill="#2B7CB9"/>
<path d="M17.125 12.375C16.031 12.375 14.9818 12.8096 14.2082 13.5832C13.4346 14.3568 13 15.406 13 16.5C13 17.594 13.4346 18.6432 14.2082 19.4168C14.9818 20.1904 16.031 20.625 17.125 20.625C18.219 20.625 19.2682 20.1904 20.0418 19.4168C20.8154 18.6432 21.25 17.594 21.25 16.5C21.25 15.406 20.8154 14.3568 20.0418 13.5832C19.2682 12.8096 18.219 12.375 17.125 12.375Z" fill="#82BB3C"/>
</svg>
