<svg width="45" height="29" viewBox="0 0 45 29" fill="none" xmlns="http://www.w3.org/2000/svg">
<rect width="45" height="29" rx="14.5" fill="#38C05C"/>
<path fill-rule="evenodd" clip-rule="evenodd" d="M28.0472 12.7169C29.4695 12.7169 30.6226 11.5638 30.6226 10.1414C30.6226 8.719 29.4695 7.56592 28.0472 7.56592C26.6248 7.56592 25.4717 8.719 25.4717 10.1414C25.4717 11.5638 26.6248 12.7169 28.0472 12.7169ZM26.522 10.2298L27.2739 10.9944L29.4005 8.83163C29.4202 8.81139 29.4436 8.79532 29.4694 8.78435C29.4952 8.77339 29.5229 8.76774 29.5509 8.76774C29.5789 8.76774 29.6066 8.77339 29.6324 8.78435C29.6582 8.79532 29.6816 8.81139 29.7013 8.83163C29.7212 8.85162 29.737 8.87544 29.7478 8.90169C29.7585 8.92794 29.7641 8.9561 29.7641 8.98455C29.7641 9.013 29.7585 9.04117 29.7478 9.06742C29.737 9.09367 29.7212 9.11748 29.7013 9.13748L27.4242 11.451C27.3404 11.5362 27.2051 11.5362 27.1213 11.451L26.2213 10.5356C26.2014 10.5157 26.1856 10.4918 26.1748 10.4656C26.164 10.4393 26.1584 10.4112 26.1584 10.3827C26.1584 10.3543 26.164 10.3261 26.1748 10.2999C26.1856 10.2736 26.2014 10.2498 26.2213 10.2298C26.2409 10.2096 26.2643 10.1935 26.2901 10.1825C26.316 10.1716 26.3437 10.1659 26.3716 10.1659C26.3996 10.1659 26.4273 10.1716 26.4531 10.1825C26.4789 10.1935 26.5023 10.2096 26.522 10.2298Z" fill="white"/>
<path d="M17.2267 18.7075C16.9887 18.7075 16.8301 18.863 16.8301 19.0964C16.8301 19.3297 16.9887 19.4852 17.2267 19.4852H21.3801C21.6181 19.4852 21.7768 19.3297 21.7768 19.0964C21.7768 18.863 21.6181 18.7075 21.3801 18.7075H17.2267Z" fill="white"/>
<path d="M15.7334 20.6519C15.7334 20.8852 15.8921 21.0408 16.1301 21.0408H24.1568C25.0294 21.0408 25.7434 20.3408 25.7434 19.4852C25.7434 18.6297 25.0294 17.9297 24.1568 17.9297C23.7204 17.9297 23.3238 18.1241 23.0461 18.3964C22.8874 18.5519 22.8874 18.7852 23.0461 18.9408C23.2048 19.0964 23.4428 19.0964 23.6014 18.9408C23.7204 18.7852 23.9188 18.7075 24.1568 18.7075C24.5931 18.7075 24.9501 19.0575 24.9501 19.4852C24.9501 19.913 24.5931 20.263 24.1568 20.263H16.1301C15.8921 20.263 15.7334 20.4186 15.7334 20.6519Z" fill="white"/>
<path d="M27.3301 21.4297C27.3301 21.663 27.1714 21.8186 26.9334 21.8186H20.1901C19.9521 21.8186 19.7934 21.9741 19.7934 22.2075C19.7934 22.4408 19.9521 22.5964 20.1901 22.5964H26.9334C27.6078 22.5964 28.1234 22.0908 28.1234 21.4297C28.1234 20.7686 27.6078 20.263 26.9334 20.263C26.6161 20.263 26.2988 20.3797 26.1004 20.613C25.9418 20.7686 25.9418 21.0019 26.1004 21.1575C26.2591 21.313 26.4971 21.313 26.6558 21.1575C26.7351 21.0797 26.8144 21.0408 26.9334 21.0408C27.1714 21.0408 27.3301 21.1964 27.3301 21.4297Z" fill="white"/>
<path fill-rule="evenodd" clip-rule="evenodd" d="M29.4201 13.2178C29.0007 13.4053 28.536 13.5095 28.0469 13.5095C26.1869 13.5095 24.679 12.0017 24.679 10.1416C24.679 9.61951 24.7978 9.12515 25.0099 8.6841C24.2736 8.09402 23.2768 7.7334 22.033 7.7334C19.3215 7.7334 17.7859 9.43315 17.5604 11.5162H17.4922C15.7476 11.5162 14.333 12.8632 14.333 14.5248C14.333 16.1864 15.7476 17.5334 17.4922 17.5334H26.5738C28.3184 17.5334 29.733 16.1864 29.733 14.5248C29.733 14.0564 29.6206 13.6131 29.4201 13.2178Z" fill="white"/>
</svg>
