<svg width="54" height="53" viewBox="0 0 54 53" fill="none" xmlns="http://www.w3.org/2000/svg">
<path d="M41.4899 12.0105C38.2986 8.81584 34.1417 6.76454 29.6648 6.17528C25.1879 5.58602 20.6417 6.49179 16.7325 8.75187M7.10003 21.6224C6.33168 24.7521 6.31218 28.0188 7.04311 31.1574C7.77404 34.296 9.23481 37.218 11.3068 39.6861C13.3788 42.1543 16.0036 44.0991 18.9682 45.3625C21.9328 46.626 25.1535 47.1726 28.3689 46.9579C31.5843 46.7432 34.7038 45.7733 37.4741 44.1269C40.2443 42.4805 42.5873 40.204 44.3128 37.4823C46.0382 34.7605 47.0976 31.6703 47.4047 28.4624C47.7119 25.2545 47.2583 22.0193 46.0806 19.0196" stroke="#2B7CB9" stroke-width="3.8" stroke-linecap="round" stroke-linejoin="round"/>
<path d="M35.69 17.8105C34.5105 16.6242 33.1015 15.691 31.5489 15.0681C29.9964 14.4451 28.3331 14.1455 26.6608 14.1875C24.9885 14.2295 23.3424 14.6123 21.8231 15.3124C20.3038 16.0126 18.9434 17.0153 17.825 18.2593C16.7067 19.5034 15.8539 20.9625 15.3188 22.5475C14.7838 24.1325 14.5778 25.8099 14.7135 27.4773C14.8491 29.1446 15.3235 30.7667 16.1076 32.2444C16.8917 33.722 17.9691 35.0242 19.2739 36.0711M39.2765 25.8034C39.388 27.7531 39.0335 29.7015 38.2423 31.487C37.4511 33.2725 36.246 34.8439 34.7267 36.0711" stroke="#2B7CB9" stroke-width="3.8" stroke-linecap="round" stroke-linejoin="round"/>
<path d="M27.0006 30.6C29.2646 30.6 31.0999 28.7646 31.0999 26.5007C31.0999 24.2367 29.2646 22.4014 27.0006 22.4014C24.7366 22.4014 22.9013 24.2367 22.9013 26.5007C22.9013 28.7646 24.7366 30.6 27.0006 30.6Z" stroke="#82BB3C" stroke-width="3.8" stroke-linecap="round" stroke-linejoin="round"/>
<path d="M29.89 23.6106L41.4899 12.0107" stroke="#82BB3C" stroke-width="3.8" stroke-linecap="round" stroke-linejoin="round"/>
<path d="M10.6046 14.2036H10.6251" stroke="#82BB3C" stroke-width="3.8" stroke-linecap="round" stroke-linejoin="round"/>
<path d="M27.0002 38.7969H27.0207" stroke="#82BB3C" stroke-width="3.8" stroke-linecap="round" stroke-linejoin="round"/>
</svg>
