<svg width="25" height="26" viewBox="0 0 25 26" fill="none" xmlns="http://www.w3.org/2000/svg">
<path d="M13.6319 3C13.9406 3 14.2167 3.183 14.3207 3.457L15.0619 5.41397C15.3276 5.47697 15.5554 5.53997 15.7486 5.60597C15.9597 5.67797 16.2316 5.78697 16.5676 5.93597L18.2937 5.06598C18.4346 4.99488 18.5959 4.96922 18.7534 4.99284C18.9109 5.01646 19.0562 5.08809 19.1673 5.19698L20.6855 6.69196C20.8871 6.89095 20.9438 7.18195 20.8304 7.43595L20.0209 9.24293C20.1553 9.47792 20.2624 9.67892 20.3443 9.84692C20.4325 10.0299 20.5417 10.2819 20.6719 10.6069L22.5587 11.3769C22.8422 11.4919 23.0175 11.7619 22.9986 12.0509L22.86 14.1259C22.8505 14.2607 22.7997 14.3899 22.7139 14.4974C22.628 14.605 22.5109 14.6861 22.377 14.7309L20.59 15.3359C20.5385 15.5709 20.485 15.7718 20.4283 15.9418C20.3368 16.2044 20.2324 16.4627 20.1154 16.7158L21.0131 18.6058C21.0765 18.7386 21.0935 18.8872 21.0618 19.0299C21.0301 19.1726 20.9512 19.3019 20.8367 19.3988L19.1295 20.8508C19.0171 20.946 18.8768 21.0062 18.7274 21.0234C18.578 21.0405 18.4267 21.0138 18.2937 20.9468L16.534 20.0588C16.2587 20.1976 15.9746 20.3202 15.6835 20.4258L14.9149 20.6998L14.2325 22.4998C14.1819 22.6316 14.0907 22.7458 13.9707 22.8273C13.8508 22.9089 13.7078 22.954 13.5605 22.9568L11.5656 22.9998C11.4143 23.0035 11.2656 22.9626 11.1398 22.8825C11.014 22.8025 10.9173 22.6873 10.8631 22.5528L10.0589 20.5258C9.78445 20.4365 9.51275 20.3398 9.24409 20.2358C9.02434 20.1452 8.80792 20.0475 8.59521 19.9428L6.60028 20.7548C6.46883 20.8082 6.32391 20.8241 6.18317 20.8004C6.04243 20.7768 5.91193 20.7148 5.80755 20.6218L4.33131 19.3028C4.2214 19.205 4.14654 19.0768 4.11734 18.9363C4.08813 18.7958 4.10605 18.6501 4.16856 18.5198L5.02638 16.7398C4.9123 16.529 4.80653 16.3142 4.70929 16.0958C4.59579 15.8286 4.49075 15.5581 4.3943 15.2849L2.51487 14.7399C2.3621 14.6959 2.22885 14.6051 2.13582 14.4816C2.04279 14.3581 1.99518 14.2088 2.00039 14.0569L2.07388 12.1359C2.07911 12.0106 2.12023 11.889 2.19277 11.7843C2.26531 11.6796 2.36653 11.5958 2.48547 11.5419L4.4573 10.6399C4.54865 10.3209 4.62844 10.0729 4.69879 9.89192C4.79785 9.65017 4.90785 9.41261 5.02848 9.17993L4.17381 7.45995C4.10895 7.32933 4.08925 7.18249 4.11755 7.04054C4.14585 6.89859 4.22069 6.76884 4.33131 6.66996L5.80545 5.34397C5.90879 5.25115 6.03809 5.18874 6.1778 5.16426C6.31751 5.13977 6.46166 5.15426 6.59293 5.20598L8.58576 5.98997C8.80625 5.84997 9.00574 5.73697 9.18634 5.64597C9.40158 5.53697 9.68927 5.42297 10.0515 5.29997L10.7445 3.459C10.7957 3.32427 10.8894 3.20788 11.0126 3.12573C11.1359 3.04358 11.2828 2.99967 11.4333 3H13.6319ZM12.5252 10.0189C10.7749 10.0189 9.35643 11.3539 9.35643 13.0019C9.35643 14.6499 10.7749 15.9858 12.5252 15.9858C14.2745 15.9858 15.693 14.6499 15.693 13.0019C15.693 11.3539 14.2755 10.0189 12.5252 10.0189Z" fill="white"/>
</svg>
