<svg width="45" height="29" viewBox="0 0 45 29" fill="none" xmlns="http://www.w3.org/2000/svg">
<path fill-rule="evenodd" clip-rule="evenodd" d="M28.5111 11.8258C30.1198 11.8258 31.424 10.5217 31.424 8.91291C31.424 7.30415 30.1198 6 28.5111 6C26.9023 6 25.5981 7.30415 25.5981 8.91291C25.5981 10.5217 26.9023 11.8258 28.5111 11.8258ZM26.786 9.01307L27.6364 9.87787L30.0417 7.43171C30.0639 7.40882 30.0904 7.39065 30.1196 7.37824C30.1488 7.36584 30.1801 7.35945 30.2117 7.35945C30.2434 7.35945 30.2747 7.36584 30.3039 7.37824C30.3331 7.39065 30.3596 7.40882 30.3818 7.43171C30.4043 7.45432 30.4222 7.48126 30.4344 7.51095C30.4466 7.54064 30.4529 7.57249 30.4529 7.60467C30.4529 7.63685 30.4466 7.6687 30.4344 7.6984C30.4222 7.72809 30.4043 7.75502 30.3818 7.77763L27.8064 10.3943C27.7117 10.4906 27.5586 10.4906 27.4639 10.3943L26.4458 9.35899C26.4233 9.33638 26.4055 9.30944 26.3933 9.27975C26.3811 9.25006 26.3748 9.2182 26.3748 9.18603C26.3748 9.15385 26.3811 9.12199 26.3933 9.0923C26.4055 9.06261 26.4233 9.03568 26.4458 9.01307C26.4681 8.99018 26.4946 8.972 26.5238 8.9596C26.553 8.9472 26.5843 8.94081 26.6159 8.94081C26.6476 8.94081 26.6789 8.9472 26.7081 8.9596C26.7373 8.972 26.7638 8.99018 26.786 9.01307Z" fill="#2B7CB9"/>
<path d="M16.273 18.6019C16.0038 18.6019 15.8243 18.7778 15.8243 19.0417C15.8243 19.3056 16.0038 19.4815 16.273 19.4815H20.9705C21.2397 19.4815 21.4192 19.3056 21.4192 19.0417C21.4192 18.7778 21.2397 18.6019 20.9705 18.6019H16.273Z" fill="#2B7CB9"/>
<path d="M14.584 20.8011C14.584 21.065 14.7634 21.2409 15.0326 21.2409H24.111C25.098 21.2409 25.9055 20.4492 25.9055 19.4815C25.9055 18.5139 25.098 17.7222 24.111 17.7222C23.6175 17.7222 23.1688 17.9421 22.8548 18.25C22.6753 18.4259 22.6753 18.6898 22.8548 18.8658C23.0343 19.0417 23.3034 19.0417 23.4829 18.8658C23.6175 18.6898 23.8418 18.6019 24.111 18.6019C24.6045 18.6019 25.0083 18.9977 25.0083 19.4815C25.0083 19.9654 24.6045 20.3612 24.111 20.3612H15.0326C14.7634 20.3612 14.584 20.5372 14.584 20.8011Z" fill="#2B7CB9"/>
<path d="M27.7001 21.6807C27.7001 21.9446 27.5206 22.1206 27.2515 22.1206H19.6246C19.3554 22.1206 19.176 22.2965 19.176 22.5604C19.176 22.8243 19.3554 23.0003 19.6246 23.0003H27.2515C28.0141 23.0003 28.5974 22.4285 28.5974 21.6807C28.5974 20.933 28.0141 20.3612 27.2515 20.3612C26.8925 20.3612 26.5336 20.4932 26.3093 20.7571C26.1299 20.933 26.1299 21.1969 26.3093 21.3728C26.4888 21.5488 26.7579 21.5488 26.9374 21.3728C27.0271 21.2849 27.1169 21.2409 27.2515 21.2409C27.5206 21.2409 27.7001 21.4168 27.7001 21.6807Z" fill="#2B7CB9"/>
<path fill-rule="evenodd" clip-rule="evenodd" d="M30.0638 12.3925C29.5895 12.6045 29.0639 12.7224 28.5107 12.7224C26.407 12.7224 24.7015 11.017 24.7015 8.91325C24.7015 8.32272 24.8359 7.76358 25.0758 7.26474C24.243 6.59733 23.1156 6.18945 21.7089 6.18945C18.6421 6.18945 16.9053 8.11191 16.6503 10.4679H16.5731C14.5999 10.4679 13 11.9913 13 13.8707C13 15.75 14.5999 17.2734 16.5731 17.2734H26.8446C28.8178 17.2734 30.4177 15.75 30.4177 13.8707C30.4177 13.3409 30.2906 12.8395 30.0638 12.3925Z" fill="#2B7CB9"/>
</svg>
