<svg width="34" height="33" viewBox="0 0 34 33" fill="none" xmlns="http://www.w3.org/2000/svg">
<path d="M3.0835 15.7436V13.0623C3.74808 13.0623 4.3155 12.9592 4.78575 12.7529C5.256 12.5467 5.73129 12.3235 6.21162 12.0833C6.69287 11.8422 7.22591 11.6245 7.81075 11.4302C8.39558 11.2358 9.1115 11.1382 9.9585 11.1373C10.8293 11.1373 11.5457 11.2349 12.1076 11.4302C12.6695 11.6254 13.1907 11.8427 13.671 12.0819C14.1522 12.323 14.6335 12.5467 15.1147 12.7529C15.596 12.9592 16.1689 13.0623 16.8335 13.0623C17.4981 13.0623 18.071 12.9592 18.5522 12.7529C19.0335 12.5467 19.5147 12.323 19.996 12.0819C20.4772 11.8418 21.0043 11.6241 21.5772 11.4288C22.1502 11.2336 22.8606 11.1364 23.7085 11.1373C24.5793 11.1373 25.3012 11.2349 25.8741 11.4302C26.447 11.6254 26.9741 11.8427 27.4554 12.0819C27.9366 12.323 28.4179 12.5467 28.8991 12.7529C29.3804 12.9592 29.9418 13.0623 30.5835 13.0623V15.7436C29.7127 15.7436 28.9848 15.6404 28.4 15.4342C27.8152 15.2279 27.2826 15.0047 26.8022 14.7646C26.321 14.5235 25.8512 14.3058 25.3929 14.1114C24.9345 13.9171 24.3731 13.8195 23.7085 13.8186C23.0668 13.8186 22.5109 13.9162 22.0406 14.1114C21.5704 14.3067 21.1006 14.5244 20.6312 14.7646C20.1619 15.0047 19.6348 15.2279 19.05 15.4342C18.4652 15.6404 17.7263 15.7436 16.8335 15.7436C15.9397 15.7436 15.2005 15.6404 14.6156 15.4342C14.0308 15.2279 13.5037 15.0047 13.0344 14.7646C12.565 14.5235 12.1012 14.3058 11.6429 14.1114C11.1845 13.9171 10.6231 13.8195 9.9585 13.8186C9.31683 13.8186 8.76087 13.9162 8.29062 14.1114C7.82037 14.3067 7.34508 14.5244 6.86475 14.7646C6.3835 15.0047 5.85091 15.2279 5.267 15.4342C4.68308 15.6404 3.95525 15.7436 3.0835 15.7436Z" fill="#82BB3C"/>
<path fill-rule="evenodd" clip-rule="evenodd" d="M3.0835 21.8623V19.1811C3.74808 19.1811 4.3155 19.0779 4.78575 18.8717C5.256 18.6654 5.73129 18.4422 6.21162 18.2021C6.69287 17.961 7.22591 17.7433 7.81075 17.5489C8.39558 17.3546 9.1115 17.257 9.9585 17.2561C10.8293 17.2561 11.5457 17.3537 12.1076 17.5489C12.6695 17.7442 13.1907 17.9619 13.671 18.2021C14.1522 18.4422 14.6335 18.6654 15.1147 18.8717C15.596 19.0779 16.1689 19.1811 16.8335 19.1811C17.4981 19.1811 18.071 19.0779 18.5522 18.8717C19.0335 18.6654 19.5147 18.4422 19.996 18.2021C20.4772 17.961 21.0043 17.7433 21.5772 17.5489C22.1502 17.3546 22.8606 17.257 23.7085 17.2561C24.5793 17.2561 25.3012 17.3537 25.8741 17.5489C26.447 17.7442 26.9741 17.9619 27.4554 18.2021C27.9366 18.4422 28.4179 18.6654 28.8991 18.8717C29.3804 19.0779 29.9418 19.1811 30.5835 19.1811V21.8623C29.7127 21.8623 28.9848 21.7592 28.4 21.5529C27.8152 21.3467 27.2826 21.123 26.8022 20.8819C26.321 20.6418 25.8512 20.4245 25.3929 20.2302C24.9345 20.0358 24.3731 19.9382 23.7085 19.9373C23.0439 19.9373 22.4765 20.0349 22.0062 20.2302C21.536 20.4254 21.0662 20.6431 20.5969 20.8833C20.1275 21.1235 19.6064 21.3467 19.0335 21.5529C18.4606 21.7592 17.7272 21.8623 16.8335 21.8623C15.9397 21.8623 15.2009 21.7592 14.617 21.5529C14.0331 21.3467 13.506 21.123 13.0357 20.8819C12.5655 20.6418 12.1012 20.4245 11.6429 20.2302C11.1845 20.0358 10.6231 19.9382 9.9585 19.9373C9.31683 19.9373 8.76087 20.0349 8.29062 20.2302C7.82037 20.4254 7.34508 20.6431 6.86475 20.8833C6.3835 21.1235 5.85091 21.3467 5.267 21.5529C4.68308 21.7592 3.95525 21.8623 3.0835 21.8623ZM3.0835 9.6248V6.94355C3.74808 6.94355 4.3155 6.84043 4.78575 6.63418C5.256 6.42793 5.73129 6.20472 6.21162 5.96455C6.69287 5.72347 7.22591 5.50576 7.81075 5.31143C8.39558 5.1171 9.1115 5.01947 9.9585 5.01855C10.8293 5.01855 11.5457 5.11618 12.1076 5.31143C12.6695 5.50668 13.1907 5.72439 13.671 5.96455C14.1522 6.20472 14.6335 6.42793 15.1147 6.63418C15.596 6.84043 16.1689 6.94355 16.8335 6.94355C17.4981 6.94355 18.071 6.84043 18.5522 6.63418C19.0335 6.42793 19.5147 6.20426 19.996 5.96318C20.4772 5.72301 21.0043 5.50576 21.5772 5.31143C22.1502 5.1171 22.8606 5.01947 23.7085 5.01855C24.5793 5.01855 25.3012 5.11618 25.8741 5.31143C26.447 5.50668 26.9741 5.72439 27.4554 5.96455C27.9366 6.20472 28.4179 6.42793 28.8991 6.63418C29.3804 6.84043 29.9418 6.94355 30.5835 6.94355V9.6248C29.7127 9.6248 28.9848 9.52168 28.4 9.31543C27.8152 9.10918 27.2826 8.88597 26.8022 8.6458C26.321 8.40472 25.8512 8.18701 25.3929 7.99268C24.9345 7.79835 24.3731 7.70072 23.7085 7.6998C23.0668 7.6998 22.5109 7.79743 22.0406 7.99268C21.5704 8.18793 21.1006 8.40564 20.6312 8.6458C20.1619 8.88597 19.6348 9.10918 19.05 9.31543C18.4652 9.52168 17.7263 9.6248 16.8335 9.6248C15.9397 9.6248 15.2005 9.52168 14.6156 9.31543C14.0308 9.10918 13.5037 8.88551 13.0344 8.64443C12.565 8.40426 12.1012 8.18701 11.6429 7.99268C11.1845 7.79835 10.6231 7.70072 9.9585 7.6998C9.31683 7.6998 8.76087 7.79743 8.29062 7.99268C7.82037 8.18793 7.34508 8.40564 6.86475 8.6458C6.3835 8.88597 5.85091 9.10918 5.267 9.31543C4.68308 9.52168 3.95525 9.6248 3.0835 9.6248Z" fill="#2B7CB9"/>
<path d="M3.0835 27.9811V25.2998C3.74808 25.2998 4.3155 25.1967 4.78575 24.9904C5.256 24.7842 5.73129 24.5605 6.21162 24.3194C6.69287 24.0793 7.22591 23.8616 7.81075 23.6663C8.39558 23.4711 9.1115 23.3739 9.9585 23.3748C10.8293 23.3748 11.5457 23.4724 12.1076 23.6677C12.6695 23.8629 13.1907 24.0802 13.671 24.3194C14.1522 24.5605 14.6335 24.7842 15.1147 24.9904C15.596 25.1967 16.1689 25.2998 16.8335 25.2998C17.4981 25.2998 18.071 25.1967 18.5522 24.9904C19.0335 24.7842 19.5147 24.5605 19.996 24.3194C20.4772 24.0793 21.0043 23.8616 21.5772 23.6663C22.1502 23.4711 22.8606 23.3739 23.7085 23.3748C24.5793 23.3748 25.3012 23.4724 25.8741 23.6677C26.447 23.8629 26.9741 24.0802 27.4554 24.3194C27.9366 24.5605 28.4179 24.7842 28.8991 24.9904C29.3804 25.1967 29.9418 25.2998 30.5835 25.2998V27.9811C29.7127 27.9811 28.9848 27.8779 28.4 27.6717C27.8152 27.4654 27.2826 27.2422 26.8022 27.0021C26.321 26.761 25.8512 26.5433 25.3929 26.3489C24.9345 26.1546 24.3731 26.057 23.7085 26.0561C23.0668 26.0561 22.5109 26.1537 22.0406 26.3489C21.5704 26.5442 21.1006 26.7619 20.6312 27.0021C20.1619 27.2422 19.6348 27.4654 19.05 27.6717C18.4652 27.8779 17.7263 27.9811 16.8335 27.9811C15.9397 27.9811 15.2005 27.8779 14.6156 27.6717C14.0308 27.4654 13.5037 27.2418 13.0344 27.0007C12.565 26.7605 12.1012 26.5433 11.6429 26.3489C11.1845 26.1546 10.6231 26.057 9.9585 26.0561C9.31683 26.0561 8.76087 26.1537 8.29062 26.3489C7.82037 26.5442 7.34508 26.7619 6.86475 27.0021C6.3835 27.2422 5.85091 27.4654 5.267 27.6717C4.68308 27.8779 3.95525 27.9811 3.0835 27.9811Z" fill="#2B7CB9"/>
</svg>
