<svg width="32" height="32" viewBox="0 0 32 32" fill="none" xmlns="http://www.w3.org/2000/svg">
<path fill-rule="evenodd" clip-rule="evenodd" d="M22 6C21.5584 5.99998 21.1223 6.09746 20.7227 6.28547C20.3231 6.47348 19.9699 6.74738 19.6884 7.08763C19.4069 7.42788 19.204 7.82607 19.0942 8.2538C18.9843 8.68152 18.9703 9.12822 19.053 9.562L11.939 13.712C11.5024 13.3421 10.969 13.1048 10.4019 13.0281C9.83482 12.9514 9.25761 13.0385 8.73839 13.2791C8.21916 13.5197 7.7796 13.9038 7.47155 14.3861C7.1635 14.8684 6.99982 15.4287 6.99982 16.001C6.99982 16.5733 7.1635 17.1336 7.47155 17.6159C7.7796 18.0982 8.21916 18.4823 8.73839 18.7229C9.25761 18.9635 9.83482 19.0506 10.4019 18.9739C10.969 18.8972 11.5024 18.6599 11.939 18.29L19.053 22.438C18.9204 23.1332 19.0377 23.8528 19.3844 24.4698C19.7311 25.0868 20.2847 25.5614 20.9474 25.8096C21.6101 26.0579 22.3393 26.0639 23.006 25.8265C23.6727 25.5892 24.2341 25.1238 24.5908 24.5126C24.9475 23.9014 25.0767 23.1837 24.9555 22.4865C24.8343 21.7892 24.4705 21.1573 23.9284 20.7023C23.3863 20.2474 22.7008 19.9987 21.9931 20.0003C21.2854 20.0019 20.6011 20.2536 20.061 20.711L12.947 16.561C13.0174 16.19 13.0174 15.809 12.947 15.438L20.061 11.288C20.4294 11.6004 20.8677 11.8192 21.3388 11.9259C21.8099 12.0326 22.2998 12.0239 22.7668 11.9007C23.2338 11.7775 23.6642 11.5433 24.0213 11.2181C24.3784 10.8929 24.6517 10.4863 24.818 10.0328C24.9843 9.57931 25.0386 9.09239 24.9764 8.61341C24.9141 8.13443 24.7372 7.67757 24.4605 7.28164C24.1838 6.88572 23.8157 6.56245 23.3873 6.33932C22.9589 6.11618 22.483 5.99978 22 6Z" fill="#898E88"/>
</svg>
