<svg width="40" height="40" viewBox="0 0 40 40" fill="none" xmlns="http://www.w3.org/2000/svg">
<path d="M17.6424 6.31702C18.1192 6.53162 18.5401 6.81114 18.8963 7.13834C16.3654 7.62054 14.5441 9.16914 13.8073 11.3192L13.7139 11.6159L13.6478 11.8636L13.4094 11.9034C12.7722 12.0244 12.1639 12.2506 11.6139 12.571C11.0587 11.7734 10.8015 10.8303 10.8815 9.88536C10.9616 8.94043 11.3744 8.04555 12.0571 7.33711C12.7398 6.62868 13.655 6.14556 14.6631 5.96139C15.6712 5.77722 16.7169 5.90211 17.6409 6.31702H17.6424Z" fill="#82BB3C"/>
<path d="M19.1793 3.39601C19.3305 3.46406 19.451 3.57892 19.5198 3.72055C19.5886 3.86219 19.6013 4.0216 19.5556 4.17097L19.5097 4.28224L18.9768 5.29168C18.8983 5.44049 18.7623 5.55684 18.5956 5.61783C18.4288 5.67881 18.2433 5.68002 18.0756 5.62121C17.9079 5.56241 17.7701 5.44784 17.6894 5.30007C17.6087 5.15229 17.5909 4.98201 17.6395 4.82273L17.6855 4.71013L18.2184 3.70069C18.2597 3.6223 18.3175 3.55221 18.3883 3.49444C18.4591 3.43668 18.5415 3.39237 18.6309 3.36406C18.7204 3.33575 18.8149 3.324 18.9093 3.32949C19.0036 3.33497 19.0959 3.35757 19.1807 3.39601H19.1793Z" fill="#82BB3C"/>
<path d="M13.7354 3.35362L13.7886 3.46224L14.185 4.52467C14.2433 4.68106 14.236 4.8519 14.1647 5.0036C14.0933 5.1553 13.963 5.27689 13.7993 5.34447C13.6357 5.41205 13.4505 5.42073 13.2803 5.36879C13.1101 5.31686 12.967 5.20808 12.8794 5.06383L12.8262 4.9552L12.4312 3.8941C12.3738 3.73808 12.3816 3.56794 12.4529 3.4169C12.5243 3.26586 12.6541 3.14476 12.817 3.07723C12.9799 3.00971 13.1643 3.00061 13.3341 3.05172C13.504 3.10282 13.647 3.21046 13.7354 3.35362Z" fill="#82BB3C"/>
<path d="M9.01982 6.54222L9.13904 6.58461L10.2336 7.07608C10.3949 7.14842 10.5211 7.27384 10.5872 7.42765C10.6533 7.58147 10.6546 7.75254 10.5909 7.9072C10.5271 8.06186 10.4029 8.1889 10.2427 8.26334C10.0824 8.33777 9.89779 8.3542 9.72508 8.3094L9.60299 8.26701L8.50991 7.77553C8.34856 7.70319 8.2224 7.57778 8.15628 7.42396C8.09015 7.27015 8.08884 7.09908 8.15261 6.94442C8.21637 6.78976 8.34059 6.66271 8.50082 6.58828C8.66105 6.51384 8.84568 6.49741 9.01839 6.54222H9.01982Z" fill="#82BB3C"/>
<path d="M10.2925 11.8808C10.3477 12.0277 10.3451 12.1878 10.2852 12.3331C10.2254 12.4784 10.112 12.5997 9.96496 12.6757L9.84717 12.7234L8.69664 13.089C8.52685 13.1438 8.34095 13.1378 8.17569 13.0723C8.01044 13.0067 7.87788 12.8864 7.80422 12.735C7.73055 12.5837 7.72116 12.4123 7.7779 12.2549C7.83463 12.0975 7.95336 11.9654 8.1106 11.8848L8.22838 11.8371L9.38035 11.4715C9.56036 11.4145 9.75752 11.4258 9.92853 11.5028C10.0995 11.5798 10.2304 11.7162 10.2925 11.8822V11.8808Z" fill="#82BB3C"/>
<path d="M20.63 8.3041C24.1693 8.3041 26.1787 10.3879 26.4703 12.9062H26.5594C28.8375 12.9062 30.6846 14.5449 30.6846 16.5664C30.6846 18.5879 28.8375 20.2266 26.5594 20.2266H14.7007C12.4226 20.2266 10.5754 18.5879 10.5754 16.5664C10.5754 14.5449 12.4226 12.9062 14.7007 12.9062H14.7897C15.0828 10.3707 17.0894 8.3041 20.63 8.3041Z" fill="#82BB3C"/>
<path d="M5.28302 37.4339V35.086C5.9761 35.086 6.56785 34.9957 7.05827 34.8151C7.54868 34.6345 8.04435 34.4391 8.54528 34.2288C9.04717 34.0177 9.60307 33.827 10.213 33.6569C10.8229 33.4867 11.5695 33.4012 12.4528 33.4004C13.361 33.4004 14.1081 33.4859 14.6941 33.6569C15.2801 33.8278 15.8236 34.0185 16.3245 34.2288C16.8264 34.4391 17.3283 34.6345 17.8302 34.8151C18.3321 34.9957 18.9296 35.086 19.6226 35.086C20.3157 35.086 20.9132 34.9957 21.4151 34.8151C21.917 34.6345 22.4189 34.4391 22.9208 34.2288C23.4226 34.0177 23.9723 33.827 24.5698 33.6569C25.1673 33.4867 25.9082 33.4012 26.7925 33.4004C27.7006 33.4004 28.4535 33.4859 29.0509 33.6569C29.6484 33.8278 30.1981 34.0185 30.7 34.2288C31.2019 34.4391 31.7038 34.6345 32.2057 34.8151C32.7075 34.9957 33.2931 35.086 33.9623 35.086V37.4339C33.0541 37.4339 32.295 37.3436 31.6851 37.163C31.0752 36.9824 30.5198 36.7865 30.0189 36.5754C29.517 36.3651 29.027 36.1749 28.5491 36.0047C28.0711 35.8345 27.4855 35.7491 26.7925 35.7483C26.0994 35.7483 25.5076 35.8337 25.0172 36.0047C24.5268 36.1757 24.0369 36.3663 23.5474 36.5766C23.0579 36.7869 22.5145 36.9824 21.917 37.163C21.3195 37.3436 20.5547 37.4339 19.6226 37.4339C18.6906 37.4339 17.9201 37.3436 17.3111 37.163C16.7021 36.9824 16.1525 36.7865 15.662 36.5754C15.1716 36.3651 14.6874 36.1749 14.2094 36.0047C13.7314 35.8345 13.1459 35.7491 12.4528 35.7483C11.7836 35.7483 11.2039 35.8337 10.7134 36.0047C10.223 36.1757 9.72735 36.3663 9.22642 36.5766C8.72453 36.7869 8.16911 36.9824 7.56015 37.163C6.9512 37.3436 6.19215 37.4339 5.28302 37.4339ZM5.28302 32.076V29.7281C5.9761 29.7281 6.56785 29.6378 7.05827 29.4572C7.54868 29.2766 8.04435 29.0812 8.54528 28.8709C9.04717 28.6598 9.60307 28.4691 10.213 28.2989C10.8229 28.1288 11.5695 28.0433 12.4528 28.0425C13.361 28.0425 14.1081 28.128 14.6941 28.2989C15.2801 28.4699 15.8236 28.6602 16.3245 28.8697C16.8264 29.0808 17.3283 29.2766 17.8302 29.4572C18.3321 29.6378 18.9296 29.7281 19.6226 29.7281C20.3157 29.7281 20.9132 29.6378 21.4151 29.4572C21.917 29.2766 22.4189 29.0808 22.9208 28.8697C23.4226 28.6594 23.9723 28.4687 24.5698 28.2977C25.1673 28.1268 25.9082 28.0417 26.7925 28.0425C27.7006 28.0425 28.4535 28.128 29.0509 28.2989C29.6484 28.4699 30.1981 28.6602 30.7 28.8697C31.2019 29.0808 31.7038 29.2766 32.2057 29.4572C32.7075 29.6378 33.2931 29.7281 33.9623 29.7281V32.076C33.0541 32.076 32.295 31.9857 31.6851 31.8051C31.0752 31.6245 30.5198 31.429 30.0189 31.2187C29.517 31.0076 29.027 30.817 28.5491 30.6468C28.0711 30.4766 27.4855 30.3911 26.7925 30.3903C26.1233 30.3903 25.5435 30.4758 25.0531 30.6468C24.5626 30.8178 24.0727 31.0084 23.5832 31.2187C23.0938 31.429 22.5441 31.6245 21.9342 31.8051C21.3243 31.9857 20.5538 32.076 19.6226 32.076C18.6906 32.076 17.9196 31.9857 17.3097 31.8051C16.6997 31.6245 16.1501 31.429 15.6606 31.2187C15.1711 31.0076 14.6874 30.817 14.2094 30.6468C13.7314 30.4766 13.1459 30.3911 12.4528 30.3903C11.7836 30.3903 11.2039 30.4758 10.7134 30.6468C10.223 30.8178 9.72735 31.0084 9.22642 31.2187C8.72453 31.429 8.16911 31.6245 7.56015 31.8051C6.9512 31.9857 6.19215 32.076 5.28302 32.076ZM5.28302 26.7181V24.3702C5.9761 24.3702 6.56785 24.2799 7.05827 24.0993C7.54868 23.9187 8.04435 23.7232 8.54528 23.5129C9.04717 23.3018 9.60307 23.1112 10.213 22.941C10.8229 22.7709 11.5695 22.6854 12.4528 22.6846C13.361 22.6846 14.1081 22.7701 14.6941 22.941C15.2801 23.112 15.8236 23.3026 16.3245 23.5129C16.8264 23.7232 17.3283 23.9187 17.8302 24.0993C18.3321 24.2799 18.9296 24.3702 19.6226 24.3702C20.3157 24.3702 20.9132 24.2799 21.4151 24.0993C21.917 23.9187 22.4189 23.7228 22.9208 23.5117C23.4226 23.3014 23.9723 23.1112 24.5698 22.941C25.1673 22.7709 25.9082 22.6854 26.7925 22.6846C27.7006 22.6846 28.4535 22.7701 29.0509 22.941C29.6484 23.112 30.1981 23.3026 30.7 23.5129C31.2019 23.7232 31.7038 23.9187 32.2057 24.0993C32.7075 24.2799 33.2931 24.3702 33.9623 24.3702V26.7181C33.0541 26.7181 32.295 26.6278 31.6851 26.4472C31.0752 26.2665 30.5198 26.0711 30.0189 25.8608C29.517 25.6497 29.027 25.459 28.5491 25.2889C28.0711 25.1187 27.4855 25.0332 26.7925 25.0324C26.1233 25.0324 25.5435 25.1179 25.0531 25.2889C24.5626 25.4599 24.0727 25.6505 23.5832 25.8608C23.0938 26.0711 22.5441 26.2665 21.9342 26.4472C21.3243 26.6278 20.5538 26.7181 19.6226 26.7181C18.6906 26.7181 17.9196 26.6278 17.3097 26.4472C16.6997 26.2665 16.1501 26.0707 15.6606 25.8596C15.1711 25.6493 14.6874 25.459 14.2094 25.2889C13.7314 25.1187 13.1459 25.0332 12.4528 25.0324C11.7836 25.0324 11.2039 25.1179 10.7134 25.2889C10.223 25.4599 9.72735 25.6505 9.22642 25.8608C8.72453 26.0711 8.16911 26.2665 7.56015 26.4472C6.9512 26.6278 6.19215 26.7181 5.28302 26.7181Z" fill="#2B7CB9"/>
</svg>
