<svg width="45" height="29" viewBox="0 0 45 29" fill="none" xmlns="http://www.w3.org/2000/svg">
<path d="M25.9015 6.87019C24.727 6.31227 23.4126 6 22.025 6C17.0406 6 13 10.0294 13 15C13 19.9706 17.0406 24 22.025 24C27.0094 24 31.05 19.9706 31.05 15C31.05 14.344 30.9796 13.7043 30.8459 13.0881C30.4555 13.3009 30.0259 13.4513 29.5707 13.5257C29.6616 13.9974 29.7091 14.4845 29.7091 14.9827C29.7091 19.2243 26.261 22.6628 22.0076 22.6628C17.7542 22.6628 14.3061 19.2243 14.3061 14.9827C14.3061 10.741 17.7542 7.3025 22.0076 7.3025C23.143 7.3025 24.2211 7.54752 25.1914 7.98743C25.3659 7.57554 25.6071 7.19863 25.9015 6.87019Z" fill="#2B7CB9"/>
<path d="M24.8863 9.24852C24.0203 8.81529 23.0425 8.57143 22.0076 8.57143C18.4569 8.57143 15.5786 11.4418 15.5786 14.9826C15.5786 18.5234 18.4569 21.3938 22.0076 21.3938C25.5582 21.3938 28.4366 18.5234 28.4366 14.9826C28.4366 14.4824 28.3791 13.9956 28.2705 13.5283C27.611 13.4232 27.0047 13.1589 26.4927 12.776C26.8225 13.4413 27.0077 14.1904 27.0077 14.9826C27.0077 17.7366 24.769 19.9691 22.0074 19.9691C19.2458 19.9691 17.0071 17.7366 17.0071 14.9826C17.0071 12.2287 19.2458 9.99616 22.0074 9.99616C23.2233 9.99616 24.3378 10.4289 25.2045 11.1484C24.9925 10.6591 24.875 10.1196 24.875 9.55263C24.875 9.45033 24.8788 9.34891 24.8863 9.24852Z" fill="#2B7CB9"/>
<path d="M25.4565 15.2143C25.4609 15.1434 25.4631 15.072 25.4631 15C25.4631 13.1065 23.9238 11.5714 22.025 11.5714C20.1262 11.5714 18.5869 13.1065 18.5869 15C18.5869 15.072 18.5891 15.1434 18.5935 15.2143H19.6614L20.7358 14.1429L22.0251 15.4286L23.3144 14.1429L24.3888 15.2143H25.4565Z" fill="#2B7CB9"/>
<path d="M24.1739 15.8572H25.3548C24.9731 17.3359 23.627 18.4286 22.025 18.4286C20.423 18.4286 19.0769 17.3359 18.6952 15.8572H19.8763L20.7358 15L22.0251 16.2857L23.3144 15L24.1739 15.8572Z" fill="#2B7CB9"/>
<path d="M28.9125 6.47368C28.507 6.47368 28.1056 6.55332 27.731 6.70806C27.3564 6.86279 27.016 7.08958 26.7293 7.37549C26.1503 7.9529 25.825 8.73604 25.825 9.55263C25.825 10.3692 26.1503 11.1524 26.7293 11.7298C27.016 12.0157 27.3564 12.2425 27.731 12.3972C28.1056 12.5519 28.507 12.6316 28.9125 12.6316C29.7314 12.6316 30.5167 12.3072 31.0957 11.7298C31.6747 11.1524 32 10.3692 32 9.55263C32 9.1483 31.9201 8.74792 31.765 8.37437C31.6098 8.00081 31.3824 7.66139 31.0957 7.37549C30.809 7.08958 30.4686 6.86279 30.094 6.70806C29.7194 6.55332 29.318 6.47368 28.9125 6.47368ZM30.2092 10.8458L28.6037 9.86053V8.01316H29.0669V9.61421L30.4562 10.4455L30.2092 10.8458Z" fill="#2B7CB9"/>
</svg>
