<svg width="33" height="33" viewBox="0 0 33 33" fill="none" xmlns="http://www.w3.org/2000/svg">
<path d="M8.24121 7.98193L16.5302 16.2709M16.5302 16.2709L24.8191 24.5599M16.5302 16.2709L24.8191 7.98193M16.5302 16.2709L8.24121 24.5599" stroke="#2D62C1" stroke-width="0.6" stroke-linejoin="round"/>
<path fill-rule="evenodd" clip-rule="evenodd" d="M16.7477 6.0542C16.5932 6.05337 16.5085 6.15871 16.4848 6.28196L14.2118 13.952C11.6469 14.7111 9.07974 15.4668 6.51924 16.2323C6.386 16.2723 6.31355 16.3518 6.31397 16.493C6.31438 16.6339 6.43825 16.7182 6.55317 16.7536L14.2041 19.0204C14.966 21.5942 15.7238 24.1701 16.4921 26.7393C16.532 26.8726 16.6116 26.945 16.7527 26.9446C16.8937 26.9442 16.978 26.8203 17.0134 26.7054L19.2878 19.0285L26.9731 16.7515C27.1259 16.7018 27.2035 16.6424 27.2042 16.488C27.2052 16.3335 27.0999 16.2487 26.9766 16.225L19.2805 13.9443L17.0113 6.2855C16.9615 6.13269 16.9022 6.05483 16.7477 6.0542ZM16.7592 14.938C17.1733 14.938 17.5704 15.1025 17.8632 15.3953C18.1561 15.6881 18.3206 16.0853 18.3206 16.4994C18.3206 16.9135 18.1561 17.3107 17.8632 17.6035C17.5704 17.8963 17.1733 18.0608 16.7592 18.0608C16.3451 18.0608 15.9479 17.8963 15.6551 17.6035C15.3623 17.3107 15.1978 16.9135 15.1978 16.4994C15.1978 16.0853 15.3623 15.6881 15.6551 15.3953C15.9479 15.1025 16.3451 14.938 16.7592 14.938Z" fill="#82BB3C"/>
<path d="M16.7592 14.938C17.1733 14.938 17.5704 15.1025 17.8632 15.3953C18.1561 15.6881 18.3206 16.0853 18.3206 16.4994C18.3206 16.9135 18.1561 17.3107 17.8632 17.6035C17.5704 17.8963 17.1733 18.0608 16.7592 18.0608C16.3451 18.0608 15.9479 17.8963 15.6551 17.6035C15.3623 17.3107 15.1978 16.9135 15.1978 16.4994C15.1978 16.0853 15.3623 15.6881 15.6551 15.3953C15.9479 15.1025 16.3451 14.938 16.7592 14.938Z" fill="#2D62C1"/>
<path d="M14.4994 14.0373L16.7475 6.45125L18.9929 14.0295C19.0217 14.1269 19.0979 14.2031 19.1953 14.232L26.8073 16.4877L19.2026 18.7408C19.1052 18.7697 19.029 18.8459 19.0002 18.9433L16.7475 26.5465C16.2043 24.7289 15.6662 22.9082 15.128 21.0868C14.916 20.3697 14.7041 19.6524 14.4917 18.9352C14.4629 18.8378 14.3867 18.7616 14.2893 18.7327L6.71205 16.4878C8.58552 15.9279 10.4623 15.3732 12.3397 14.8184C12.9921 14.6256 13.6445 14.4328 14.2969 14.2397C14.3943 14.2109 14.4705 14.1347 14.4994 14.0373ZM16.7592 15.238C17.0937 15.238 17.4146 15.3709 17.6511 15.6075C17.8877 15.844 18.0206 16.1649 18.0206 16.4994C18.0206 16.834 17.8877 17.1548 17.6511 17.3914C17.4146 17.6279 17.0937 17.7608 16.7592 17.7608C16.4246 17.7608 16.1038 17.6279 15.8672 17.3914C15.6307 17.1548 15.4978 16.834 15.4978 16.4994C15.4978 16.1649 15.6307 15.844 15.8672 15.6075C16.1038 15.3709 16.4246 15.238 16.7592 15.238ZM18.0754 15.1832C17.7263 14.8341 17.2528 14.638 16.7592 14.638C16.2655 14.638 15.792 14.8341 15.443 15.1832C15.0939 15.5323 14.8978 16.0057 14.8978 16.4994C14.8978 16.9931 15.0939 17.4665 15.443 17.8156C15.792 18.1647 16.2655 18.3608 16.7592 18.3608C17.2528 18.3608 17.7263 18.1647 18.0754 17.8156C18.4245 17.4665 18.6206 16.9931 18.6206 16.4994C18.6206 16.0057 18.4245 15.5323 18.0754 15.1832Z" stroke="#2D62C1" stroke-width="0.6" stroke-linejoin="round"/>
<path d="M17.7689 1V3.7409H17.2493L16.0841 1.83959V3.7409H15.5664V1H16.0841L17.2531 2.90319V1H17.7689Z" fill="#2D62C1"/>
<path d="M30.8928 17.6409V18.0475H29.4357V17.6409H30.8928ZM29.5939 15.3066V18.0475H29.0762V15.3066H29.5939ZM30.7026 16.438V16.8352H29.4357V16.438H30.7026ZM30.8871 15.3066V15.7151H29.4357V15.3066H30.8871Z" fill="#2D62C1"/>
<path d="M2.85841 17.5223L3.40433 15.3066H3.69988L3.71871 15.7735L3.13514 18.0475H2.82265L2.85841 17.5223ZM2.51392 15.3066L2.96195 17.5148V18.0475H2.62122L2 15.3066H2.51392ZM4.28534 17.5054L4.72584 15.3066H5.24164L4.62042 18.0475H4.27969L4.28534 17.5054ZM3.84107 15.3066L4.38699 17.5299L4.41899 18.0475H4.1065L3.52481 15.7716L3.5474 15.3066H3.84107Z" fill="#2D62C1"/>
<path d="M17.127 30.7877C17.127 30.735 17.1188 30.6879 17.1025 30.6465C17.0875 30.6038 17.0592 30.5655 17.0178 30.5317C16.9776 30.4965 16.9205 30.4626 16.8465 30.43C16.7737 30.3961 16.6796 30.361 16.5641 30.3246C16.4361 30.2844 16.3169 30.2392 16.2065 30.189C16.096 30.1388 15.9988 30.0805 15.9147 30.014C15.8318 29.9475 15.7672 29.8709 15.7208 29.7843C15.6743 29.6965 15.6511 29.5948 15.6511 29.4793C15.6511 29.3664 15.675 29.2635 15.7227 29.1706C15.7716 29.0777 15.8406 28.9981 15.9297 28.9315C16.0188 28.8638 16.1236 28.8117 16.2441 28.7753C16.3658 28.7389 16.5001 28.7207 16.647 28.7207C16.8503 28.7207 17.026 28.7577 17.174 28.8318C17.3234 28.9058 17.4389 29.0062 17.5204 29.133C17.602 29.2597 17.6428 29.4022 17.6428 29.5603H17.127C17.127 29.475 17.1088 29.3997 17.0724 29.3344C17.0373 29.2691 16.9833 29.2177 16.9105 29.18C16.839 29.1424 16.7486 29.1236 16.6394 29.1236C16.534 29.1236 16.4462 29.1392 16.3759 29.1706C16.3069 29.202 16.2548 29.2447 16.2196 29.2986C16.1857 29.3526 16.1688 29.4128 16.1688 29.4793C16.1688 29.5295 16.1807 29.5747 16.2046 29.6149C16.2284 29.6538 16.2642 29.6908 16.3119 29.726C16.3596 29.7598 16.4185 29.7918 16.4888 29.822C16.5604 29.8508 16.6432 29.8797 16.7373 29.9086C16.8879 29.9537 17.0197 30.0039 17.1326 30.0592C17.2468 30.1144 17.3416 30.1771 17.4169 30.2474C17.4934 30.3177 17.5505 30.3967 17.5882 30.4846C17.6271 30.5724 17.6466 30.6722 17.6466 30.7839C17.6466 30.9019 17.6233 31.0073 17.5769 31.1002C17.5305 31.193 17.464 31.2721 17.3774 31.3374C17.2908 31.4026 17.1866 31.4522 17.0649 31.4861C16.9444 31.52 16.8095 31.5369 16.6601 31.5369C16.5271 31.5369 16.3953 31.5193 16.2648 31.4842C16.1355 31.4478 16.0182 31.3938 15.9128 31.3223C15.8074 31.2495 15.7233 31.1579 15.6605 31.0475C15.5978 30.9358 15.5664 30.8052 15.5664 30.6559H16.086C16.086 30.7425 16.0998 30.8165 16.1274 30.878C16.1563 30.9383 16.1964 30.9878 16.2479 31.0267C16.3006 31.0644 16.3621 31.092 16.4323 31.1096C16.5026 31.1271 16.5786 31.1359 16.6601 31.1359C16.7655 31.1359 16.8521 31.1215 16.9199 31.0926C16.9889 31.0625 17.0404 31.0211 17.0743 30.9684C17.1094 30.9157 17.127 30.8554 17.127 30.7877Z" fill="#2D62C1"/>
</svg>
