<svg width="45" height="29" viewBox="0 0 45 29" fill="none" xmlns="http://www.w3.org/2000/svg">
<rect width="45" height="29" rx="14.5" fill="#38C05C"/>
<path d="M25.9318 7.89782C24.9521 7.43113 23.8557 7.16992 22.6982 7.16992C18.5405 7.16992 15.1699 10.5405 15.1699 14.6982C15.1699 18.856 18.5405 22.2265 22.6982 22.2265C26.856 22.2265 30.2265 18.856 30.2265 14.6982C30.2265 14.1495 30.1678 13.6144 30.0563 13.099C29.7306 13.277 29.3723 13.4028 28.9926 13.465C29.0684 13.8596 29.108 14.267 29.108 14.6837C29.108 18.2318 26.2318 21.108 22.6837 21.108C19.1357 21.108 16.2594 18.2318 16.2594 14.6837C16.2594 11.1357 19.1357 8.25944 22.6837 8.25944C23.6308 8.25944 24.5301 8.46439 25.3395 8.83237C25.485 8.48783 25.6862 8.17255 25.9318 7.89782Z" fill="white"/>
<path d="M25.085 9.88724C24.3626 9.52485 23.547 9.32087 22.6837 9.32087C19.7219 9.32087 17.3209 11.7219 17.3209 14.6837C17.3209 17.6455 19.7219 20.0465 22.6837 20.0465C25.6455 20.0465 28.0465 17.6455 28.0465 14.6837C28.0465 14.2653 27.9986 13.858 27.9079 13.4672C27.3578 13.3793 26.8521 13.1582 26.425 12.8379C26.7001 13.3944 26.8546 14.021 26.8546 14.6837C26.8546 16.9873 24.9872 18.8548 22.6835 18.8548C20.3799 18.8548 18.5125 16.9873 18.5125 14.6837C18.5125 12.3801 20.3799 10.5126 22.6835 10.5126C23.6978 10.5126 24.6275 10.8746 25.3505 11.4765C25.1736 11.0672 25.0756 10.6158 25.0756 10.1416C25.0756 10.056 25.0788 9.97121 25.085 9.88724Z" fill="white"/>
<path d="M25.5606 14.8775C25.5643 14.8182 25.5661 14.7584 25.5661 14.6982C25.5661 13.1143 24.2821 11.8303 22.6982 11.8303C21.1143 11.8303 19.8303 13.1143 19.8303 14.6982C19.8303 14.7584 19.8322 14.8182 19.8358 14.8775H20.7266L21.6228 13.9813L22.6983 15.0567L23.7738 13.9813L24.67 14.8775H25.5606Z" fill="white"/>
<path d="M24.4907 15.4152H25.4758C25.1574 16.6522 24.0346 17.5661 22.6982 17.5661C21.3619 17.5661 20.239 16.6522 19.9207 15.4152H20.9058L21.6228 14.6982L22.6983 15.7737L23.7738 14.6982L24.4907 15.4152Z" fill="white"/>
<path d="M28.4435 7.56615C28.1053 7.56615 27.7704 7.63276 27.4579 7.76219C27.1454 7.89162 26.8615 8.08133 26.6224 8.32049C26.1394 8.80348 25.868 9.45856 25.868 10.1416C25.868 10.8247 26.1394 11.4798 26.6224 11.9628C26.8615 12.2019 27.1454 12.3916 27.4579 12.521C27.7704 12.6505 28.1053 12.7171 28.4435 12.7171C29.1266 12.7171 29.7816 12.4457 30.2646 11.9628C30.7476 11.4798 31.019 10.8247 31.019 10.1416C31.019 9.8034 30.9524 9.4685 30.8229 9.15603C30.6935 8.84356 30.5038 8.55964 30.2646 8.32049C30.0255 8.08133 29.7416 7.89162 29.4291 7.76219C29.1166 7.63276 28.7817 7.56615 28.4435 7.56615ZM29.5252 11.2233L28.186 10.3992V8.85388H28.5723V10.1931L29.7312 10.8885L29.5252 11.2233Z" fill="white"/>
</svg>
