<svg width="32" height="32" viewBox="0 0 32 32" fill="none" xmlns="http://www.w3.org/2000/svg">
<rect x="0.65" y="0.65" width="30.7" height="30.7" rx="7.35" fill="#F9A808"/>
<path d="M25.7142 21.768L17.9066 8.09985C17.7115 7.76498 17.433 7.48733 17.0986 7.29441C16.7643 7.10149 16.3857 7 16.0004 7C15.6152 7 15.2366 7.10149 14.9023 7.29441C14.5679 7.48733 14.2894 7.76498 14.0943 8.09985L6.28666 21.768C6.09893 22.0919 6 22.4603 6 22.8354C6 23.2105 6.09893 23.5789 6.28666 23.9028C6.47926 24.2397 6.75732 24.5188 7.0923 24.7116C7.42727 24.9044 7.8071 25.0039 8.19281 24.9999H23.8081C24.1935 25.0036 24.5729 24.904 24.9076 24.7112C25.2422 24.5184 25.52 24.2394 25.7124 23.9028C25.9004 23.5791 25.9997 23.2108 26 22.8356C26.0003 22.4605 25.9017 22.0921 25.7142 21.768ZM24.4759 23.1819C24.4078 23.2989 24.3101 23.3956 24.1928 23.4621C24.0754 23.5285 23.9426 23.5622 23.8081 23.5599H8.19281C8.05824 23.5622 7.92548 23.5285 7.80812 23.4621C7.69077 23.3956 7.59305 23.2989 7.52499 23.1819C7.46333 23.0767 7.43081 22.9567 7.43081 22.8345C7.43081 22.7123 7.46333 22.5923 7.52499 22.4871L15.3326 8.81894C15.4021 8.70246 15.5002 8.60607 15.6176 8.53915C15.7349 8.47224 15.8674 8.43707 16.0022 8.43707C16.137 8.43707 16.2696 8.47224 16.3869 8.53915C16.5042 8.60607 16.6024 8.70246 16.6718 8.81894L24.4795 22.4871C24.5406 22.5927 24.5725 22.7128 24.5719 22.835C24.5712 22.9572 24.5381 23.077 24.4759 23.1819ZM15.2862 17.8V14.2C15.2862 14.009 15.3614 13.8259 15.4954 13.6909C15.6293 13.5559 15.811 13.48 16.0004 13.48C16.1899 13.48 16.3715 13.5559 16.5055 13.6909C16.6394 13.8259 16.7147 14.009 16.7147 14.2V17.8C16.7147 17.9909 16.6394 18.174 16.5055 18.3091C16.3715 18.4441 16.1899 18.5199 16.0004 18.5199C15.811 18.5199 15.6293 18.4441 15.4954 18.3091C15.3614 18.174 15.2862 17.9909 15.2862 17.8ZM17.0718 21.0399C17.0718 21.2535 17.009 21.4623 16.8913 21.6399C16.7735 21.8175 16.6062 21.956 16.4104 22.0377C16.2147 22.1194 15.9993 22.1408 15.7914 22.0992C15.5836 22.0575 15.3927 21.9546 15.2429 21.8036C15.093 21.6525 14.991 21.4601 14.9497 21.2506C14.9083 21.0411 14.9295 20.824 15.0106 20.6266C15.0917 20.4293 15.229 20.2606 15.4052 20.1419C15.5814 20.0233 15.7885 19.9599 16.0004 19.9599C16.2846 19.9599 16.5571 20.0737 16.758 20.2763C16.9589 20.4788 17.0718 20.7535 17.0718 21.0399Z" fill="white"/>
<rect x="0.65" y="0.65" width="30.7" height="30.7" rx="7.35" stroke="white" stroke-width="1.3"/>
</svg>
