<svg width="32" height="32" viewBox="0 0 32 32" fill="none" xmlns="http://www.w3.org/2000/svg">
<path d="M16 2.5C20.7539 2.5 23.4501 5.5378 23.8416 9.20478H23.9611C27.0199 9.20478 29.5 11.5922 29.5 14.5373C29.5 17.4825 27.0199 19.8699 23.9611 19.8699L22.6054 19.868V19.8699H22.5475L20.7019 23.23C20.5761 23.4495 20.3693 23.6109 20.1259 23.6793C19.8824 23.7477 19.6219 23.7177 19.4003 23.5957C19.1788 23.4737 19.014 23.2695 18.9415 23.0271C18.8689 22.7847 18.8944 22.5235 19.0124 22.2997L20.3489 19.868H16.8428V19.8699H16.7637L14.9161 23.23C14.7904 23.4495 14.5836 23.6109 14.3401 23.6793C14.0967 23.7477 13.8362 23.7177 13.6146 23.5957C13.3931 23.4737 13.2283 23.2695 13.1557 23.0271C13.0832 22.7847 13.1087 22.5235 13.2267 22.2997L14.5632 19.8699H10.978L9.13043 23.23C9.00472 23.4495 8.79786 23.6109 8.55443 23.6793C8.31099 23.7477 8.05044 23.7177 7.82891 23.5957C7.60738 23.4737 7.44259 23.2695 7.37003 23.0271C7.29748 22.7847 7.32296 22.5235 7.441 22.2997L8.7775 19.8699H8.03886C4.98014 19.8699 2.5 17.4825 2.5 14.5373C2.5 11.7003 4.79886 9.38234 7.70136 9.21443L8.15843 9.20478C8.55379 5.51271 11.2461 2.5 16 2.5ZM11.6569 24.3397C11.8788 24.4667 12.0412 24.6767 12.1085 24.9235C12.1758 25.1704 12.1423 25.4338 12.0156 25.656L10.087 29.0335C9.95694 29.2492 9.7477 29.4055 9.50402 29.4689C9.26033 29.5324 9.00152 29.4979 8.7829 29.3729C8.56428 29.2478 8.4032 29.0422 8.33408 28.7999C8.26496 28.5576 8.29328 28.2979 8.413 28.0762L10.3416 24.6987C10.4685 24.4766 10.6783 24.314 10.925 24.2467C11.1716 24.1794 11.4349 24.2129 11.6569 24.3397ZM17.8013 25.656C17.921 25.4343 17.9493 25.1746 17.8802 24.9323C17.8111 24.69 17.65 24.4843 17.4314 24.3593C17.2128 24.2343 16.954 24.1998 16.7103 24.2633C16.4666 24.3267 16.2573 24.483 16.1273 24.6987L14.1987 28.0762C14.079 28.2979 14.0507 28.5576 14.1198 28.7999C14.1889 29.0422 14.35 29.2478 14.5686 29.3729C14.7872 29.4979 15.046 29.5324 15.2897 29.4689C15.5334 29.4055 15.7427 29.2492 15.8727 29.0335L17.8013 25.656Z" fill="#E1ECF2"/>
<path fill-rule="evenodd" clip-rule="evenodd" d="M22.0437 11.2048L21.8529 9.4171C21.7023 8.00642 21.1198 6.79719 20.199 5.94581C19.2918 5.10704 17.9315 4.5 16 4.5C14.0641 4.5 12.7053 5.1035 11.8009 5.93789C10.8834 6.78421 10.2998 7.99175 10.1471 9.41773L9.95972 11.1672L7.78403 11.2131C5.88382 11.3393 4.5 12.8409 4.5 14.5373C4.5 16.307 6.01239 17.8699 8.03886 17.8699H14.8428V17.868H20.6054V17.8651L22.6069 17.868H23.7303L23.7294 17.8696L23.9611 17.8699H23.9625C25.9883 17.8692 27.5 16.3066 27.5 14.5373C27.5 12.7677 25.9876 11.2048 23.9611 11.2048H22.0437ZM16.8428 19.868V19.8699H16.7637L14.9161 23.23C14.805 23.4241 14.6304 23.5728 14.4231 23.6519C14.396 23.6622 14.3683 23.6714 14.3401 23.6793C14.1326 23.7376 13.9127 23.7244 13.7151 23.6437C13.6808 23.6297 13.6473 23.6137 13.6146 23.5957C13.3931 23.4737 13.2283 23.2695 13.1557 23.0271C13.1483 23.0021 13.1418 22.9769 13.1364 22.9515C13.0895 22.7316 13.1208 22.5012 13.2262 22.3008L13.2267 22.2997L14.5632 19.8699H10.978L9.13043 23.23C9.01918 23.4243 8.84439 23.573 8.63694 23.652C8.60996 23.6623 8.58244 23.6714 8.55443 23.6793C8.31099 23.7477 8.05044 23.7177 7.82891 23.5957C7.60738 23.4737 7.44259 23.2695 7.37003 23.0271C7.29759 22.7851 7.32289 22.5243 7.44046 22.3008L7.441 22.2997L8.7775 19.8699H8.03886C7.53957 19.8699 7.0557 19.8063 6.59552 19.687C4.23654 19.0756 2.5 17.0017 2.5 14.5373C2.5 11.7003 4.79886 9.38234 7.70136 9.21443L8.15843 9.20478C8.55379 5.51271 11.2461 2.5 16 2.5C20.7539 2.5 23.4501 5.5378 23.8416 9.20478H23.9611C27.0199 9.20478 29.5 11.5922 29.5 14.5373C29.5 17.434 27.1008 19.7912 24.1116 19.868C24.0616 19.8692 24.0115 19.8699 23.9611 19.8699L22.6054 19.868V19.8699H22.5475L20.7019 23.23C20.5761 23.4495 20.3693 23.6109 20.1259 23.6793C19.9073 23.7407 19.675 23.7228 19.4695 23.6302C19.4461 23.6197 19.423 23.6082 19.4003 23.5957C19.1788 23.4737 19.014 23.2695 18.9415 23.0271C18.9376 23.0144 18.9341 23.0015 18.9308 22.9887C18.872 22.758 18.9004 22.5131 19.0115 22.3015L19.0124 22.2997L20.3489 19.868H16.8428ZM16.6093 24.2955C16.4091 24.3719 16.239 24.5134 16.1273 24.6987L14.1987 28.0762L14.1981 28.0773C14.0789 28.2987 14.0508 28.558 14.1198 28.7999C14.1889 29.0422 14.35 29.2478 14.5686 29.3729C14.7872 29.4979 15.046 29.5324 15.2897 29.4689C15.5334 29.4055 15.7427 29.2492 15.8727 29.0335L17.8013 25.656L17.8019 25.6549C17.9168 25.4415 17.947 25.193 17.8873 24.9587C17.8851 24.9499 17.8827 24.9411 17.8802 24.9323C17.8111 24.69 17.65 24.4843 17.4314 24.3593C17.4044 24.3439 17.3768 24.3298 17.3487 24.3172C17.1491 24.2273 16.9239 24.2077 16.7103 24.2633C16.6759 24.2722 16.6422 24.283 16.6093 24.2955ZM12.1213 24.9762C12.1175 24.9586 12.1133 24.941 12.1085 24.9235C12.0412 24.6767 11.8788 24.4667 11.6569 24.3397C11.6199 24.3186 11.5817 24.3001 11.5427 24.2841C11.3476 24.2045 11.1305 24.1906 10.925 24.2467C10.8945 24.255 10.8647 24.2648 10.8355 24.2759C10.6278 24.355 10.4528 24.504 10.3416 24.6987L8.413 28.0762L8.41242 28.0773C8.29319 28.2987 8.26507 28.558 8.33408 28.7999C8.4032 29.0422 8.56428 29.2478 8.7829 29.3729C9.00152 29.4979 9.26033 29.5324 9.50402 29.4689C9.7477 29.4055 9.95694 29.2492 10.087 29.0335L12.0156 25.656L12.0162 25.6549C12.1335 25.4487 12.1705 25.2071 12.1213 24.9762Z" fill="#5C7CAD"/>
</svg>
