<svg width="54" height="53" viewBox="0 0 54 53" fill="none" xmlns="http://www.w3.org/2000/svg">
<path d="M34.34 9.83707C31.8056 8.65924 28.9692 8 25.975 8C15.2193 8 6.5 16.5066 6.5 27C6.5 37.4934 15.2193 46 25.975 46C36.7307 46 45.45 37.4934 45.45 27C45.45 25.615 45.2981 24.2646 45.0097 22.9638C44.1671 23.4131 43.2402 23.7305 42.2579 23.8876C42.4539 24.8835 42.5565 25.9118 42.5565 26.9634C42.5565 35.918 35.1159 43.1771 25.9375 43.1771C16.7591 43.1771 9.31847 35.918 9.31847 26.9634C9.31847 18.0088 16.7591 10.7497 25.9375 10.7497C28.3876 10.7497 30.7139 11.267 32.8078 12.1957C33.1842 11.3261 33.7047 10.5304 34.34 9.83707Z" fill="#2B7CB9"/>
<path d="M32.1495 14.858C30.2806 13.9434 28.1706 13.4286 25.9374 13.4286C18.2755 13.4286 12.0643 19.4883 12.0643 26.9633C12.0643 34.4384 18.2755 40.4981 25.9374 40.4981C33.5993 40.4981 39.8105 34.4384 39.8105 26.9633C39.8105 25.9073 39.6866 24.8795 39.4521 23.8931C38.0289 23.6713 36.7208 23.1132 35.6159 22.305C36.3274 23.7093 36.7272 25.2908 36.7272 26.9634C36.7272 32.7773 31.8963 37.4904 25.937 37.4904C19.9778 37.4904 15.1468 32.7773 15.1468 26.9634C15.1468 21.1494 19.9778 16.4363 25.937 16.4363C28.5608 16.4363 30.9658 17.35 32.8361 18.8689C32.3786 17.8359 32.125 16.6969 32.125 15.5C32.125 15.284 32.1333 15.0699 32.1495 14.858Z" fill="#2B7CB9"/>
<path d="M33.3798 27.4524C33.3892 27.3028 33.394 27.1519 33.394 27C33.394 23.0025 30.0724 19.7619 25.975 19.7619C21.8776 19.7619 18.556 23.0025 18.556 27C18.556 27.1519 18.5608 27.3028 18.5702 27.4524H20.8746L23.193 25.1905L25.9752 27.9048L28.7573 25.1905L31.0758 27.4524H33.3798Z" fill="#2B7CB9"/>
<path d="M30.6121 28.8096H33.1603C32.3367 31.9314 29.432 34.2381 25.975 34.2381C22.518 34.2381 19.6133 31.9314 18.7897 28.8096H21.3383L23.193 27L25.9752 29.7143L28.7573 27L30.6121 28.8096Z" fill="#2B7CB9"/>
<path fill-rule="evenodd" clip-rule="evenodd" d="M40.8375 9C39.9626 9 39.0962 9.16813 38.2879 9.49478C37.4795 9.82144 36.7451 10.3002 36.1264 10.9038C34.8769 12.1228 34.175 13.7761 34.175 15.5C34.175 17.2239 34.8769 18.8772 36.1264 20.0962C36.7451 20.6998 37.4795 21.1786 38.2879 21.5052C39.0962 21.8319 39.9626 22 40.8375 22C42.6045 22 44.2991 21.3152 45.5486 20.0962C46.7981 18.8772 47.5 17.2239 47.5 15.5C47.5 14.6464 47.3277 13.8012 46.9928 13.0126C46.658 12.2239 46.1673 11.5074 45.5486 10.9038C44.9299 10.3002 44.1955 9.82144 43.3871 9.49478C42.5788 9.16813 41.7124 9 40.8375 9ZM40.1712 16.15L43.6357 18.23L44.1688 17.385L41.1706 15.63V12.25H40.1712V16.15Z" fill="#2B7CB9"/>
<path fill-rule="evenodd" clip-rule="evenodd" d="M38.2879 9.49478C39.0962 9.16813 39.9626 9 40.8375 9C41.7124 9 42.5788 9.16813 43.3871 9.49478C44.1954 9.82144 44.9299 10.3002 45.5486 10.9038C46.1673 11.5074 46.658 12.2239 46.9928 13.0126C47.3277 13.8012 47.5 14.6464 47.5 15.5C47.5 17.2239 46.798 18.8772 45.5486 20.0962C44.2991 21.3152 42.6045 22 40.8375 22C39.9626 22 39.0962 21.8319 38.2879 21.5052C37.4795 21.1786 36.7451 20.6998 36.1264 20.0962C34.8769 18.8772 34.175 17.2239 34.175 15.5C34.175 13.7761 34.8769 12.1228 36.1264 10.9038C36.7451 10.3002 37.4795 9.82144 38.2879 9.49478ZM43.6357 18.23L40.1712 16.15V12.25H41.1706V15.63L44.1687 17.385L43.6357 18.23Z" fill="#82BB3C"/>
</svg>
