<svg width="17" height="17" viewBox="0 0 17 17" fill="none" xmlns="http://www.w3.org/2000/svg">
<path d="M4.604 5.74442C3.97359 5.74442 3.46359 5.23442 3.46359 4.604C3.46359 4.30155 3.58374 4.01148 3.79761 3.79761C4.01148 3.58374 4.30155 3.46359 4.604 3.46359C5.23442 3.46359 5.74442 3.97359 5.74442 4.604C5.74442 4.90646 5.62427 5.19653 5.4104 5.4104C5.19653 5.62427 4.90646 5.74442 4.604 5.74442ZM4.604 1.4165C2.83317 1.4165 1.4165 2.83317 1.4165 4.604C1.4165 6.99109 4.604 10.5257 4.604 10.5257C4.604 10.5257 7.7915 6.99109 7.7915 4.604C7.7915 2.83317 6.37484 1.4165 4.604 1.4165ZM12.3957 5.74442C12.0932 5.74442 11.8031 5.62427 11.5893 5.4104C11.3754 5.19653 11.2553 4.90646 11.2553 4.604C11.2553 4.45424 11.2848 4.30595 11.3421 4.16759C11.3994 4.02922 11.4834 3.9035 11.5893 3.79761C11.6952 3.69171 11.8209 3.60771 11.9593 3.5504C12.0976 3.49308 12.2459 3.46359 12.3957 3.46359C12.5454 3.46359 12.6937 3.49308 12.8321 3.5504C12.9705 3.60771 13.0962 3.69171 13.2021 3.79761C13.308 3.9035 13.392 4.02922 13.4493 4.16759C13.5066 4.30595 13.5361 4.45424 13.5361 4.604C13.5361 4.90646 13.4159 5.19653 13.2021 5.4104C12.9882 5.62427 12.6981 5.74442 12.3957 5.74442ZM12.3957 1.4165C10.6248 1.4165 9.20817 2.83317 9.20817 4.604C9.20817 6.99109 12.3957 10.5257 12.3957 10.5257C12.3957 10.5257 15.5832 6.99109 15.5832 4.604C15.5832 2.83317 14.1665 1.4165 12.3957 1.4165ZM12.3957 11.3332C11.4961 11.3332 10.6957 11.8998 10.3982 12.7498H6.6015C6.41381 12.2197 6.02362 11.7856 5.51643 11.5426C5.00924 11.2996 4.42642 11.2676 3.89567 11.4536C3.63187 11.546 3.38888 11.6895 3.18059 11.8759C2.97229 12.0623 2.80278 12.288 2.68173 12.5399C2.56069 12.7919 2.49049 13.0652 2.47515 13.3443C2.45981 13.6234 2.49963 13.9028 2.59234 14.1665C2.78257 14.698 3.1754 15.1327 3.68502 15.3756C4.19465 15.6184 4.77967 15.6498 5.31234 15.4628C5.91442 15.2503 6.37484 14.7686 6.6015 14.1665H10.4053C10.7948 15.2715 12.0132 15.8523 13.104 15.4628C13.3686 15.3713 13.6125 15.2284 13.8217 15.0424C14.0309 14.8563 14.2013 14.6308 14.3231 14.3787C14.4449 14.1266 14.5156 13.8529 14.5313 13.5734C14.547 13.2938 14.5072 13.014 14.4144 12.7498C14.1098 11.8998 13.3023 11.3332 12.3957 11.3332ZM12.3957 14.5207C12.1139 14.5207 11.8436 14.4087 11.6444 14.2095C11.4451 14.0102 11.3332 13.74 11.3332 13.4582C11.3332 13.1764 11.4451 12.9061 11.6444 12.7069C11.8436 12.5076 12.1139 12.3957 12.3957 12.3957C12.6775 12.3957 12.9477 12.5076 13.147 12.7069C13.3462 12.9061 13.4582 13.1764 13.4582 13.4582C13.4582 13.74 13.3462 14.0102 13.147 14.2095C12.9477 14.4087 12.6775 14.5207 12.3957 14.5207Z" fill="#F1A615"/>
</svg>
