<svg width="21" height="21" viewBox="0 0 21 21" fill="none" xmlns="http://www.w3.org/2000/svg">
<path d="M8.26875 18C8.09375 18 7.9405 17.953 7.809 17.859C7.6775 17.765 7.587 17.637 7.5375 17.475L5.625 11.25H3.75C3.5375 11.25 3.35925 11.178 3.21525 11.034C3.07125 10.89 2.9995 10.712 3 10.5C3 10.2875 3.072 10.1092 3.216 9.96525C3.36 9.82125 3.538 9.7495 3.75 9.75H6.1875C6.35 9.75 6.497 9.797 6.6285 9.891C6.76 9.985 6.8505 10.113 6.9 10.275L8.1375 14.3063L10.5187 3.6C10.5562 3.425 10.6437 3.28125 10.7812 3.16875C10.9187 3.05625 11.075 3 11.25 3C11.425 3 11.5812 3.05325 11.7187 3.15975C11.8562 3.26625 11.9437 3.40675 11.9812 3.58125L13.6125 10.6313L14.6625 7.275C14.7125 7.1125 14.803 6.9845 14.934 6.891C15.065 6.7975 15.212 6.7505 15.375 6.75C15.5375 6.75 15.6812 6.79375 15.8062 6.88125C15.9312 6.96875 16.025 7.0875 16.0875 7.2375L17.025 9.75H17.25C17.4625 9.75 17.6407 9.822 17.7847 9.966C17.9287 10.11 18.0005 10.288 18 10.5C18 10.7125 17.928 10.8908 17.784 11.0347C17.64 11.1788 17.462 11.2505 17.25 11.25H16.5C16.3375 11.25 16.1937 11.2063 16.0687 11.1187C15.9437 11.0312 15.85 10.9125 15.7875 10.7625L15.4312 9.80625L14.2125 13.725C14.1625 13.8875 14.0687 14.0188 13.9312 14.1188C13.7937 14.2188 13.6375 14.2625 13.4625 14.25C13.2875 14.2375 13.1375 14.178 13.0125 14.0715C12.8875 13.965 12.8062 13.8308 12.7687 13.6688L11.25 7.14375L8.98125 17.4188C8.94375 17.5938 8.85925 17.7312 8.72775 17.8312C8.59625 17.9312 8.44325 17.9875 8.26875 18Z" fill="#E2050D"/>
</svg>
