<svg width="21" height="21" viewBox="0 0 21 21" fill="none" xmlns="http://www.w3.org/2000/svg">
<path d="M12.2478 4.6029L12.6553 5.12641L13.1354 4.6685L13.7217 4.10928C13.7895 4.21682 13.8646 4.33714 13.9457 4.46885C14.3155 5.0694 14.808 5.90396 15.2997 6.84116C15.7922 7.77986 16.2791 8.81227 16.6415 9.8098C17.0073 10.8164 17.2302 11.7444 17.2302 12.4872C17.2302 16.1083 14.2118 19.2174 10.5 19.2174C6.78821 19.2174 3.7698 16.1083 3.7698 12.4872C3.7698 11.7501 4.00354 10.8259 4.38945 9.81976C4.77162 8.82334 5.28512 7.79162 5.80489 6.85308C6.32378 5.91614 6.84351 5.08174 7.23384 4.48124C7.32659 4.33855 7.41192 4.20923 7.48808 4.09505L8.0934 4.66954L8.59905 5.14943L8.99829 4.57796L10.5261 2.39115L12.2478 4.6029Z" fill="#FFA31A" stroke="#DC4F00" stroke-width="1.2"/>
<path fill-rule="evenodd" clip-rule="evenodd" d="M5.83533 14.5756H9.45837H11.5287H15.1647L13.159 11.3769H14.1166L10.4935 6.0459L6.87048 11.3769H7.828L5.83533 14.5756Z" fill="#DC4F00"/>
<path d="M9.45837 14.5756V17.1522H11.5287V14.5756H9.45837Z" fill="#3A0E00"/>
<path d="M15.0668 18.19C13.8142 19.2023 12.2268 19.8178 10.5 19.8178C8.77314 19.8178 7.18582 19.2023 5.93317 18.19C7.21537 17.2579 8.79348 16.708 10.5 16.708C12.2065 16.708 13.7846 17.2578 15.0668 18.19Z" fill="#842000"/>
</svg>
