<svg width="21" height="21" viewBox="0 0 21 21" fill="none" xmlns="http://www.w3.org/2000/svg">
<path d="M18.6248 6.56458C18.5273 6.20423 18.3371 5.8757 18.0731 5.61172C17.8092 5.34774 17.4807 5.15752 17.1203 5.05999C15.8011 4.7002 10.4915 4.7002 10.4915 4.7002C10.4915 4.7002 5.18172 4.71109 3.86247 5.07088C3.50211 5.16841 3.17359 5.35865 2.90962 5.62264C2.64565 5.88663 2.45545 6.21517 2.35795 6.57554C1.95891 8.91959 1.80411 12.4914 2.36891 14.7417C2.46642 15.102 2.65663 15.4305 2.92059 15.6945C3.18456 15.9585 3.51308 16.1487 3.87343 16.2462C5.19268 16.606 10.5023 16.606 10.5023 16.606C10.5023 16.606 15.8119 16.606 17.1311 16.2462C17.4915 16.1487 17.82 15.9585 18.084 15.6945C18.348 15.4305 18.5382 15.102 18.6357 14.7417C19.0566 12.3943 19.1863 8.82469 18.6248 6.56458Z" fill="#FF0000"/>
<path d="M8.80162 13.2042L13.2063 10.653L8.80162 8.10177V13.2042Z" fill="white"/>
</svg>
