<svg width="21" height="22" viewBox="0 0 21 22" fill="none" xmlns="http://www.w3.org/2000/svg">
<path d="M9.36598 5.95908C9.71458 6.13461 10.0222 6.36322 10.2826 6.63083C8.43253 7.02522 7.10113 8.29179 6.56248 10.0503L6.49423 10.293L6.44593 10.4956L6.27163 10.5281C5.80583 10.627 5.36118 10.812 4.95913 11.0741C4.55328 10.4218 4.36527 9.65042 4.42376 8.87758C4.48225 8.10474 4.78403 7.37282 5.28311 6.79341C5.78218 6.21399 6.45117 5.81885 7.1881 5.66822C7.92503 5.51759 8.68948 5.61974 9.36493 5.95908H9.36598Z" fill="#FFB800"/>
<path d="M10.4895 3.57003C10.6 3.62569 10.6881 3.71964 10.7384 3.83548C10.7887 3.95131 10.7979 4.08169 10.7646 4.20386L10.731 4.29487L10.3414 5.12048C10.2841 5.24219 10.1847 5.33735 10.0628 5.38723C9.94085 5.43711 9.80526 5.43809 9.68267 5.39C9.56008 5.3419 9.45938 5.2482 9.40038 5.12734C9.34139 5.00647 9.32836 4.8672 9.36388 4.73693L9.39748 4.64483L9.78703 3.81923C9.81727 3.75511 9.85947 3.69779 9.91123 3.65054C9.96299 3.60329 10.0233 3.56706 10.0886 3.5439C10.154 3.52075 10.2231 3.51114 10.2921 3.51563C10.3611 3.52011 10.4285 3.5386 10.4905 3.57003H10.4895Z" fill="#FFB800"/>
<path d="M6.50998 3.53536L6.54883 3.62421L6.83863 4.49315C6.88123 4.62106 6.87592 4.76078 6.82374 4.88486C6.77157 5.00893 6.6763 5.10838 6.55667 5.16365C6.43704 5.21892 6.3017 5.22602 6.17726 5.18355C6.05282 5.14107 5.94827 5.0521 5.88418 4.93412L5.84533 4.84528L5.55658 3.97742C5.51465 3.84981 5.5203 3.71066 5.57245 3.58712C5.6246 3.46359 5.71948 3.36454 5.83859 3.30931C5.9577 3.25409 6.09248 3.24664 6.21663 3.28844C6.34077 3.33024 6.44536 3.41827 6.50998 3.53536Z" fill="#FFB800"/>
<path d="M3.06283 6.14327L3.14998 6.17794L3.95008 6.57991C4.06803 6.63908 4.16025 6.74166 4.20859 6.86746C4.25692 6.99326 4.25788 7.13317 4.21127 7.25967C4.16466 7.38616 4.07385 7.49007 3.95672 7.55095C3.8396 7.61183 3.70463 7.62527 3.57838 7.58862L3.48913 7.55395L2.69008 7.15198C2.57213 7.09282 2.47991 6.99024 2.43157 6.86444C2.38323 6.73864 2.38227 6.59872 2.42888 6.47223C2.4755 6.34573 2.5663 6.24182 2.68343 6.18094C2.80056 6.12006 2.93553 6.10663 3.06178 6.14327H3.06283Z" fill="#FFB800"/>
<path d="M3.99313 10.5097C4.03349 10.6298 4.03163 10.7607 3.98786 10.8796C3.9441 10.9984 3.86122 11.0976 3.75373 11.1597L3.66763 11.1987L2.82658 11.4978C2.70246 11.5426 2.56656 11.5377 2.44576 11.4841C2.32496 11.4305 2.22806 11.3321 2.17421 11.2083C2.12036 11.0845 2.1135 10.9444 2.15497 10.8156C2.19644 10.6868 2.28323 10.5788 2.39818 10.5129L2.48428 10.4739L3.32638 10.1749C3.45796 10.1283 3.60209 10.1375 3.7271 10.2004C3.85212 10.2634 3.9478 10.375 3.99313 10.5107V10.5097Z" fill="#FFB800"/>
<path d="M11.55 7.58429C14.1372 7.58429 15.6061 9.28859 15.8193 11.3483H15.8844C17.5497 11.3483 18.9 12.6885 18.9 14.3419C18.9 15.9953 17.5497 17.3355 15.8844 17.3355H7.21558C5.55028 17.3355 4.19998 15.9953 4.19998 14.3419C4.19998 12.6885 5.55028 11.3483 7.21558 11.3483H7.28068C7.49488 9.2745 8.96173 7.58429 11.55 7.58429Z" fill="#969696"/>
</svg>
