<svg width="21" height="21" viewBox="0 0 21 21" fill="none" xmlns="http://www.w3.org/2000/svg">
<path d="M17.2596 7.23626C17.27 7.37737 17.27 7.51836 17.27 7.66072C17.27 11.9979 13.7615 17 7.34623 17V16.9975C5.45101 17 3.59507 16.4891 2 15.5259C2.27559 15.5571 2.5525 15.5727 2.83008 15.5734C4.40087 15.5745 5.92647 15.0787 7.16176 14.1656C6.43394 14.1527 5.72861 13.926 5.14439 13.5173C4.56017 13.1086 4.12626 12.5383 3.90334 11.8861C4.42622 11.9811 4.96491 11.9615 5.47809 11.8295C3.85088 11.5202 2.68027 10.1748 2.68027 8.61227V8.57065C3.16534 8.82497 3.70824 8.96587 4.26326 8.9815C2.73047 8.01757 2.25832 6.09884 3.18376 4.59883C4.05938 5.61284 5.15185 6.44216 6.39023 7.03293C7.6286 7.62371 8.98517 7.96272 10.3718 8.02794C10.2336 7.46783 10.2541 6.88339 10.4312 6.33305C10.6083 5.78272 10.9358 5.28578 11.3809 4.89194C12.7857 3.64916 14.995 3.7129 16.3155 5.0343C17.0966 4.88915 17.8456 4.61964 18.5304 4.23736C18.27 4.99739 17.7252 5.64255 16.9972 6.05285C17.6886 5.97613 18.3637 5.8019 19 5.53601C18.5319 6.19566 17.9426 6.77143 17.2596 7.23626Z" fill="#1D9BF0"/>
</svg>
