<svg width="21" height="21" viewBox="0 0 21 21" fill="none" xmlns="http://www.w3.org/2000/svg">
<path d="M19 10.5C19 15.1944 15.1944 19 10.5 19C5.80558 19 2 15.1944 2 10.5C2 5.80558 5.80558 2 10.5 2C15.1944 2 19 5.80558 19 10.5Z" fill="#10B13D"/>
<path d="M18.5952 10.5C18.5952 14.9709 14.9709 18.5952 10.5 18.5952C6.02912 18.5952 2.40476 14.9709 2.40476 10.5C2.40476 6.02912 6.02912 2.40476 10.5 2.40476C14.9709 2.40476 18.5952 6.02912 18.5952 10.5Z" fill="white"/>
<path d="M10.5 18.5952C14.9709 18.5952 18.5952 14.9709 18.5952 10.5C18.5952 9.88142 18.5259 9.27904 18.3945 8.70023C18.2673 8.68598 18.1321 8.67857 17.9881 8.67857C17.1629 8.67857 16.7801 9.49354 16.3818 10.3416C15.9497 11.2615 15.4994 12.2202 14.4464 12.2202C13.4079 12.2202 12.8357 11.2876 12.2785 10.3795C11.7499 9.51797 11.2349 8.67857 10.3482 8.67857C9.50289 8.67857 9.11526 9.44141 8.69981 10.259C8.22009 11.2031 7.70326 12.2202 6.40179 12.2202C4.97917 12.2202 4.42462 11.0049 3.96522 9.99814C3.64037 9.28623 3.3631 8.67857 2.86013 8.67857C2.77402 8.67857 2.69003 8.68209 2.6081 8.68901C2.47504 9.27126 2.40476 9.87742 2.40476 10.5C2.40476 14.9709 6.02912 18.5952 10.5 18.5952Z" fill="#10B13D"/>
</svg>
