<svg width="21" height="21" viewBox="0 0 21 21" fill="none" xmlns="http://www.w3.org/2000/svg">
<path d="M17.6802 3.81585C17.1416 3.16414 16.5354 2.57728 15.8727 2.06614C15.8141 2.02309 15.7442 2 15.6726 2C15.6009 2 15.5311 2.02309 15.4724 2.06614C14.811 2.57749 14.2059 3.16434 13.6684 3.81585C12.4696 5.25811 11.8369 6.77849 11.8369 8.21298C11.8369 9.27921 12.2412 10.3018 12.9608 11.0557C13.6805 11.8097 14.6566 12.2332 15.6743 12.2332C16.6921 12.2332 17.6681 11.8097 18.3878 11.0557C19.1075 10.3018 19.5118 9.27921 19.5118 8.21298C19.5118 6.77849 18.879 5.25811 17.6802 3.81585ZM15.6743 11.5023C14.8419 11.5013 14.0438 11.1544 13.4552 10.5378C12.8666 9.92113 12.5355 9.08506 12.5346 8.21298C12.5346 5.59846 14.9535 3.41612 15.6743 2.82222C16.3951 3.41612 18.814 5.59755 18.814 8.21298C18.8131 9.08506 18.482 9.92113 17.8934 10.5378C17.3048 11.1544 16.5067 11.5013 15.6743 11.5023ZM18.1115 8.63967C18.0211 9.16902 17.778 9.65663 17.415 10.0368C17.052 10.4171 16.5865 10.6716 16.0812 10.7663C16.062 10.7695 16.0426 10.7712 16.0232 10.7713C15.9357 10.7713 15.8514 10.7368 15.787 10.6747C15.7226 10.6126 15.6828 10.5275 15.6756 10.4361C15.6684 10.3447 15.6941 10.2539 15.7479 10.1815C15.8016 10.1091 15.8793 10.0605 15.9656 10.0454C16.6882 9.91792 17.3013 9.2756 17.4238 8.51724C17.4393 8.42164 17.4904 8.33641 17.5659 8.28029C17.6414 8.22418 17.7351 8.20177 17.8263 8.21801C17.9176 8.23424 17.9989 8.28779 18.0525 8.36687C18.1061 8.44594 18.127 8.54408 18.1115 8.63967Z" fill="#BDD8ED"/>
<path fill-rule="evenodd" clip-rule="evenodd" d="M15.6743 11.5023C14.8419 11.5013 14.0438 11.1544 13.4552 10.5378C12.8666 9.92113 12.5355 9.08506 12.5346 8.21298C12.5346 5.59846 14.9535 3.41612 15.6743 2.82222C16.3951 3.41612 18.814 5.59755 18.814 8.21298C18.8131 9.08506 18.482 9.92113 17.8934 10.5378C17.3048 11.1544 16.5067 11.5013 15.6743 11.5023ZM17.415 10.0368C17.778 9.65663 18.0211 9.16902 18.1115 8.63967C18.127 8.54408 18.1061 8.44594 18.0525 8.36687C17.9989 8.28779 17.9176 8.23424 17.8263 8.21801C17.7351 8.20177 17.6414 8.22418 17.5659 8.28029C17.4904 8.33641 17.4393 8.42164 17.4238 8.51724C17.3013 9.2756 16.6882 9.91792 15.9656 10.0454C15.8793 10.0605 15.8016 10.1091 15.7479 10.1815C15.6941 10.2539 15.6684 10.3447 15.6756 10.4361C15.6828 10.5275 15.7226 10.6126 15.787 10.6747C15.8514 10.7368 15.9357 10.7713 16.0232 10.7713C16.0426 10.7712 16.062 10.7695 16.0812 10.7663C16.5865 10.6716 17.052 10.4171 17.415 10.0368Z" fill="#BDD8ED"/>
<path d="M17.6802 3.81585C17.1416 3.16414 16.5354 2.57728 15.8727 2.06614C15.8141 2.02309 15.7442 2 15.6726 2C15.6009 2 15.5311 2.02309 15.4724 2.06614C14.811 2.57749 14.2059 3.16434 13.6684 3.81585C12.4696 5.25811 11.8369 6.77849 11.8369 8.21298C11.8369 9.27921 12.2412 10.3018 12.9608 11.0557C13.6805 11.8097 14.6566 12.2332 15.6743 12.2332C16.6921 12.2332 17.6681 11.8097 18.3878 11.0557C19.1075 10.3018 19.5118 9.27921 19.5118 8.21298C19.5118 6.77849 18.879 5.25811 17.6802 3.81585ZM15.6743 11.5023C14.8419 11.5013 14.0438 11.1544 13.4552 10.5378C12.8666 9.92113 12.5355 9.08506 12.5346 8.21298C12.5346 5.59846 14.9535 3.41612 15.6743 2.82222C16.3951 3.41612 18.814 5.59755 18.814 8.21298C18.8131 9.08506 18.482 9.92113 17.8934 10.5378C17.3048 11.1544 16.5067 11.5013 15.6743 11.5023ZM18.1115 8.63967C18.0211 9.16902 17.778 9.65663 17.415 10.0368C17.052 10.4171 16.5865 10.6716 16.0812 10.7663C16.062 10.7695 16.0426 10.7712 16.0232 10.7713C15.9357 10.7713 15.8514 10.7368 15.787 10.6747C15.7226 10.6126 15.6828 10.5275 15.6756 10.4361C15.6684 10.3447 15.6941 10.2539 15.7479 10.1815C15.8016 10.1091 15.8793 10.0605 15.9656 10.0454C16.6882 9.91792 17.3013 9.2756 17.4238 8.51724C17.4393 8.42164 17.4904 8.33641 17.5659 8.28029C17.6414 8.22418 17.7351 8.20177 17.8263 8.21801C17.9176 8.23424 17.9989 8.28779 18.0525 8.36687C18.1061 8.44594 18.127 8.54408 18.1115 8.63967Z" fill="#4AA1E2"/>
<path d="M12.8545 7.61218C12.1004 6.69977 11.2516 5.87818 10.3239 5.16258C10.2418 5.10231 10.144 5.06998 10.0437 5.06998C9.94346 5.06998 9.84562 5.10231 9.7635 5.16258C8.83752 5.87848 7.99043 6.70006 7.23785 7.61218C5.55957 9.63134 4.67373 11.7599 4.67373 13.7682C4.67373 15.2609 5.23975 16.6925 6.24728 17.748C7.25481 18.8035 8.62131 19.3965 10.0462 19.3965C11.471 19.3965 12.8375 18.8035 13.8451 17.748C14.8526 16.6925 15.4186 15.2609 15.4186 13.7682C15.4186 11.7599 14.5328 9.63134 12.8545 7.61218ZM10.0462 18.3731C8.88077 18.3718 7.76348 17.8862 6.93941 17.0229C6.11535 16.1596 5.65183 14.9891 5.65054 13.7682C5.65054 10.1078 9.037 7.05254 10.0462 6.22109C11.0553 7.05254 14.4418 10.1065 14.4418 13.7682C14.4405 14.9891 13.977 16.1596 13.1529 17.0229C12.3289 17.8862 11.2116 18.3718 10.0462 18.3731ZM13.4583 14.3655C13.3316 15.1066 12.9913 15.7893 12.4831 16.3216C11.9749 16.8539 11.3232 17.2103 10.6158 17.3428C10.5889 17.3473 10.5618 17.3496 10.5346 17.3498C10.4121 17.3498 10.294 17.3015 10.2039 17.2146C10.1138 17.1277 10.0581 17.0084 10.048 16.8805C10.0378 16.7526 10.0739 16.6254 10.1491 16.5241C10.2243 16.4227 10.3332 16.3547 10.454 16.3335C11.4656 16.1551 12.324 15.2558 12.4955 14.1941C12.5172 14.0603 12.5888 13.941 12.6944 13.8624C12.8001 13.7838 12.9313 13.7525 13.059 13.7752C13.1868 13.7979 13.3007 13.8729 13.3756 13.9836C13.4506 14.0943 13.48 14.2317 13.4583 14.3655Z" fill="#BDD8ED"/>
<path fill-rule="evenodd" clip-rule="evenodd" d="M10.0462 18.3731C8.88077 18.3718 7.76348 17.8862 6.93941 17.0229C6.11535 16.1596 5.65183 14.9891 5.65054 13.7682C5.65054 10.1078 9.037 7.05254 10.0462 6.22109C11.0553 7.05254 14.4418 10.1065 14.4418 13.7682C14.4405 14.9891 13.977 16.1596 13.1529 17.0229C12.3289 17.8862 11.2116 18.3718 10.0462 18.3731ZM12.4831 16.3216C12.9913 15.7893 13.3316 15.1066 13.4583 14.3655C13.48 14.2317 13.4506 14.0943 13.3756 13.9836C13.3007 13.8729 13.1868 13.7979 13.059 13.7752C12.9313 13.7525 12.8001 13.7838 12.6944 13.8624C12.5888 13.941 12.5172 14.0603 12.4955 14.1941C12.324 15.2558 11.4656 16.1551 10.454 16.3335C10.3332 16.3547 10.2243 16.4227 10.1491 16.5241C10.0739 16.6254 10.0378 16.7526 10.048 16.8805C10.0581 17.0084 10.1138 17.1277 10.2039 17.2146C10.294 17.3015 10.4121 17.3498 10.5346 17.3498C10.5618 17.3496 10.5889 17.3473 10.6158 17.3428C11.3232 17.2103 11.9749 16.8539 12.4831 16.3216Z" fill="#BDD8ED"/>
<path d="M12.8545 7.61218C12.1004 6.69977 11.2516 5.87818 10.3239 5.16258C10.2418 5.10231 10.144 5.06998 10.0437 5.06998C9.94346 5.06998 9.84562 5.10231 9.7635 5.16258C8.83752 5.87848 7.99043 6.70006 7.23785 7.61218C5.55957 9.63134 4.67373 11.7599 4.67373 13.7682C4.67373 15.2609 5.23975 16.6925 6.24728 17.748C7.25481 18.8035 8.62131 19.3965 10.0462 19.3965C11.471 19.3965 12.8375 18.8035 13.8451 17.748C14.8526 16.6925 15.4186 15.2609 15.4186 13.7682C15.4186 11.7599 14.5328 9.63134 12.8545 7.61218ZM10.0462 18.3731C8.88077 18.3718 7.76348 17.8862 6.93941 17.0229C6.11535 16.1596 5.65183 14.9891 5.65054 13.7682C5.65054 10.1078 9.037 7.05254 10.0462 6.22109C11.0553 7.05254 14.4418 10.1065 14.4418 13.7682C14.4405 14.9891 13.977 16.1596 13.1529 17.0229C12.3289 17.8862 11.2116 18.3718 10.0462 18.3731ZM13.4583 14.3655C13.3316 15.1066 12.9913 15.7893 12.4831 16.3216C11.9749 16.8539 11.3232 17.2103 10.6158 17.3428C10.5889 17.3473 10.5618 17.3496 10.5346 17.3498C10.4121 17.3498 10.294 17.3015 10.2039 17.2146C10.1138 17.1277 10.0581 17.0084 10.048 16.8805C10.0378 16.7526 10.0739 16.6254 10.1491 16.5241C10.2243 16.4227 10.3332 16.3547 10.454 16.3335C11.4656 16.1551 12.324 15.2558 12.4955 14.1941C12.5172 14.0603 12.5888 13.941 12.6944 13.8624C12.8001 13.7838 12.9313 13.7525 13.059 13.7752C13.1868 13.7979 13.3007 13.8729 13.3756 13.9836C13.4506 14.0943 13.48 14.2317 13.4583 14.3655Z" fill="#4AA1E2"/>
<path d="M5.3772 9.41106C4.98219 8.95486 4.53761 8.54406 4.05168 8.18626C4.00866 8.15613 3.95741 8.13997 3.90489 8.13997C3.85237 8.13997 3.80113 8.15613 3.75811 8.18626C3.27307 8.54421 2.82936 8.955 2.43515 9.41106C1.55605 10.4206 1.09204 11.4849 1.09204 12.4891C1.09204 13.2354 1.38853 13.9512 1.91628 14.479C2.44403 15.0067 3.15982 15.3032 3.90617 15.3032C4.65253 15.3032 5.36831 15.0067 5.89607 14.479C6.42382 13.9512 6.72031 13.2354 6.72031 12.4891C6.72031 11.4849 6.25629 10.4206 5.3772 9.41106ZM3.90617 14.7915C3.29573 14.7909 2.71048 14.5481 2.27883 14.1164C1.84718 13.6848 1.60438 13.0995 1.6037 12.4891C1.6037 10.6589 3.37756 9.13125 3.90617 8.71552C4.43478 9.13125 6.20865 10.6582 6.20865 12.4891C6.20797 13.0995 5.96517 13.6848 5.53352 14.1164C5.10187 14.5481 4.51662 14.7909 3.90617 14.7915ZM5.69347 12.7877C5.62713 13.1583 5.44886 13.4996 5.18265 13.7658C4.91645 14.0319 4.57509 14.2101 4.20454 14.2764C4.19047 14.2786 4.17625 14.2798 4.162 14.2799C4.09783 14.2799 4.03601 14.2557 3.9888 14.2123C3.94158 14.1688 3.91243 14.1092 3.90712 14.0452C3.90181 13.9813 3.92072 13.9177 3.96011 13.867C3.99951 13.8163 4.0565 13.7823 4.11979 13.7717C4.64968 13.6825 5.0993 13.2329 5.18916 12.702C5.20053 12.6351 5.23801 12.5755 5.29336 12.5362C5.34872 12.4969 5.41741 12.4812 5.48433 12.4926C5.55124 12.5039 5.61091 12.5414 5.65019 12.5968C5.68947 12.6521 5.70483 12.7208 5.69347 12.7877Z" fill="#BDD8ED"/>
<path fill-rule="evenodd" clip-rule="evenodd" d="M3.90617 14.7915C3.29573 14.7909 2.71048 14.5481 2.27883 14.1164C1.84718 13.6848 1.60438 13.0995 1.6037 12.4891C1.6037 10.6589 3.37756 9.13125 3.90617 8.71552C4.43478 9.13125 6.20865 10.6582 6.20865 12.4891C6.20797 13.0995 5.96517 13.6848 5.53352 14.1164C5.10187 14.5481 4.51662 14.7909 3.90617 14.7915ZM5.18265 13.7658C5.44886 13.4996 5.62713 13.1583 5.69347 12.7877C5.70483 12.7208 5.68947 12.6521 5.65019 12.5968C5.61091 12.5414 5.55124 12.5039 5.48433 12.4926C5.41741 12.4812 5.34872 12.4969 5.29336 12.5362C5.23801 12.5755 5.20053 12.6351 5.18916 12.702C5.0993 13.2329 4.64968 13.6825 4.11979 13.7717C4.0565 13.7823 3.99951 13.8163 3.96011 13.867C3.92072 13.9177 3.90181 13.9813 3.90712 14.0452C3.91243 14.1092 3.94158 14.1688 3.9888 14.2123C4.03601 14.2557 4.09783 14.2799 4.162 14.2799C4.17625 14.2798 4.19047 14.2786 4.20454 14.2764C4.57509 14.2101 4.91645 14.0319 5.18265 13.7658Z" fill="#BDD8ED"/>
<path d="M5.3772 9.41106C4.98219 8.95486 4.53761 8.54406 4.05168 8.18626C4.00866 8.15613 3.95741 8.13997 3.90489 8.13997C3.85237 8.13997 3.80113 8.15613 3.75811 8.18626C3.27307 8.54421 2.82936 8.955 2.43515 9.41106C1.55605 10.4206 1.09204 11.4849 1.09204 12.4891C1.09204 13.2354 1.38853 13.9512 1.91628 14.479C2.44403 15.0067 3.15982 15.3032 3.90617 15.3032C4.65253 15.3032 5.36831 15.0067 5.89607 14.479C6.42382 13.9512 6.72031 13.2354 6.72031 12.4891C6.72031 11.4849 6.25629 10.4206 5.3772 9.41106ZM3.90617 14.7915C3.29573 14.7909 2.71048 14.5481 2.27883 14.1164C1.84718 13.6848 1.60438 13.0995 1.6037 12.4891C1.6037 10.6589 3.37756 9.13125 3.90617 8.71552C4.43478 9.13125 6.20865 10.6582 6.20865 12.4891C6.20797 13.0995 5.96517 13.6848 5.53352 14.1164C5.10187 14.5481 4.51662 14.7909 3.90617 14.7915ZM5.69347 12.7877C5.62713 13.1583 5.44886 13.4996 5.18265 13.7658C4.91645 14.0319 4.57509 14.2101 4.20454 14.2764C4.19047 14.2786 4.17625 14.2798 4.162 14.2799C4.09783 14.2799 4.03601 14.2557 3.9888 14.2123C3.94158 14.1688 3.91243 14.1092 3.90712 14.0452C3.90181 13.9813 3.92072 13.9177 3.96011 13.867C3.99951 13.8163 4.0565 13.7823 4.11979 13.7717C4.64968 13.6825 5.0993 13.2329 5.18916 12.702C5.20053 12.6351 5.23801 12.5755 5.29336 12.5362C5.34872 12.4969 5.41741 12.4812 5.48433 12.4926C5.55124 12.5039 5.61091 12.5414 5.65019 12.5968C5.68947 12.6521 5.70483 12.7208 5.69347 12.7877Z" fill="#4AA1E2"/>
</svg>
