<svg width="21" height="21" viewBox="0 0 21 21" fill="none" xmlns="http://www.w3.org/2000/svg">
<path d="M18.0637 2H2.93808C2.41999 2 2 2.41999 2 2.93808V18.0637C2 18.5818 2.41999 19.0018 2.93808 19.0018H18.0637C18.5818 19.0018 19.0018 18.5818 19.0018 18.0637V2.93808C19.0018 2.41999 18.5818 2 18.0637 2Z" fill="#3D5A98"/>
<path d="M13.7296 18.9998V12.4161H15.939L16.2694 9.85035H13.7296V8.21267C13.7296 7.46996 13.9364 6.96285 15.0009 6.96285H16.3599V4.66435C15.7018 4.59576 15.0405 4.56315 14.3789 4.56666C12.4223 4.56666 11.0748 5.75901 11.0748 7.95839V9.85035H8.86536V12.4161H11.0748V18.9998H13.7296Z" fill="white"/>
</svg>
