<svg width="21" height="21" viewBox="0 0 21 21" fill="none" xmlns="http://www.w3.org/2000/svg">
<path fill-rule="evenodd" clip-rule="evenodd" d="M6.96783 13.266C7.00126 13.2837 7.0336 13.303 7.06539 13.3223C7.15153 13.3372 7.23849 13.3557 7.32408 13.3788C7.75588 13.4948 8.18686 13.6106 8.62327 13.7054C8.65235 13.709 8.68142 13.7144 8.71131 13.7182C8.80697 13.7299 8.90072 13.7443 8.99202 13.7617C9.36736 13.6871 9.75002 13.6557 10.1325 13.6682C10.8597 13.6951 11.5866 13.7204 12.3023 13.9785C12.7779 14.1492 13.2534 14.322 13.7293 14.4946C13.8784 14.4364 14.0284 14.3834 14.176 14.3294L14.645 14.2815C14.6382 14.2758 14.6331 14.2682 14.6254 14.2625C14.5678 14.2171 14.5157 14.1514 14.4629 14.0905C14.1874 13.7745 13.9222 13.4332 13.7369 12.9557C13.5742 12.5394 13.5069 12.0919 13.5398 11.6462C13.576 11.1647 13.7124 10.7677 13.9081 10.4275C14.2869 9.76957 14.7485 9.39077 15.2874 9.29213C15.5075 9.25164 15.7244 9.29213 15.9241 9.47419C16.2108 9.73615 16.3181 10.1769 16.3252 10.6938C16.3287 10.9775 16.3004 11.262 16.286 11.5535C16.5831 11.2386 16.86 10.8772 17.0445 10.3541C17.2507 9.76985 17.2534 9.18262 17.0273 8.61006C16.8657 8.19783 16.6371 7.91251 16.3806 7.68995C15.8026 7.18805 15.1784 7.02772 14.5379 6.98968C14.1056 6.96387 13.6787 7.03425 13.2543 7.15734C12.7332 7.30897 12.2339 7.52745 11.7689 7.80734C10.3015 8.6905 9.02001 10.0946 7.85805 11.8256C7.54436 12.295 7.24743 12.7755 6.96783 13.266ZM15.1771 8.97745C15.1814 8.97256 15.1858 8.96713 15.1912 8.96169C15.2798 8.96278 15.3475 8.96414 15.3475 8.96414L15.4798 9.03099C15.3765 9.01305 15.2752 8.99811 15.1771 8.97745ZM13.5589 7.42202C13.6801 7.38724 13.8013 7.34294 13.9235 7.31903C14.2075 7.26411 14.4992 7.26282 14.7836 7.31522C15.0159 7.35653 15.2447 7.41359 15.4689 7.50028H14.5526L14.4616 7.5799C14.3827 7.55056 14.3009 7.52979 14.2176 7.51794C14.0102 7.48696 13.8015 7.48017 13.5937 7.46251C13.5825 7.46196 13.5725 7.45925 13.5608 7.45762C13.56 7.4462 13.56 7.43398 13.5589 7.42202Z" fill="#4E94B5"/>
<path fill-rule="evenodd" clip-rule="evenodd" d="M16.6177 10.5218C16.6286 10.3468 16.6528 10.1587 16.6493 9.97559C16.643 9.59896 16.5096 9.38102 16.3058 9.2908C16.1745 9.23265 16.0357 9.21146 15.908 9.17531C15.9283 9.15493 15.9618 9.12559 15.9925 9.08972C16.0618 9.0082 16.0599 8.92477 15.9849 8.8764C15.896 8.81771 15.8003 8.80819 15.7039 8.8158C15.6547 8.82069 15.6061 8.82694 15.5547 8.83265C15.5968 8.78836 15.6403 8.7495 15.6786 8.70303C15.7713 8.59216 15.7702 8.4783 15.6786 8.38646C15.5851 8.29298 15.4805 8.25222 15.3718 8.22803C15.2444 8.19896 15.1156 8.18537 14.9876 8.16499C14.9805 8.16417 14.9737 8.16173 14.9675 8.1601V8.13781C15.0441 8.12178 15.1207 8.09977 15.1979 8.0908C15.3762 8.07001 15.5568 8.08254 15.7305 8.12776C16.0857 8.21798 16.4273 8.36608 16.718 8.71363C16.7957 8.80765 16.8664 8.93021 16.9221 9.06146C17.0221 9.29325 17.0237 9.55847 16.9506 9.83401C16.8876 10.0715 16.7104 10.4305 16.6177 10.5229" fill="#F1F1F1"/>
<path d="M19.3307 13.9141V16.2834C19.3307 17.3855 18.4948 18.2785 17.4633 18.2785H3.86815C2.83608 18.2785 1.99994 17.3855 1.99994 16.2834V13.9141H19.3298" fill="#4490B3"/>
<path fill-rule="evenodd" clip-rule="evenodd" d="M2.179 14.5199C2.43145 14.3463 2.68471 14.1737 2.93878 14.0047C3.1108 13.8906 3.29259 13.814 3.47058 13.7205C4.43226 13.2175 5.41895 12.8477 6.45509 12.7425C7.43009 12.6444 8.404 12.5444 9.40074 12.7553C10.4105 12.9688 11.4209 13.1879 12.4315 13.4058C12.5728 13.4357 12.7138 13.468 12.8554 13.499C12.8578 13.4849 12.8556 13.4705 12.8594 13.4569C12.7986 13.4169 12.7369 13.3778 12.6733 13.336C12.7782 13.1175 12.751 12.8281 12.5448 12.705C12.4613 12.6547 12.3817 12.577 12.3016 12.5063C11.882 12.1354 11.4728 11.7292 11.1488 11.1267C10.8623 10.5998 10.6994 10.0145 10.6728 9.41531C10.6431 8.76613 10.7605 8.21096 10.966 7.72156C11.3635 6.77373 11.9184 6.18216 12.6219 5.95118C12.9086 5.8577 13.2054 5.87129 13.5007 6.07754C13.9255 6.37319 14.1407 6.9414 14.2331 7.62971C14.2842 8.00716 14.2929 8.39194 14.3206 8.78433C14.666 8.30879 14.9763 7.77564 15.1385 7.0433C15.3181 6.22536 15.2271 5.44276 14.8328 4.71939C14.5507 4.20064 14.1988 3.86178 13.8206 3.61259C12.9679 3.04928 12.1105 2.95118 11.2488 3.01857C10.6681 3.06449 10.1092 3.23759 9.56379 3.48053C8.89206 3.77883 8.26167 4.16262 7.68824 4.62238C5.87384 6.07129 4.39205 8.17944 3.12384 10.7055C2.72137 11.5118 2.35169 12.334 2.01569 13.1702L2.18036 14.5194M10.0143 3.77618C10.1709 3.70716 10.3247 3.62536 10.4836 3.57102C10.8525 3.44581 11.2414 3.39016 11.6306 3.40689C12.42 3.43705 13.2051 3.59602 13.9613 4.2039C14.1657 4.36748 14.3624 4.59574 14.5339 4.84901C14.8372 5.29547 14.9491 5.85933 14.9029 6.47618C14.8632 7.00988 14.6312 7.85227 14.469 8.09085C14.4238 7.7145 14.4002 7.3039 14.3214 6.91422C14.1573 6.11721 13.7853 5.71504 13.3162 5.61694C13.0143 5.55363 12.7122 5.5702 12.4249 5.55118C12.46 5.49873 12.5203 5.4221 12.5709 5.3308C12.685 5.12672 12.6464 4.95036 12.4698 4.8808C12.257 4.79683 12.0507 4.81939 11.8475 4.8808C11.7461 4.91259 11.645 4.94846 11.5385 4.98379C11.6122 4.86993 11.6863 4.76857 11.7505 4.65118C11.9024 4.37482 11.8548 4.1327 11.6236 3.97944C11.3882 3.82428 11.1461 3.78433 10.9094 3.78107C10.6274 3.77781 10.3478 3.80797 10.0673 3.82346C10.0526 3.82401 10.0377 3.82237 10.0222 3.82237C10.0198 3.80743 10.0173 3.79167 10.0143 3.77618Z" fill="#56A4C7"/>
<path fill-rule="evenodd" clip-rule="evenodd" d="M14.4552 8.09269C14.409 7.71633 14.3862 7.30573 14.3063 6.91606C14.1425 6.11905 13.771 5.71687 13.3012 5.61878C12.9993 5.55546 12.6971 5.57204 12.4107 5.55301C12.4463 5.50057 12.5066 5.42394 12.5571 5.33263C12.6707 5.12856 12.6324 4.9522 12.455 4.88263C12.2436 4.79867 12.0362 4.82122 11.8327 4.88263C11.7313 4.91443 11.6302 4.9503 11.524 4.98562C11.5971 4.87176 11.6721 4.77041 11.7354 4.65301C11.8873 4.37666 11.8403 4.13454 11.6093 3.98128C11.3732 3.82611 11.133 3.78617 10.8933 3.78291C10.6128 3.77964 10.3327 3.80981 10.052 3.8253C10.0373 3.82584 10.0215 3.82421 10.0074 3.82421C10.0055 3.80872 10.002 3.79296 9.99872 3.77747C10.1558 3.70845 10.3101 3.62666 10.4691 3.57231C10.8379 3.4471 11.2267 3.39145 11.6158 3.40818C12.405 3.43834 13.1903 3.59731 13.9465 4.20519C14.1493 4.36878 14.3471 4.59704 14.5183 4.8503C14.8221 5.29676 14.9335 5.86062 14.8881 6.47747C14.8493 7.01171 14.6164 7.8541 14.4552 8.09269Z" fill="#F1F1F1"/>
<path d="M2.01501 13.1007C3.25849 11.6953 4.65387 11.1382 5.99762 11.3192C6.7093 11.4149 7.41121 11.8738 8.11311 12.1651C8.92479 12.5024 9.65305 12.1893 10.4577 11.9556C11.1607 11.7513 11.8889 11.8274 12.5843 12.1602C13.3971 12.5491 14.155 13.245 14.9925 13.116C15.7166 13.0048 16.4256 12.4782 17.1501 12.3268C17.8846 12.1719 18.6224 12.835 19.3349 13.2372V14.6581C19.3158 14.6499 19.2971 14.6407 19.2789 14.6306C18.5585 14.2445 17.8908 13.6904 17.1479 13.91C16.427 14.1227 15.7283 14.6021 14.9995 14.6497C14.3433 14.6912 13.7012 14.2695 13.0691 13.8646C12.3158 13.3833 11.5715 13.2703 10.802 13.4518C10.1452 13.6067 9.53784 13.9352 8.87235 13.8369C8.16555 13.7323 7.46827 13.2698 6.77017 12.9863C5.36664 12.4162 3.818 13.0111 2.52697 14.5915C2.36909 14.7855 2.17778 14.7461 2.01447 14.5722V13.1007" fill="#56A4C7"/>
<path d="M2.00519 13.9855C3.2503 12.5798 4.64541 12.023 5.9878 12.204C6.70003 12.2996 7.40139 12.7583 8.10438 13.0499C8.91497 13.3877 9.64378 13.0741 10.4487 12.8401C11.1511 12.6358 11.8791 12.7119 12.575 13.045C13.387 13.4339 14.146 14.1298 14.9821 14.001C15.7068 13.8893 16.4155 13.3632 17.1394 13.2111C17.875 13.057 18.612 13.7198 19.3269 14.1225V15.5434C19.3076 15.5352 19.2887 15.526 19.2704 15.5157C18.5498 15.1304 17.8829 14.5765 17.1397 14.7953C16.4191 15.0075 15.7196 15.4871 14.9911 15.535C14.3343 15.5765 13.6932 15.1545 13.0606 14.7494C12.3079 14.2681 11.5642 14.1551 10.7941 14.3374C10.1367 14.4923 9.53046 14.8206 8.86497 14.7219C8.15764 14.6168 7.46117 14.1543 6.76225 13.8714C5.35845 13.3013 3.81062 13.8967 2.51959 15.4771C2.36171 15.6706 2.16959 15.6312 2.00573 15.4573V13.9855" fill="#56A4C7"/>
<path d="M2.01479 14.8183C3.25827 13.4126 4.65365 12.8553 5.9974 13.0373C6.70909 13.1333 7.41099 13.5914 8.11289 13.883C8.92458 14.2202 9.65284 13.9074 10.4575 13.6729C11.1604 13.4683 11.8887 13.5449 12.5841 13.8778C13.3969 14.2667 14.1547 14.9623 14.9922 14.8343C15.7164 14.7224 16.4254 14.1955 17.1499 14.0436C17.8844 13.8895 18.6221 14.5534 19.3346 14.9547V16.3756C19.3154 16.3677 19.2967 16.3584 19.2787 16.3479C18.5583 15.9623 17.8906 15.4088 17.1477 15.6275C16.4268 15.8395 15.7281 16.3205 14.9993 16.3672C14.3431 16.4091 13.7009 15.9871 13.0689 15.5816C12.3156 15.1004 11.5713 14.9879 10.8018 15.1697C10.145 15.3246 9.53762 15.6531 8.87213 15.5542C8.16534 15.4501 7.46806 14.9871 6.76996 14.7034C5.36615 14.1335 3.81751 14.7286 2.52648 16.3093C2.3686 16.5028 2.17729 16.464 2.01398 16.29V14.8183" fill="white"/>
</svg>
