<svg width="21" height="21" viewBox="0 0 21 21" fill="none" xmlns="http://www.w3.org/2000/svg">
<path d="M15.9696 2.02292C15.9696 1.41532 15.3317 0.777344 14.6633 0.777344H6.33918C5.67082 0.777344 5.03284 1.41532 5.03284 2.02292V18.9446C5.03284 19.5826 5.67082 20.1902 6.33918 20.1902H14.6937C15.3317 20.1902 16 19.5522 16 18.9446V2.02292H15.9696Z" fill="#94989B"/>
<path d="M15.6658 18.7015C15.6658 19.3091 15.0582 19.9167 14.4506 19.9167H6.55181C5.94421 19.9167 5.33661 19.3091 5.33661 18.7015V2.29626C5.33661 1.68866 5.94421 1.08105 6.55181 1.08105H14.4506C15.0582 1.08105 15.6658 1.68866 15.6658 2.29626V18.7015Z" fill="white"/>
<path d="M13.9949 2.44842C14.1627 2.44842 14.2987 2.3124 14.2987 2.14462C14.2987 1.97684 14.1627 1.84082 13.9949 1.84082C13.8271 1.84082 13.6911 1.97684 13.6911 2.14462C13.6911 2.3124 13.8271 2.44842 13.9949 2.44842Z" fill="#94989B"/>
<path d="M11.4126 2.14409C11.4126 2.23523 11.3823 2.29599 11.3215 2.29599H9.68098C9.62022 2.29599 9.58984 2.23523 9.58984 2.14409C9.58984 2.08333 9.62022 1.99219 9.68098 1.99219H11.3215C11.3823 1.99219 11.4126 2.08333 11.4126 2.14409Z" fill="#94989B"/>
<path d="M5.94421 3.20801H15.0582V17.7904H5.94421V3.20801Z" fill="#3E4347"/>
<path d="M11.6557 19.0659C11.6557 19.1874 11.5646 19.309 11.4127 19.309H9.5899C9.46838 19.309 9.34686 19.2178 9.34686 19.0659V18.6102C9.34686 18.4887 9.438 18.3672 9.5899 18.3672H11.4127C11.5342 18.3672 11.6557 18.4583 11.6557 18.6102V19.0659Z" fill="#94989B"/>
<path d="M8.07077 5.24265C8.07077 5.39455 7.94925 5.48569 7.82773 5.48569H6.82519C6.67329 5.48569 6.58215 5.36417 6.58215 5.24265V4.24011C6.58215 4.08821 6.70367 3.99707 6.82519 3.99707H7.82773C7.97963 3.99707 8.07077 4.11859 8.07077 4.24011V5.24265Z" fill="#42ADE2"/>
<path d="M10.1974 5.24265C10.1974 5.39455 10.0758 5.48569 9.95432 5.48569H8.95178C8.79988 5.48569 8.70874 5.36417 8.70874 5.24265V4.24011C8.70874 4.08821 8.83026 3.99707 8.95178 3.99707H9.95432C10.1062 3.99707 10.1974 4.11859 10.1974 4.24011V5.24265Z" fill="#C7E755"/>
<path d="M12.3239 5.24265C12.3239 5.39455 12.2024 5.48569 12.0809 5.48569H11.0784C10.9265 5.48569 10.8353 5.36417 10.8353 5.24265V4.24011C10.8353 4.08821 10.9568 3.99707 11.0784 3.99707H12.0809C12.2328 3.99707 12.3239 4.11859 12.3239 4.24011V5.24265Z" fill="#F2B200"/>
<path d="M14.4505 5.24265C14.4505 5.39455 14.329 5.48569 14.2075 5.48569H13.205C13.0531 5.48569 12.9619 5.36417 12.9619 5.24265V4.24011C12.9619 4.08821 13.0834 3.99707 13.205 3.99707H14.2075C14.3594 3.99707 14.4505 4.11859 14.4505 4.24011V5.24265Z" fill="#42ADE2"/>
<path d="M8.07077 16.9389C8.07077 17.0908 7.94925 17.182 7.82773 17.182H6.82519C6.67329 17.182 6.58215 17.0605 6.58215 16.9389V15.9364C6.58215 15.7845 6.70367 15.6934 6.82519 15.6934H7.82773C7.97963 15.6934 8.07077 15.8149 8.07077 15.9364V16.9389Z" fill="#C7E755"/>
<path d="M10.1974 16.9389C10.1974 17.0908 10.0758 17.182 9.95432 17.182H8.95178C8.79988 17.182 8.70874 17.0605 8.70874 16.9389V15.9364C8.70874 15.7845 8.83026 15.6934 8.95178 15.6934H9.95432C10.1062 15.6934 10.1974 15.8149 10.1974 15.9364V16.9389Z" fill="#FF435E"/>
<path d="M12.3239 16.9389C12.3239 17.0908 12.2024 17.182 12.0809 17.182H11.0784C10.9265 17.182 10.8353 17.0605 10.8353 16.9389V15.9364C10.8353 15.7845 10.9568 15.6934 11.0784 15.6934H12.0809C12.2328 15.6934 12.3239 15.8149 12.3239 15.9364V16.9389Z" fill="#42ADE2"/>
<path d="M14.4505 16.9389C14.4505 17.0908 14.329 17.182 14.2075 17.182H13.205C13.0531 17.182 12.9619 17.0605 12.9619 16.9389V15.9364C12.9619 15.7845 13.0834 15.6934 13.205 15.6934H14.2075C14.3594 15.6934 14.4505 15.8149 14.4505 15.9364V16.9389Z" fill="#C28FEF"/>
<path d="M8.07077 11.0757C8.07077 11.2276 7.94925 11.3187 7.82773 11.3187H6.82519C6.67329 11.3187 6.58215 11.1972 6.58215 11.0757V10.0731C6.58215 9.92122 6.70367 9.83008 6.82519 9.83008H7.82773C7.97963 9.83008 8.07077 9.9516 8.07077 10.0731V11.0757Z" fill="#C7E755"/>
<path d="M10.1974 11.0757C10.1974 11.2276 10.0758 11.3187 9.95432 11.3187H8.95178C8.79988 11.3187 8.70874 11.1972 8.70874 11.0757V10.0731C8.70874 9.92122 8.83026 9.83008 8.95178 9.83008H9.95432C10.1062 9.83008 10.1974 9.9516 10.1974 10.0731V11.0757Z" fill="#C28FEF"/>
<path d="M12.3239 11.0757C12.3239 11.2276 12.2024 11.3187 12.0809 11.3187H11.0784C10.9265 11.3187 10.8353 11.1972 10.8353 11.0757V10.0731C10.8353 9.92122 10.9568 9.83008 11.0784 9.83008H12.0809C12.2328 9.83008 12.3239 9.9516 12.3239 10.0731V11.0757Z" fill="#42ADE2"/>
<path d="M8.07077 9.1323C8.07077 9.2842 7.94925 9.37534 7.82773 9.37534H6.82519C6.67329 9.37534 6.58215 9.25382 6.58215 9.1323V8.12976C6.58215 7.97786 6.70367 7.88672 6.82519 7.88672H7.82773C7.97963 7.88672 8.07077 8.00824 8.07077 8.12976V9.1323Z" fill="#FF435E"/>
<path d="M10.1974 9.1323C10.1974 9.2842 10.0758 9.37534 9.95432 9.37534H8.95178C8.79988 9.37534 8.70874 9.25382 8.70874 9.1323V8.12976C8.70874 7.97786 8.83026 7.88672 8.95178 7.88672H9.95432C10.1062 7.88672 10.1974 8.00824 10.1974 8.12976V9.1323Z" fill="#F2B200"/>
<path d="M12.3239 9.1323C12.3239 9.2842 12.2024 9.37534 12.0809 9.37534H11.0784C10.9265 9.37534 10.8353 9.25382 10.8353 9.1323V8.12976C10.8353 7.97786 10.9568 7.88672 11.0784 7.88672H12.0809C12.2328 7.88672 12.3239 8.00824 12.3239 8.12976V9.1323Z" fill="#C7E755"/>
<path d="M14.4505 9.1323C14.4505 9.2842 14.329 9.37534 14.2075 9.37534H13.205C13.0531 9.37534 12.9619 9.25382 12.9619 9.1323V8.12976C12.9619 7.97786 13.0834 7.88672 13.205 7.88672H14.2075C14.3594 7.88672 14.4505 8.00824 14.4505 8.12976V9.1323Z" fill="#F2B200"/>
<path d="M8.07077 7.18796C8.07077 7.33986 7.94925 7.431 7.82773 7.431H6.82519C6.67329 7.431 6.58215 7.30948 6.58215 7.18796V6.18542C6.58215 6.03352 6.70367 5.94238 6.82519 5.94238H7.82773C7.97963 5.94238 8.07077 6.0639 8.07077 6.18542V7.18796Z" fill="#C28FEF"/>
<path d="M10.1974 7.18796C10.1974 7.33986 10.0758 7.431 9.95432 7.431H8.95178C8.79988 7.431 8.70874 7.30948 8.70874 7.18796V6.18542C8.70874 6.03352 8.83026 5.94238 8.95178 5.94238H9.95432C10.1062 5.94238 10.1974 6.0639 10.1974 6.18542V7.18796Z" fill="#42ADE2"/>
<path d="M12.3239 7.18796C12.3239 7.33986 12.2024 7.431 12.0809 7.431H11.0784C10.9265 7.431 10.8353 7.30948 10.8353 7.18796V6.18542C10.8353 6.03352 10.9568 5.94238 11.0784 5.94238H12.0809C12.2328 5.94238 12.3239 6.0639 12.3239 6.18542V7.18796Z" fill="#FF435E"/>
<path d="M14.4505 7.18796C14.4505 7.33986 14.329 7.431 14.2075 7.431H13.205C13.0531 7.431 12.9619 7.30948 12.9619 7.18796V6.18542C12.9619 6.03352 13.0834 5.94238 13.205 5.94238H14.2075C14.3594 5.94238 14.4505 6.0639 14.4505 6.18542V7.18796Z" fill="#C28FEF"/>
</svg>
