<svg width="21" height="21" viewBox="0 0 21 21" fill="none" xmlns="http://www.w3.org/2000/svg">
<path fill-rule="evenodd" clip-rule="evenodd" d="M10.5 19C15.1944 19 19 15.1944 19 10.5C19 5.80558 15.1944 2 10.5 2C5.80558 2 2 5.80558 2 10.5C2 15.1944 5.80558 19 10.5 19ZM15.7147 6.6479C16.0951 6.27382 16.0951 5.6611 15.7147 5.28056C15.3537 4.90648 14.709 4.90648 14.348 5.28056L11.8401 7.78951L5.91546 6.42216L5 7.33157L9.79004 9.85342L7.29509 12.3495L5.68337 12.1108L5 12.8074L7.05656 13.949L8.19121 16L8.88103 15.3163L8.64894 13.7232L11.1632 11.2079L13.6646 16L14.5736 15.0841L13.2069 9.15685L15.7147 6.6479Z" fill="#2B7CB9"/>
</svg>
